G04*
G04 #@! TF.GenerationSoftware,Altium Limited,Altium Designer,21.0.9 (235)*
G04*
G04 Layer_Physical_Order=1*
G04 Layer_Color=255*
%FSLAX44Y44*%
%MOMM*%
G71*
G04*
G04 #@! TF.SameCoordinates,4DC3274F-E9D7-49BC-8B51-1643F64A7915*
G04*
G04*
G04 #@! TF.FilePolarity,Positive*
G04*
G01*
G75*
%ADD17C,1.2700*%
%ADD18R,1.5000X1.5000*%
%ADD19C,1.5000*%
%ADD20R,1.5000X1.5000*%
%ADD21C,1.2700*%
G36*
X596959Y893269D02*
X597570Y893214D01*
X598237Y893103D01*
X599014Y892991D01*
X599847Y892825D01*
X600736Y892603D01*
X601681Y892325D01*
X602625Y891992D01*
X603625Y891547D01*
X604569Y891103D01*
X605458Y890547D01*
X606402Y889881D01*
X607236Y889158D01*
X607291D01*
X607347Y889047D01*
X607513Y888881D01*
X607680Y888714D01*
X607902Y888436D01*
X608125Y888103D01*
X608736Y887325D01*
X609347Y886326D01*
X610013Y885103D01*
X610624Y883715D01*
X611180Y882104D01*
X603514Y880271D01*
Y880326D01*
X603458Y880382D01*
Y880548D01*
X603347Y880770D01*
X603181Y881270D01*
X602903Y881937D01*
X602514Y882715D01*
X602014Y883492D01*
X601347Y884270D01*
X600625Y884937D01*
X600514Y884992D01*
X600236Y885214D01*
X599792Y885492D01*
X599181Y885826D01*
X598403Y886159D01*
X597514Y886437D01*
X596515Y886659D01*
X595404Y886714D01*
X595015D01*
X594681Y886659D01*
X594348Y886603D01*
X593904Y886548D01*
X592959Y886326D01*
X591848Y885937D01*
X590682Y885381D01*
X590071Y885048D01*
X589515Y884659D01*
X588960Y884159D01*
X588460Y883604D01*
Y883548D01*
X588349Y883437D01*
X588238Y883270D01*
X588071Y882992D01*
X587849Y882659D01*
X587627Y882270D01*
X587404Y881770D01*
X587182Y881215D01*
X586904Y880548D01*
X586682Y879826D01*
X586460Y878993D01*
X586238Y878104D01*
X586071Y877104D01*
X585960Y876049D01*
X585905Y874882D01*
X585849Y873605D01*
Y873549D01*
Y873271D01*
Y872882D01*
X585905Y872438D01*
Y871827D01*
X586016Y871105D01*
X586071Y870383D01*
X586182Y869549D01*
X586516Y867827D01*
X586960Y866105D01*
X587238Y865272D01*
X587627Y864494D01*
X588015Y863772D01*
X588460Y863161D01*
X588515Y863106D01*
X588571Y863050D01*
X588738Y862884D01*
X588960Y862661D01*
X589515Y862217D01*
X590293Y861661D01*
X591237Y861050D01*
X592404Y860606D01*
X593737Y860217D01*
X594459Y860162D01*
X595237Y860106D01*
X595515D01*
X595737Y860162D01*
X596348Y860217D01*
X597070Y860328D01*
X597848Y860606D01*
X598736Y860939D01*
X599625Y861384D01*
X600514Y862050D01*
X600625Y862161D01*
X600903Y862439D01*
X601292Y862884D01*
X601736Y863550D01*
X602292Y864439D01*
X602792Y865494D01*
X603292Y866772D01*
X603736Y868272D01*
X611291Y865939D01*
Y865883D01*
X611235Y865661D01*
X611124Y865328D01*
X610957Y864883D01*
X610735Y864383D01*
X610513Y863772D01*
X610235Y863106D01*
X609902Y862383D01*
X609124Y860884D01*
X608125Y859328D01*
X606902Y857828D01*
X606236Y857162D01*
X605514Y856551D01*
X605458Y856495D01*
X605347Y856440D01*
X605125Y856273D01*
X604791Y856051D01*
X604403Y855829D01*
X603903Y855606D01*
X603347Y855329D01*
X602736Y855051D01*
X602014Y854718D01*
X601236Y854440D01*
X600403Y854218D01*
X599514Y853996D01*
X598570Y853773D01*
X597514Y853607D01*
X596459Y853551D01*
X595293Y853495D01*
X594959D01*
X594570Y853551D01*
X594015Y853607D01*
X593404Y853662D01*
X592626Y853773D01*
X591793Y853940D01*
X590849Y854162D01*
X589904Y854440D01*
X588904Y854773D01*
X587849Y855218D01*
X586793Y855717D01*
X585738Y856273D01*
X584682Y856995D01*
X583683Y857773D01*
X582738Y858717D01*
X582683Y858773D01*
X582516Y858939D01*
X582294Y859273D01*
X581960Y859662D01*
X581627Y860217D01*
X581183Y860828D01*
X580738Y861606D01*
X580294Y862495D01*
X579850Y863439D01*
X579405Y864494D01*
X578961Y865716D01*
X578628Y866994D01*
X578294Y868327D01*
X578072Y869827D01*
X577905Y871383D01*
X577850Y873049D01*
Y873105D01*
Y873160D01*
Y873493D01*
X577905Y873993D01*
Y874660D01*
X578017Y875438D01*
X578128Y876382D01*
X578239Y877382D01*
X578461Y878549D01*
X578739Y879715D01*
X579072Y880937D01*
X579461Y882159D01*
X579961Y883437D01*
X580516Y884659D01*
X581183Y885826D01*
X581905Y886936D01*
X582794Y887992D01*
X582849Y888047D01*
X583016Y888214D01*
X583294Y888492D01*
X583683Y888825D01*
X584183Y889214D01*
X584794Y889659D01*
X585460Y890158D01*
X586293Y890658D01*
X587182Y891158D01*
X588126Y891658D01*
X589238Y892103D01*
X590349Y892492D01*
X591626Y892825D01*
X592904Y893103D01*
X594348Y893269D01*
X595792Y893325D01*
X596459D01*
X596959Y893269D01*
D02*
G37*
G36*
X385203Y870272D02*
Y854162D01*
X377426D01*
Y870327D01*
X363372Y892603D01*
X372427D01*
X381481Y877382D01*
X390314Y892603D01*
X399257D01*
X385203Y870272D01*
D02*
G37*
G36*
X255550Y877604D02*
X270826Y854162D01*
X260772D01*
X250162Y872216D01*
X243884Y865772D01*
Y854162D01*
X236108D01*
Y892603D01*
X243884D01*
Y875493D01*
X259661Y892603D01*
X270104D01*
X255550Y877604D01*
D02*
G37*
G36*
X344207Y854162D02*
X336430D01*
X320821Y879493D01*
Y854162D01*
X313655D01*
Y892603D01*
X321154D01*
X337041Y866716D01*
Y892603D01*
X344207D01*
Y854162D01*
D02*
G37*
G36*
X571351D02*
X564185D01*
X564129Y884381D01*
X556574Y854162D01*
X549075D01*
X541520Y884381D01*
Y854162D01*
X534354D01*
Y892603D01*
X545964D01*
X552852Y866328D01*
X559685Y892603D01*
X571351D01*
Y854162D01*
D02*
G37*
G36*
X189112Y872327D02*
Y872271D01*
Y872049D01*
Y871660D01*
Y871216D01*
Y870660D01*
X189057Y869994D01*
Y869272D01*
Y868549D01*
X188946Y866939D01*
X188835Y865272D01*
X188779Y864550D01*
X188668Y863828D01*
X188557Y863161D01*
X188446Y862550D01*
Y862495D01*
X188390Y862439D01*
Y862272D01*
X188335Y862106D01*
X188168Y861550D01*
X187946Y860884D01*
X187612Y860106D01*
X187224Y859328D01*
X186724Y858495D01*
X186113Y857717D01*
X186057Y857606D01*
X185835Y857384D01*
X185446Y857051D01*
X184946Y856606D01*
X184279Y856106D01*
X183502Y855606D01*
X182613Y855051D01*
X181613Y854606D01*
X181558D01*
X181502Y854551D01*
X181335Y854495D01*
X181113Y854440D01*
X180835Y854329D01*
X180502Y854218D01*
X180058Y854107D01*
X179613Y854051D01*
X178558Y853829D01*
X177280Y853607D01*
X175836Y853495D01*
X174225Y853440D01*
X173336D01*
X172836Y853495D01*
X172336D01*
X171725Y853551D01*
X171114Y853607D01*
X169781Y853718D01*
X168392Y853940D01*
X167003Y854273D01*
X166392Y854440D01*
X165837Y854662D01*
X165781D01*
X165726Y854718D01*
X165393Y854884D01*
X164837Y855162D01*
X164226Y855551D01*
X163504Y856051D01*
X162726Y856606D01*
X162004Y857273D01*
X161337Y857995D01*
X161282Y858106D01*
X161060Y858328D01*
X160782Y858773D01*
X160449Y859328D01*
X160115Y859939D01*
X159726Y860661D01*
X159449Y861439D01*
X159171Y862272D01*
Y862328D01*
X159115Y862439D01*
Y862606D01*
X159060Y862884D01*
X159004Y863217D01*
X158949Y863661D01*
X158893Y864161D01*
X158838Y864717D01*
X158727Y865383D01*
X158671Y866105D01*
X158616Y866883D01*
X158560Y867772D01*
X158504Y868716D01*
Y869772D01*
X158449Y870883D01*
Y872049D01*
Y892603D01*
X166226D01*
Y871716D01*
Y871660D01*
Y871494D01*
Y871272D01*
Y870938D01*
Y870494D01*
Y870049D01*
X166281Y869050D01*
Y867939D01*
X166337Y866883D01*
X166392Y866383D01*
Y865939D01*
X166448Y865605D01*
X166504Y865272D01*
Y865161D01*
X166615Y864883D01*
X166781Y864439D01*
X167003Y863883D01*
X167281Y863272D01*
X167726Y862661D01*
X168226Y861995D01*
X168837Y861439D01*
X168948Y861384D01*
X169170Y861217D01*
X169614Y860995D01*
X170170Y860773D01*
X170947Y860495D01*
X171836Y860273D01*
X172836Y860106D01*
X174003Y860050D01*
X174558D01*
X175114Y860106D01*
X175836Y860217D01*
X176669Y860384D01*
X177447Y860606D01*
X178280Y860939D01*
X178947Y861384D01*
X179002Y861439D01*
X179224Y861606D01*
X179502Y861884D01*
X179835Y862272D01*
X180169Y862772D01*
X180502Y863328D01*
X180780Y863939D01*
X180947Y864661D01*
Y864772D01*
X181002Y865050D01*
X181058Y865550D01*
X181169Y866217D01*
Y866661D01*
X181224Y867161D01*
Y867716D01*
X181280Y868272D01*
Y868938D01*
X181335Y869660D01*
Y870438D01*
Y871272D01*
Y892603D01*
X189112D01*
Y872327D01*
D02*
G37*
G36*
X625512Y854162D02*
X617735D01*
Y892603D01*
X625512D01*
Y854162D01*
D02*
G37*
G36*
X527022D02*
X519245D01*
Y892603D01*
X527022D01*
Y854162D01*
D02*
G37*
G36*
X496525Y892547D02*
X497580Y892492D01*
X498747Y892436D01*
X499969Y892269D01*
X501135Y892103D01*
X502191Y891825D01*
X502247D01*
X502358Y891769D01*
X502524Y891714D01*
X502747Y891658D01*
X503413Y891380D01*
X504191Y890992D01*
X505080Y890492D01*
X506079Y889881D01*
X507024Y889158D01*
X507968Y888270D01*
X508024D01*
X508079Y888159D01*
X508357Y887825D01*
X508801Y887270D01*
X509301Y886548D01*
X509912Y885659D01*
X510523Y884603D01*
X511134Y883381D01*
X511634Y882048D01*
Y881993D01*
X511690Y881881D01*
X511746Y881659D01*
X511857Y881382D01*
X511912Y881048D01*
X512023Y880604D01*
X512134Y880104D01*
X512301Y879548D01*
X512412Y878937D01*
X512523Y878215D01*
X512634Y877493D01*
X512690Y876660D01*
X512857Y874938D01*
X512912Y872993D01*
Y872938D01*
Y872771D01*
Y872549D01*
Y872216D01*
X512857Y871771D01*
Y871327D01*
X512801Y870771D01*
X512746Y870161D01*
X512634Y868883D01*
X512412Y867550D01*
X512079Y866161D01*
X511690Y864828D01*
Y864772D01*
X511634Y864661D01*
X511523Y864439D01*
X511412Y864106D01*
X511301Y863772D01*
X511079Y863383D01*
X510635Y862383D01*
X510079Y861328D01*
X509357Y860162D01*
X508524Y859051D01*
X507579Y857995D01*
X507468Y857884D01*
X507191Y857662D01*
X506746Y857328D01*
X506135Y856884D01*
X505357Y856384D01*
X504468Y855884D01*
X503358Y855384D01*
X502135Y854940D01*
X502080D01*
X502024Y854884D01*
X501858D01*
X501691Y854829D01*
X501080Y854718D01*
X500302Y854551D01*
X499358Y854384D01*
X498191Y854273D01*
X496803Y854218D01*
X495303Y854162D01*
X480749D01*
Y892603D01*
X496081D01*
X496525Y892547D01*
D02*
G37*
G36*
X459807D02*
X460418D01*
X461029Y892492D01*
X461751D01*
X463195Y892325D01*
X464695Y892158D01*
X466084Y891880D01*
X466695Y891714D01*
X467250Y891547D01*
X467306D01*
X467361Y891492D01*
X467695Y891325D01*
X468195Y891047D01*
X468861Y890714D01*
X469583Y890158D01*
X470305Y889547D01*
X471028Y888770D01*
X471694Y887825D01*
Y887770D01*
X471750Y887714D01*
X471861Y887548D01*
X471972Y887381D01*
X472250Y886825D01*
X472583Y886103D01*
X472861Y885214D01*
X473138Y884215D01*
X473361Y883048D01*
X473416Y881826D01*
Y881770D01*
Y881659D01*
Y881382D01*
X473361Y881104D01*
Y880715D01*
X473305Y880326D01*
X473083Y879326D01*
X472805Y878160D01*
X472361Y876993D01*
X471694Y875771D01*
X471305Y875216D01*
X470861Y874660D01*
X470805Y874604D01*
X470750Y874549D01*
X470583Y874382D01*
X470361Y874216D01*
X470139Y873993D01*
X469805Y873716D01*
X469417Y873438D01*
X468972Y873160D01*
X468472Y872827D01*
X467861Y872549D01*
X467250Y872271D01*
X466584Y871994D01*
X465806Y871716D01*
X465028Y871494D01*
X464195Y871272D01*
X463251Y871105D01*
X463306D01*
X463362Y871049D01*
X463695Y870827D01*
X464139Y870549D01*
X464695Y870161D01*
X465362Y869660D01*
X466028Y869161D01*
X466750Y868549D01*
X467361Y867883D01*
X467417Y867827D01*
X467695Y867550D01*
X468028Y867105D01*
X468528Y866439D01*
X469194Y865605D01*
X469528Y865050D01*
X469917Y864494D01*
X470361Y863883D01*
X470805Y863217D01*
X471305Y862439D01*
X471805Y861661D01*
X476527Y854162D01*
X467195D01*
X461640Y862495D01*
X461584Y862550D01*
X461529Y862717D01*
X461362Y862939D01*
X461140Y863217D01*
X460918Y863550D01*
X460640Y863995D01*
X460029Y864883D01*
X459306Y865883D01*
X458640Y866772D01*
X458029Y867605D01*
X457751Y867883D01*
X457529Y868161D01*
X457473Y868216D01*
X457362Y868327D01*
X457140Y868549D01*
X456862Y868827D01*
X456474Y869050D01*
X456085Y869327D01*
X455640Y869549D01*
X455196Y869772D01*
X455140D01*
X454974Y869827D01*
X454696Y869938D01*
X454252Y869994D01*
X453696Y870105D01*
X453029Y870161D01*
X452252Y870216D01*
X449752D01*
Y854162D01*
X441975D01*
Y892603D01*
X459306D01*
X459807Y892547D01*
D02*
G37*
G36*
X437809Y854162D02*
X429421D01*
X426088Y862884D01*
X410645D01*
X407479Y854162D01*
X399257D01*
X414145Y892603D01*
X422366D01*
X437809Y854162D01*
D02*
G37*
G36*
X309489D02*
X301101D01*
X297768Y862884D01*
X282325D01*
X279158Y854162D01*
X270937D01*
X285825Y892603D01*
X294046D01*
X309489Y854162D01*
D02*
G37*
G36*
X215165Y892547D02*
X215776D01*
X216387Y892492D01*
X217109D01*
X218554Y892325D01*
X220054Y892158D01*
X221442Y891880D01*
X222053Y891714D01*
X222609Y891547D01*
X222664D01*
X222720Y891492D01*
X223053Y891325D01*
X223553Y891047D01*
X224220Y890714D01*
X224942Y890158D01*
X225664Y889547D01*
X226386Y888770D01*
X227053Y887825D01*
Y887770D01*
X227108Y887714D01*
X227220Y887548D01*
X227331Y887381D01*
X227608Y886825D01*
X227942Y886103D01*
X228219Y885214D01*
X228497Y884215D01*
X228719Y883048D01*
X228775Y881826D01*
Y881770D01*
Y881659D01*
Y881382D01*
X228719Y881104D01*
Y880715D01*
X228664Y880326D01*
X228442Y879326D01*
X228164Y878160D01*
X227719Y876993D01*
X227053Y875771D01*
X226664Y875216D01*
X226220Y874660D01*
X226164Y874604D01*
X226108Y874549D01*
X225942Y874382D01*
X225720Y874216D01*
X225497Y873993D01*
X225164Y873716D01*
X224775Y873438D01*
X224331Y873160D01*
X223831Y872827D01*
X223220Y872549D01*
X222609Y872271D01*
X221942Y871994D01*
X221165Y871716D01*
X220387Y871494D01*
X219554Y871272D01*
X218609Y871105D01*
X218665D01*
X218720Y871049D01*
X219054Y870827D01*
X219498Y870549D01*
X220054Y870161D01*
X220720Y869660D01*
X221387Y869161D01*
X222109Y868549D01*
X222720Y867883D01*
X222775Y867827D01*
X223053Y867550D01*
X223386Y867105D01*
X223887Y866439D01*
X224553Y865605D01*
X224886Y865050D01*
X225275Y864494D01*
X225720Y863883D01*
X226164Y863217D01*
X226664Y862439D01*
X227164Y861661D01*
X231886Y854162D01*
X222553D01*
X216998Y862495D01*
X216943Y862550D01*
X216887Y862717D01*
X216721Y862939D01*
X216498Y863217D01*
X216276Y863550D01*
X215998Y863995D01*
X215387Y864883D01*
X214665Y865883D01*
X213999Y866772D01*
X213388Y867605D01*
X213110Y867883D01*
X212888Y868161D01*
X212832Y868216D01*
X212721Y868327D01*
X212499Y868549D01*
X212221Y868827D01*
X211832Y869050D01*
X211443Y869327D01*
X210999Y869549D01*
X210555Y869772D01*
X210499D01*
X210332Y869827D01*
X210055Y869938D01*
X209610Y869994D01*
X209055Y870105D01*
X208388Y870161D01*
X207610Y870216D01*
X205111D01*
Y854162D01*
X197334D01*
Y892603D01*
X214665D01*
X215165Y892547D01*
D02*
G37*
G36*
X152116Y886103D02*
X133507D01*
Y876993D01*
X149561D01*
Y870494D01*
X133507D01*
Y854162D01*
X125730D01*
Y892603D01*
X152116D01*
Y886103D01*
D02*
G37*
G36*
X150628Y676001D02*
X150697D01*
X150790D01*
X150929D01*
X151114Y675977D01*
X151299D01*
X151531Y675954D01*
X151785Y675931D01*
X152317Y675885D01*
X152873Y675792D01*
X153451Y675654D01*
X154006Y675492D01*
X154030D01*
X154076Y675469D01*
X154168Y675422D01*
X154307Y675376D01*
X154446Y675330D01*
X154608Y675237D01*
X155024Y675052D01*
X155464Y674821D01*
X155950Y674520D01*
X156413Y674173D01*
X156853Y673779D01*
X156899Y673733D01*
X156991Y673617D01*
X157130Y673432D01*
X157315Y673178D01*
X157524Y672854D01*
X157732Y672484D01*
X157940Y672021D01*
X158125Y671512D01*
Y671488D01*
X158148Y671465D01*
Y671396D01*
X158172Y671327D01*
X158218Y671072D01*
X158287Y670748D01*
X158357Y670355D01*
X158403Y669869D01*
X158426Y669290D01*
X158449Y668665D01*
Y662603D01*
X142437D01*
Y668989D01*
X142460Y669175D01*
X142483Y669614D01*
X142506Y670100D01*
X142576Y670609D01*
X142645Y671095D01*
X142761Y671535D01*
Y671558D01*
X142784Y671604D01*
X142807Y671674D01*
X142830Y671766D01*
X142946Y672044D01*
X143108Y672368D01*
X143316Y672738D01*
X143570Y673155D01*
X143871Y673548D01*
X144242Y673941D01*
Y673964D01*
X144288Y673988D01*
X144427Y674103D01*
X144658Y674288D01*
X144959Y674497D01*
X145329Y674751D01*
X145769Y675006D01*
X146278Y675260D01*
X146833Y675469D01*
X146856D01*
X146903Y675492D01*
X146995Y675515D01*
X147111Y675561D01*
X147250Y675584D01*
X147435Y675630D01*
X147643Y675677D01*
X147874Y675746D01*
X148129Y675792D01*
X148430Y675839D01*
X148731Y675885D01*
X149078Y675908D01*
X149795Y675977D01*
X150605Y676001D01*
X150628D01*
D02*
G37*
G36*
X158449Y660289D02*
Y648997D01*
X142552D01*
Y652236D01*
X155742D01*
Y660289D01*
X158449D01*
D02*
G37*
G36*
Y646174D02*
Y634003D01*
X142437D01*
Y645873D01*
X145144D01*
Y637242D01*
X148684D01*
Y645272D01*
X151392D01*
Y637242D01*
X155742D01*
Y646174D01*
X158449D01*
D02*
G37*
G36*
X140979Y630809D02*
Y627801D01*
X138063D01*
Y630809D01*
X140979D01*
D02*
G37*
G36*
X158449Y630902D02*
Y627663D01*
X142437D01*
Y630902D01*
X158449D01*
D02*
G37*
G36*
Y624423D02*
Y621183D01*
X151438D01*
Y614866D01*
X158449D01*
Y611627D01*
X142437D01*
Y614866D01*
X148731D01*
Y621183D01*
X142437D01*
Y624423D01*
X158449D01*
D02*
G37*
G36*
X153821Y608873D02*
X153868D01*
X153937D01*
X154030D01*
X154145Y608850D01*
X154307Y608827D01*
X154631Y608781D01*
X155048Y608688D01*
X155487Y608549D01*
X155927Y608341D01*
X156390Y608087D01*
X156413D01*
X156436Y608040D01*
X156575Y607948D01*
X156806Y607763D01*
X157061Y607531D01*
X157362Y607230D01*
X157639Y606837D01*
X157917Y606421D01*
X158172Y605911D01*
Y605888D01*
X158195Y605842D01*
X158218Y605773D01*
X158264Y605657D01*
X158310Y605518D01*
X158357Y605356D01*
X158403Y605171D01*
X158449Y604963D01*
X158519Y604708D01*
X158565Y604454D01*
X158657Y603852D01*
X158727Y603181D01*
X158750Y602440D01*
Y602140D01*
X158727Y601931D01*
X158704Y601677D01*
X158681Y601399D01*
X158634Y601075D01*
X158565Y600728D01*
X158403Y599965D01*
X158287Y599571D01*
X158172Y599201D01*
X158010Y598808D01*
X157824Y598437D01*
X157616Y598090D01*
X157362Y597766D01*
X157338Y597743D01*
X157292Y597697D01*
X157223Y597604D01*
X157107Y597512D01*
X156945Y597373D01*
X156760Y597234D01*
X156552Y597072D01*
X156320Y596910D01*
X156043Y596748D01*
X155742Y596586D01*
X155395Y596424D01*
X155024Y596262D01*
X154631Y596147D01*
X154192Y596008D01*
X153729Y595915D01*
X153243Y595846D01*
X152942Y598993D01*
X152965D01*
X153011Y599016D01*
X153104D01*
X153196Y599039D01*
X153474Y599132D01*
X153821Y599247D01*
X154215Y599386D01*
X154608Y599594D01*
X154955Y599826D01*
X155279Y600127D01*
X155302Y600173D01*
X155395Y600289D01*
X155511Y600474D01*
X155649Y600751D01*
X155788Y601098D01*
X155904Y601492D01*
X155996Y601955D01*
X156019Y602487D01*
Y602741D01*
X155973Y603019D01*
X155927Y603366D01*
X155857Y603736D01*
X155742Y604130D01*
X155580Y604500D01*
X155372Y604824D01*
X155349Y604870D01*
X155256Y604963D01*
X155117Y605078D01*
X154932Y605240D01*
X154701Y605379D01*
X154423Y605518D01*
X154145Y605611D01*
X153821Y605634D01*
X153798D01*
X153729D01*
X153613Y605611D01*
X153474Y605588D01*
X153335Y605541D01*
X153173Y605495D01*
X153011Y605402D01*
X152849Y605287D01*
X152826Y605263D01*
X152780Y605217D01*
X152711Y605148D01*
X152618Y605032D01*
X152502Y604870D01*
X152387Y604662D01*
X152271Y604431D01*
X152155Y604130D01*
Y604107D01*
X152109Y604014D01*
X152063Y603852D01*
X152016Y603736D01*
X151993Y603597D01*
X151947Y603436D01*
X151878Y603250D01*
X151831Y603042D01*
X151762Y602811D01*
X151692Y602533D01*
X151623Y602232D01*
X151531Y601908D01*
X151438Y601538D01*
Y601515D01*
X151415Y601422D01*
X151369Y601284D01*
X151322Y601122D01*
X151253Y600913D01*
X151183Y600659D01*
X151091Y600404D01*
X150998Y600103D01*
X150767Y599502D01*
X150489Y598923D01*
X150350Y598623D01*
X150188Y598368D01*
X150026Y598114D01*
X149864Y597905D01*
X149841Y597882D01*
X149795Y597836D01*
X149726Y597766D01*
X149633Y597674D01*
X149494Y597558D01*
X149332Y597442D01*
X149170Y597304D01*
X148962Y597188D01*
X148476Y596910D01*
X147921Y596679D01*
X147620Y596586D01*
X147319Y596517D01*
X146972Y596471D01*
X146625Y596447D01*
X146602D01*
X146579D01*
X146509D01*
X146417D01*
X146185Y596494D01*
X145885Y596540D01*
X145537Y596609D01*
X145144Y596725D01*
X144727Y596887D01*
X144334Y597118D01*
X144311D01*
X144288Y597142D01*
X144149Y597257D01*
X143964Y597396D01*
X143733Y597627D01*
X143478Y597905D01*
X143200Y598252D01*
X142946Y598646D01*
X142714Y599109D01*
Y599132D01*
X142691Y599178D01*
X142668Y599247D01*
X142622Y599340D01*
X142576Y599479D01*
X142529Y599618D01*
X142483Y599803D01*
X142414Y600011D01*
X142321Y600474D01*
X142228Y601006D01*
X142159Y601608D01*
X142136Y602279D01*
Y602556D01*
X142159Y602765D01*
X142182Y603019D01*
X142205Y603320D01*
X142252Y603621D01*
X142298Y603968D01*
X142460Y604708D01*
X142576Y605078D01*
X142691Y605449D01*
X142853Y605819D01*
X143038Y606166D01*
X143247Y606490D01*
X143478Y606791D01*
X143501Y606814D01*
X143547Y606860D01*
X143617Y606930D01*
X143709Y607022D01*
X143848Y607138D01*
X144010Y607277D01*
X144195Y607416D01*
X144403Y607578D01*
X144658Y607716D01*
X144913Y607855D01*
X145213Y607994D01*
X145537Y608110D01*
X145861Y608225D01*
X146232Y608318D01*
X146602Y608387D01*
X147018Y608410D01*
X147134Y605171D01*
X147111D01*
X147088D01*
X146926Y605125D01*
X146718Y605078D01*
X146463Y604986D01*
X146162Y604870D01*
X145885Y604708D01*
X145607Y604500D01*
X145375Y604268D01*
X145352Y604245D01*
X145283Y604153D01*
X145190Y603991D01*
X145098Y603759D01*
X145005Y603482D01*
X144913Y603135D01*
X144843Y602718D01*
X144820Y602232D01*
Y602001D01*
X144843Y601746D01*
X144889Y601446D01*
X144959Y601098D01*
X145075Y600728D01*
X145213Y600381D01*
X145422Y600057D01*
X145445Y600034D01*
X145491Y599988D01*
X145561Y599895D01*
X145676Y599803D01*
X145815Y599710D01*
X146000Y599618D01*
X146185Y599571D01*
X146417Y599548D01*
X146440D01*
X146509D01*
X146625Y599571D01*
X146741Y599618D01*
X146903Y599664D01*
X147065Y599733D01*
X147227Y599849D01*
X147388Y600011D01*
X147412Y600034D01*
X147481Y600150D01*
X147527Y600219D01*
X147574Y600335D01*
X147643Y600451D01*
X147712Y600612D01*
X147782Y600798D01*
X147874Y601006D01*
X147967Y601260D01*
X148060Y601515D01*
X148152Y601839D01*
X148245Y602186D01*
X148337Y602556D01*
X148453Y602973D01*
Y602996D01*
X148476Y603088D01*
X148499Y603204D01*
X148546Y603366D01*
X148592Y603551D01*
X148661Y603783D01*
X148731Y604037D01*
X148800Y604292D01*
X148985Y604847D01*
X149170Y605425D01*
X149378Y605981D01*
X149494Y606212D01*
X149610Y606444D01*
Y606467D01*
X149633Y606490D01*
X149726Y606629D01*
X149864Y606837D01*
X150050Y607091D01*
X150281Y607369D01*
X150559Y607670D01*
X150883Y607971D01*
X151253Y608225D01*
X151299Y608248D01*
X151438Y608318D01*
X151646Y608434D01*
X151947Y608549D01*
X152317Y608665D01*
X152757Y608781D01*
X153243Y608850D01*
X153798Y608873D01*
X153821D01*
D02*
G37*
G36*
X153682Y587863D02*
X153752D01*
X153868D01*
X154006Y587840D01*
X154192Y587816D01*
X154400Y587770D01*
X154654Y587724D01*
X154909Y587678D01*
X155464Y587492D01*
X155765Y587354D01*
X156089Y587215D01*
X156390Y587030D01*
X156691Y586821D01*
X156991Y586590D01*
X157269Y586312D01*
X157292Y586289D01*
X157338Y586243D01*
X157408Y586150D01*
X157500Y586035D01*
X157616Y585873D01*
X157732Y585711D01*
X157871Y585479D01*
X158010Y585248D01*
X158148Y584993D01*
X158287Y584693D01*
X158403Y584369D01*
X158519Y584045D01*
X158611Y583675D01*
X158681Y583304D01*
X158727Y582888D01*
X158750Y582471D01*
Y582263D01*
X158727Y582101D01*
X158704Y581916D01*
X158681Y581708D01*
X158634Y581476D01*
X158588Y581199D01*
X158449Y580643D01*
X158218Y580042D01*
X158079Y579718D01*
X157917Y579440D01*
X157709Y579139D01*
X157500Y578862D01*
X157477Y578838D01*
X157431Y578792D01*
X157362Y578723D01*
X157269Y578630D01*
X157153Y578514D01*
X156991Y578399D01*
X156829Y578260D01*
X156621Y578121D01*
X156390Y577982D01*
X156158Y577820D01*
X155603Y577566D01*
X154955Y577357D01*
X154608Y577265D01*
X154238Y577219D01*
X153868Y580180D01*
X153891D01*
X153914D01*
X154053Y580204D01*
X154261Y580250D01*
X154515Y580319D01*
X154793Y580435D01*
X155094Y580551D01*
X155372Y580736D01*
X155626Y580944D01*
X155649Y580967D01*
X155719Y581060D01*
X155811Y581199D01*
X155904Y581361D01*
X156019Y581592D01*
X156112Y581847D01*
X156181Y582124D01*
X156205Y582448D01*
Y582494D01*
X156181Y582610D01*
X156158Y582772D01*
X156112Y583003D01*
X156019Y583258D01*
X155904Y583512D01*
X155719Y583790D01*
X155487Y584045D01*
X155464Y584068D01*
X155349Y584160D01*
X155187Y584253D01*
X154978Y584392D01*
X154701Y584507D01*
X154354Y584623D01*
X153960Y584693D01*
X153520Y584716D01*
X153497D01*
X153474D01*
X153335D01*
X153127Y584693D01*
X152849Y584646D01*
X152549Y584554D01*
X152248Y584438D01*
X151947Y584276D01*
X151669Y584068D01*
X151646Y584045D01*
X151554Y583952D01*
X151438Y583813D01*
X151322Y583651D01*
X151183Y583420D01*
X151091Y583165D01*
X150998Y582888D01*
X150975Y582564D01*
Y582332D01*
X150998Y582170D01*
X151021Y581962D01*
X151068Y581708D01*
X151137Y581453D01*
X151207Y581152D01*
X148731Y581476D01*
Y581684D01*
X148708Y581916D01*
X148684Y582194D01*
X148615Y582494D01*
X148522Y582818D01*
X148384Y583119D01*
X148198Y583397D01*
X148175Y583420D01*
X148083Y583512D01*
X147967Y583605D01*
X147782Y583744D01*
X147574Y583860D01*
X147319Y583975D01*
X147018Y584045D01*
X146671Y584068D01*
X146625D01*
X146532D01*
X146393Y584045D01*
X146208Y583998D01*
X146000Y583952D01*
X145792Y583860D01*
X145561Y583744D01*
X145375Y583582D01*
X145352Y583559D01*
X145306Y583489D01*
X145213Y583397D01*
X145121Y583235D01*
X145051Y583050D01*
X144959Y582841D01*
X144913Y582564D01*
X144889Y582286D01*
Y582147D01*
X144913Y582008D01*
X144959Y581823D01*
X145028Y581615D01*
X145121Y581384D01*
X145260Y581152D01*
X145445Y580944D01*
X145468Y580921D01*
X145537Y580852D01*
X145676Y580759D01*
X145861Y580643D01*
X146070Y580527D01*
X146347Y580435D01*
X146671Y580342D01*
X147041Y580273D01*
X146579Y577450D01*
X146556D01*
X146509Y577473D01*
X146440D01*
X146324Y577496D01*
X146070Y577566D01*
X145723Y577658D01*
X145352Y577797D01*
X144959Y577936D01*
X144589Y578121D01*
X144242Y578329D01*
X144195Y578352D01*
X144103Y578445D01*
X143941Y578584D01*
X143733Y578769D01*
X143524Y579000D01*
X143293Y579278D01*
X143062Y579625D01*
X142853Y579995D01*
Y580018D01*
X142830Y580042D01*
X142784Y580180D01*
X142691Y580412D01*
X142599Y580690D01*
X142506Y581037D01*
X142414Y581453D01*
X142367Y581893D01*
X142344Y582379D01*
Y582587D01*
X142367Y582749D01*
X142390Y582957D01*
X142414Y583165D01*
X142460Y583420D01*
X142529Y583675D01*
X142691Y584253D01*
X142807Y584554D01*
X142969Y584878D01*
X143131Y585178D01*
X143316Y585456D01*
X143547Y585757D01*
X143802Y586012D01*
X143825Y586035D01*
X143848Y586058D01*
X143918Y586127D01*
X144010Y586197D01*
X144242Y586382D01*
X144565Y586590D01*
X144959Y586798D01*
X145422Y586960D01*
X145931Y587099D01*
X146185Y587122D01*
X146463Y587145D01*
X146486D01*
X146556D01*
X146671Y587122D01*
X146810Y587099D01*
X146995Y587076D01*
X147203Y587030D01*
X147435Y586960D01*
X147689Y586868D01*
X147944Y586729D01*
X148222Y586590D01*
X148499Y586405D01*
X148777Y586174D01*
X149055Y585896D01*
X149332Y585595D01*
X149587Y585248D01*
X149841Y584831D01*
Y584855D01*
X149864Y584901D01*
Y584970D01*
X149911Y585063D01*
X149980Y585317D01*
X150119Y585618D01*
X150304Y585965D01*
X150535Y586335D01*
X150836Y586706D01*
X151183Y587030D01*
X151230Y587076D01*
X151369Y587169D01*
X151577Y587284D01*
X151878Y587446D01*
X152225Y587608D01*
X152664Y587724D01*
X153127Y587816D01*
X153659Y587863D01*
X153682D01*
D02*
G37*
G36*
X158449Y572382D02*
X154978Y570069D01*
X154955Y570045D01*
X154886Y570022D01*
X154793Y569953D01*
X154677Y569860D01*
X154539Y569768D01*
X154354Y569652D01*
X153983Y569398D01*
X153567Y569097D01*
X153196Y568819D01*
X152849Y568564D01*
X152734Y568449D01*
X152618Y568356D01*
X152595Y568333D01*
X152549Y568287D01*
X152456Y568194D01*
X152340Y568078D01*
X152248Y567916D01*
X152132Y567755D01*
X152039Y567570D01*
X151947Y567384D01*
Y567361D01*
X151924Y567292D01*
X151878Y567176D01*
X151854Y566991D01*
X151808Y566760D01*
X151785Y566482D01*
X151762Y566158D01*
Y565117D01*
X158449D01*
X158449Y561877D01*
X142437D01*
X142437Y569097D01*
X142460Y569305D01*
Y569559D01*
X142483Y569814D01*
Y570115D01*
X142552Y570716D01*
X142622Y571341D01*
X142738Y571920D01*
X142807Y572174D01*
X142876Y572406D01*
Y572429D01*
X142900Y572452D01*
X142969Y572591D01*
X143085Y572799D01*
X143223Y573077D01*
X143455Y573377D01*
X143709Y573678D01*
X144033Y573979D01*
X144427Y574257D01*
X144450D01*
X144473Y574280D01*
X144542Y574326D01*
X144612Y574372D01*
X144843Y574488D01*
X145144Y574627D01*
X145514Y574743D01*
X145931Y574858D01*
X146417Y574951D01*
X146926Y574974D01*
X146949D01*
X146995D01*
X147111D01*
X147227Y574951D01*
X147388D01*
X147550Y574928D01*
X147967Y574835D01*
X148453Y574720D01*
X148939Y574534D01*
X149448Y574257D01*
X149679Y574095D01*
X149911Y573910D01*
X149934Y573886D01*
X149957Y573863D01*
X150026Y573794D01*
X150096Y573701D01*
X150188Y573609D01*
X150304Y573470D01*
X150420Y573308D01*
X150535Y573123D01*
X150674Y572915D01*
X150790Y572660D01*
X150906Y572406D01*
X151021Y572128D01*
X151137Y571804D01*
X151230Y571480D01*
X151322Y571133D01*
X151392Y570740D01*
Y570763D01*
X151415Y570786D01*
X151507Y570925D01*
X151623Y571110D01*
X151785Y571341D01*
X151993Y571619D01*
X152201Y571897D01*
X152456Y572197D01*
X152734Y572452D01*
X152757Y572475D01*
X152873Y572591D01*
X153058Y572729D01*
X153335Y572938D01*
X153682Y573215D01*
X153914Y573354D01*
X154145Y573516D01*
X154400Y573701D01*
X154677Y573886D01*
X155001Y574095D01*
X155325Y574303D01*
X158449Y576270D01*
Y572382D01*
D02*
G37*
G36*
X150512Y553107D02*
X150628D01*
X150836Y553084D01*
X151114D01*
X151438Y553038D01*
X151808Y552992D01*
X152248Y552922D01*
X152687Y552853D01*
X153173Y552737D01*
X153682Y552598D01*
X154192Y552413D01*
X154701Y552205D01*
X155187Y551973D01*
X155672Y551673D01*
X156135Y551349D01*
X156575Y550979D01*
X156598Y550955D01*
X156667Y550886D01*
X156783Y550770D01*
X156922Y550585D01*
X157084Y550377D01*
X157269Y550122D01*
X157454Y549822D01*
X157662Y549498D01*
X157871Y549104D01*
X158056Y548688D01*
X158241Y548225D01*
X158403Y547716D01*
X158542Y547184D01*
X158657Y546605D01*
X158727Y546003D01*
X158750Y545356D01*
Y545194D01*
X158727Y545009D01*
X158704Y544777D01*
X158680Y544476D01*
X158634Y544129D01*
X158565Y543736D01*
X158472Y543319D01*
X158357Y542857D01*
X158218Y542417D01*
X158033Y541931D01*
X157824Y541468D01*
X157593Y540982D01*
X157292Y540543D01*
X156968Y540103D01*
X156575Y539687D01*
X156552Y539663D01*
X156482Y539594D01*
X156343Y539501D01*
X156181Y539362D01*
X155950Y539201D01*
X155672Y539015D01*
X155372Y538830D01*
X155001Y538645D01*
X154608Y538437D01*
X154145Y538252D01*
X153659Y538067D01*
X153127Y537905D01*
X152549Y537766D01*
X151924Y537673D01*
X151253Y537604D01*
X150559Y537581D01*
X150535D01*
X150443D01*
X150327D01*
X150142Y537604D01*
X149934D01*
X149702Y537627D01*
X149425Y537650D01*
X149124Y537673D01*
X148476Y537766D01*
X147782Y537882D01*
X147088Y538067D01*
X146440Y538298D01*
X146417D01*
X146393Y538321D01*
X146324Y538368D01*
X146231Y538391D01*
X146000Y538530D01*
X145699Y538691D01*
X145352Y538900D01*
X145005Y539154D01*
X144612Y539455D01*
X144242Y539779D01*
X144218Y539802D01*
X144195Y539825D01*
X144080Y539941D01*
X143895Y540149D01*
X143686Y540404D01*
X143455Y540705D01*
X143200Y541052D01*
X142969Y541445D01*
X142784Y541862D01*
Y541885D01*
X142761Y541931D01*
X142714Y542024D01*
X142691Y542139D01*
X142622Y542278D01*
X142576Y542440D01*
X142529Y542648D01*
X142460Y542857D01*
X142344Y543366D01*
X142228Y543944D01*
X142159Y544615D01*
X142136Y545309D01*
Y545471D01*
X142159Y545656D01*
Y545888D01*
X142205Y546189D01*
X142252Y546536D01*
X142321Y546929D01*
X142414Y547346D01*
X142529Y547785D01*
X142668Y548248D01*
X142853Y548711D01*
X143061Y549197D01*
X143316Y549660D01*
X143617Y550122D01*
X143964Y550562D01*
X144357Y550979D01*
X144380Y551002D01*
X144450Y551071D01*
X144589Y551187D01*
X144751Y551302D01*
X144982Y551464D01*
X145260Y551650D01*
X145584Y551835D01*
X145954Y552043D01*
X146347Y552251D01*
X146810Y552436D01*
X147319Y552621D01*
X147851Y552783D01*
X148453Y552922D01*
X149078Y553015D01*
X149749Y553084D01*
X150466Y553107D01*
X150512D01*
D02*
G37*
G36*
X158449Y534827D02*
Y531588D01*
X147898Y525085D01*
X158449D01*
Y522100D01*
X142437D01*
Y525224D01*
X153220Y531842D01*
X142437D01*
Y534827D01*
X158449D01*
D02*
G37*
G36*
X150883Y518676D02*
X150906D01*
X150998D01*
X151160D01*
X151345D01*
X151577D01*
X151854Y518653D01*
X152155D01*
X152456D01*
X153127Y518606D01*
X153821Y518560D01*
X154122Y518537D01*
X154423Y518491D01*
X154701Y518445D01*
X154955Y518398D01*
X154978D01*
X155001Y518375D01*
X155071D01*
X155140Y518352D01*
X155372Y518283D01*
X155649Y518190D01*
X155973Y518051D01*
X156297Y517889D01*
X156644Y517681D01*
X156968Y517426D01*
X157015Y517403D01*
X157107Y517311D01*
X157246Y517149D01*
X157431Y516940D01*
X157639Y516663D01*
X157847Y516339D01*
X158079Y515969D01*
X158264Y515552D01*
Y515529D01*
X158287Y515506D01*
X158310Y515436D01*
X158333Y515344D01*
X158380Y515228D01*
X158426Y515089D01*
X158472Y514904D01*
X158495Y514719D01*
X158588Y514279D01*
X158680Y513747D01*
X158727Y513146D01*
X158750Y512475D01*
Y512104D01*
X158727Y511896D01*
Y511688D01*
X158704Y511433D01*
X158680Y511179D01*
X158634Y510623D01*
X158542Y510045D01*
X158403Y509466D01*
X158333Y509212D01*
X158241Y508980D01*
Y508957D01*
X158218Y508934D01*
X158148Y508795D01*
X158033Y508564D01*
X157871Y508309D01*
X157662Y508009D01*
X157431Y507685D01*
X157153Y507384D01*
X156853Y507106D01*
X156806Y507083D01*
X156714Y506991D01*
X156529Y506875D01*
X156297Y506736D01*
X156043Y506597D01*
X155742Y506435D01*
X155418Y506320D01*
X155071Y506204D01*
X155048D01*
X155001Y506181D01*
X154932D01*
X154816Y506157D01*
X154677Y506134D01*
X154492Y506111D01*
X154284Y506088D01*
X154053Y506065D01*
X153775Y506019D01*
X153474Y505995D01*
X153150Y505972D01*
X152780Y505949D01*
X152387Y505926D01*
X151947D01*
X151484Y505903D01*
X150998D01*
X142437D01*
Y509142D01*
X151137D01*
X151160D01*
X151230D01*
X151322D01*
X151461D01*
X151646D01*
X151831D01*
X152248Y509166D01*
X152711D01*
X153150Y509189D01*
X153358Y509212D01*
X153544D01*
X153682Y509235D01*
X153821Y509258D01*
X153868D01*
X153983Y509304D01*
X154168Y509374D01*
X154400Y509466D01*
X154654Y509582D01*
X154909Y509767D01*
X155187Y509976D01*
X155418Y510230D01*
X155441Y510276D01*
X155510Y510369D01*
X155603Y510554D01*
X155695Y510785D01*
X155811Y511109D01*
X155904Y511479D01*
X155973Y511896D01*
X155996Y512382D01*
Y512613D01*
X155973Y512845D01*
X155927Y513146D01*
X155857Y513493D01*
X155765Y513817D01*
X155626Y514164D01*
X155441Y514441D01*
X155418Y514464D01*
X155349Y514557D01*
X155233Y514673D01*
X155071Y514812D01*
X154862Y514950D01*
X154631Y515089D01*
X154377Y515205D01*
X154076Y515274D01*
X154030D01*
X153914Y515298D01*
X153706Y515321D01*
X153428Y515367D01*
X153243D01*
X153034Y515390D01*
X152803D01*
X152572Y515413D01*
X152294D01*
X151993Y515436D01*
X151669D01*
X151322D01*
X142437D01*
Y518676D01*
X150883D01*
D02*
G37*
G36*
X150512Y497179D02*
X150628D01*
X150836Y497156D01*
X151114D01*
X151438Y497110D01*
X151808Y497064D01*
X152248Y496994D01*
X152687Y496925D01*
X153173Y496809D01*
X153682Y496670D01*
X154192Y496485D01*
X154701Y496277D01*
X155187Y496046D01*
X155672Y495745D01*
X156135Y495421D01*
X156575Y495051D01*
X156598Y495027D01*
X156667Y494958D01*
X156783Y494842D01*
X156922Y494657D01*
X157084Y494449D01*
X157269Y494194D01*
X157454Y493894D01*
X157662Y493570D01*
X157871Y493176D01*
X158056Y492760D01*
X158241Y492297D01*
X158403Y491788D01*
X158542Y491256D01*
X158657Y490677D01*
X158727Y490076D01*
X158750Y489428D01*
Y489266D01*
X158727Y489081D01*
X158704Y488849D01*
X158680Y488548D01*
X158634Y488201D01*
X158565Y487808D01*
X158472Y487391D01*
X158357Y486929D01*
X158218Y486489D01*
X158033Y486003D01*
X157824Y485540D01*
X157593Y485054D01*
X157292Y484615D01*
X156968Y484175D01*
X156575Y483759D01*
X156552Y483735D01*
X156482Y483666D01*
X156343Y483573D01*
X156181Y483435D01*
X155950Y483273D01*
X155672Y483088D01*
X155372Y482902D01*
X155001Y482717D01*
X154608Y482509D01*
X154145Y482324D01*
X153659Y482139D01*
X153127Y481977D01*
X152549Y481838D01*
X151924Y481745D01*
X151253Y481676D01*
X150559Y481653D01*
X150535D01*
X150443D01*
X150327D01*
X150142Y481676D01*
X149934D01*
X149702Y481699D01*
X149425Y481722D01*
X149124Y481745D01*
X148476Y481838D01*
X147782Y481954D01*
X147088Y482139D01*
X146440Y482370D01*
X146417D01*
X146393Y482393D01*
X146324Y482440D01*
X146231Y482463D01*
X146000Y482602D01*
X145699Y482764D01*
X145352Y482972D01*
X145005Y483226D01*
X144612Y483527D01*
X144242Y483851D01*
X144218Y483874D01*
X144195Y483897D01*
X144080Y484013D01*
X143895Y484221D01*
X143686Y484476D01*
X143455Y484777D01*
X143200Y485124D01*
X142969Y485517D01*
X142784Y485934D01*
Y485957D01*
X142761Y486003D01*
X142714Y486096D01*
X142691Y486211D01*
X142622Y486350D01*
X142576Y486512D01*
X142529Y486720D01*
X142460Y486929D01*
X142344Y487438D01*
X142228Y488016D01*
X142159Y488687D01*
X142136Y489381D01*
Y489543D01*
X142159Y489729D01*
Y489960D01*
X142205Y490261D01*
X142252Y490608D01*
X142321Y491001D01*
X142414Y491418D01*
X142529Y491857D01*
X142668Y492320D01*
X142853Y492783D01*
X143061Y493269D01*
X143316Y493732D01*
X143617Y494194D01*
X143964Y494634D01*
X144357Y495051D01*
X144380Y495074D01*
X144450Y495143D01*
X144589Y495259D01*
X144751Y495374D01*
X144982Y495536D01*
X145260Y495722D01*
X145584Y495907D01*
X145954Y496115D01*
X146347Y496323D01*
X146810Y496508D01*
X147319Y496693D01*
X147851Y496855D01*
X148453Y496994D01*
X149078Y497087D01*
X149749Y497156D01*
X150466Y497179D01*
X150512D01*
D02*
G37*
G36*
X158449Y478899D02*
Y475660D01*
X147898Y469158D01*
X158449D01*
Y466173D01*
X142437D01*
Y469296D01*
X153220Y475914D01*
X142437D01*
Y478899D01*
X158449D01*
D02*
G37*
G36*
Y463072D02*
Y459832D01*
X142437D01*
Y463072D01*
X158449D01*
D02*
G37*
G36*
X150883Y456524D02*
X150906D01*
X150998D01*
X151160D01*
X151345D01*
X151577D01*
X151854Y456500D01*
X152155D01*
X152456D01*
X153127Y456454D01*
X153821Y456408D01*
X154122Y456385D01*
X154423Y456338D01*
X154701Y456292D01*
X154955Y456246D01*
X154978D01*
X155001Y456223D01*
X155071D01*
X155140Y456199D01*
X155372Y456130D01*
X155649Y456037D01*
X155973Y455899D01*
X156297Y455737D01*
X156644Y455528D01*
X156968Y455274D01*
X157015Y455251D01*
X157107Y455158D01*
X157246Y454996D01*
X157431Y454788D01*
X157639Y454510D01*
X157847Y454186D01*
X158079Y453816D01*
X158264Y453400D01*
Y453377D01*
X158287Y453353D01*
X158310Y453284D01*
X158333Y453191D01*
X158380Y453076D01*
X158426Y452937D01*
X158472Y452752D01*
X158495Y452567D01*
X158588Y452127D01*
X158680Y451595D01*
X158727Y450993D01*
X158750Y450322D01*
Y449952D01*
X158727Y449744D01*
Y449535D01*
X158704Y449281D01*
X158680Y449026D01*
X158634Y448471D01*
X158542Y447892D01*
X158403Y447314D01*
X158333Y447060D01*
X158241Y446828D01*
Y446805D01*
X158218Y446782D01*
X158148Y446643D01*
X158033Y446412D01*
X157871Y446157D01*
X157662Y445856D01*
X157431Y445532D01*
X157153Y445231D01*
X156853Y444954D01*
X156806Y444931D01*
X156714Y444838D01*
X156529Y444722D01*
X156297Y444584D01*
X156043Y444445D01*
X155742Y444283D01*
X155418Y444167D01*
X155071Y444051D01*
X155048D01*
X155001Y444028D01*
X154932D01*
X154816Y444005D01*
X154677Y443982D01*
X154492Y443959D01*
X154284Y443936D01*
X154053Y443913D01*
X153775Y443866D01*
X153474Y443843D01*
X153150Y443820D01*
X152780Y443797D01*
X152387Y443774D01*
X151947D01*
X151484Y443750D01*
X150998D01*
X142437D01*
Y446990D01*
X151137D01*
X151160D01*
X151230D01*
X151322D01*
X151461D01*
X151646D01*
X151831D01*
X152248Y447013D01*
X152711D01*
X153150Y447036D01*
X153358Y447060D01*
X153544D01*
X153682Y447083D01*
X153821Y447106D01*
X153868D01*
X153983Y447152D01*
X154168Y447221D01*
X154400Y447314D01*
X154654Y447430D01*
X154909Y447615D01*
X155187Y447823D01*
X155418Y448078D01*
X155441Y448124D01*
X155510Y448216D01*
X155603Y448401D01*
X155695Y448633D01*
X155811Y448957D01*
X155904Y449327D01*
X155973Y449744D01*
X155996Y450230D01*
Y450461D01*
X155973Y450692D01*
X155927Y450993D01*
X155857Y451340D01*
X155765Y451664D01*
X155626Y452011D01*
X155441Y452289D01*
X155418Y452312D01*
X155349Y452405D01*
X155233Y452520D01*
X155071Y452659D01*
X154862Y452798D01*
X154631Y452937D01*
X154377Y453053D01*
X154076Y453122D01*
X154030D01*
X153914Y453145D01*
X153706Y453168D01*
X153428Y453214D01*
X153243D01*
X153034Y453238D01*
X152803D01*
X152572Y453261D01*
X152294D01*
X151993Y453284D01*
X151669D01*
X151322D01*
X142437D01*
Y456524D01*
X150883D01*
D02*
G37*
G36*
X150628Y441043D02*
X150697D01*
X150790D01*
X150929D01*
X151114Y441020D01*
X151299D01*
X151531Y440997D01*
X151785Y440974D01*
X152317Y440928D01*
X152872Y440835D01*
X153451Y440696D01*
X154006Y440534D01*
X154030D01*
X154076Y440511D01*
X154168Y440465D01*
X154307Y440418D01*
X154446Y440372D01*
X154608Y440280D01*
X155024Y440094D01*
X155464Y439863D01*
X155950Y439562D01*
X156413Y439215D01*
X156853Y438822D01*
X156899Y438776D01*
X156991Y438660D01*
X157130Y438475D01*
X157315Y438220D01*
X157524Y437896D01*
X157732Y437526D01*
X157940Y437063D01*
X158125Y436554D01*
Y436531D01*
X158148Y436508D01*
Y436438D01*
X158172Y436369D01*
X158218Y436115D01*
X158287Y435791D01*
X158357Y435397D01*
X158403Y434911D01*
X158426Y434333D01*
X158449Y433708D01*
Y427645D01*
X142437D01*
Y434032D01*
X142460Y434217D01*
X142483Y434657D01*
X142506Y435143D01*
X142576Y435652D01*
X142645Y436138D01*
X142761Y436577D01*
Y436600D01*
X142784Y436647D01*
X142807Y436716D01*
X142830Y436809D01*
X142946Y437086D01*
X143108Y437410D01*
X143316Y437781D01*
X143570Y438197D01*
X143871Y438590D01*
X144242Y438984D01*
Y439007D01*
X144288Y439030D01*
X144427Y439146D01*
X144658Y439331D01*
X144959Y439539D01*
X145329Y439794D01*
X145769Y440048D01*
X146278Y440303D01*
X146833Y440511D01*
X146856D01*
X146903Y440534D01*
X146995Y440557D01*
X147111Y440604D01*
X147250Y440627D01*
X147435Y440673D01*
X147643Y440719D01*
X147874Y440789D01*
X148129Y440835D01*
X148430Y440881D01*
X148731Y440928D01*
X149078Y440951D01*
X149795Y441020D01*
X150605Y441043D01*
X150628D01*
D02*
G37*
G36*
X158449Y422000D02*
X154978Y419686D01*
X154955Y419662D01*
X154886Y419639D01*
X154793Y419570D01*
X154677Y419477D01*
X154539Y419385D01*
X154354Y419269D01*
X153983Y419015D01*
X153567Y418714D01*
X153196Y418436D01*
X152849Y418181D01*
X152734Y418066D01*
X152618Y417973D01*
X152595Y417950D01*
X152549Y417904D01*
X152456Y417811D01*
X152340Y417696D01*
X152248Y417534D01*
X152132Y417372D01*
X152039Y417187D01*
X151947Y417001D01*
Y416978D01*
X151924Y416909D01*
X151877Y416793D01*
X151854Y416608D01*
X151808Y416377D01*
X151785Y416099D01*
X151762Y415775D01*
Y414734D01*
X158449D01*
Y411494D01*
X142437D01*
Y418714D01*
X142460Y418922D01*
Y419176D01*
X142483Y419431D01*
Y419732D01*
X142552Y420333D01*
X142622Y420958D01*
X142738Y421537D01*
X142807Y421791D01*
X142876Y422023D01*
Y422046D01*
X142900Y422069D01*
X142969Y422208D01*
X143085Y422416D01*
X143223Y422694D01*
X143455Y422994D01*
X143709Y423295D01*
X144033Y423596D01*
X144427Y423874D01*
X144450D01*
X144473Y423897D01*
X144542Y423943D01*
X144612Y423989D01*
X144843Y424105D01*
X145144Y424244D01*
X145514Y424360D01*
X145931Y424475D01*
X146417Y424568D01*
X146926Y424591D01*
X146949D01*
X146995D01*
X147111D01*
X147226Y424568D01*
X147388D01*
X147550Y424545D01*
X147967Y424452D01*
X148453Y424337D01*
X148939Y424151D01*
X149448Y423874D01*
X149679Y423712D01*
X149911Y423527D01*
X149934Y423503D01*
X149957Y423480D01*
X150026Y423411D01*
X150096Y423318D01*
X150188Y423226D01*
X150304Y423087D01*
X150420Y422925D01*
X150535Y422740D01*
X150674Y422532D01*
X150790Y422277D01*
X150906Y422023D01*
X151021Y421745D01*
X151137Y421421D01*
X151230Y421097D01*
X151322Y420750D01*
X151392Y420357D01*
Y420380D01*
X151415Y420403D01*
X151507Y420542D01*
X151623Y420727D01*
X151785Y420958D01*
X151993Y421236D01*
X152201Y421514D01*
X152456Y421814D01*
X152734Y422069D01*
X152757Y422092D01*
X152872Y422208D01*
X153058Y422347D01*
X153335Y422555D01*
X153682Y422832D01*
X153914Y422971D01*
X154145Y423133D01*
X154400Y423318D01*
X154677Y423503D01*
X155001Y423712D01*
X155325Y423920D01*
X158449Y425887D01*
Y422000D01*
D02*
G37*
G36*
Y406265D02*
X154816Y404876D01*
Y398444D01*
X158449Y397125D01*
Y393700D01*
X142437Y399901D01*
Y403326D01*
X158449Y409759D01*
Y406265D01*
D02*
G37*
%LPC*%
G36*
X493581Y886103D02*
X488526D01*
Y860661D01*
X495358D01*
X496081Y860717D01*
X496858D01*
X497636Y860828D01*
X498358Y860884D01*
X498969Y860995D01*
X499080D01*
X499302Y861106D01*
X499636Y861217D01*
X500080Y861384D01*
X500580Y861606D01*
X501080Y861884D01*
X501580Y862217D01*
X502080Y862606D01*
X502135Y862661D01*
X502302Y862828D01*
X502524Y863106D01*
X502802Y863494D01*
X503080Y863995D01*
X503469Y864605D01*
X503746Y865383D01*
X504080Y866272D01*
Y866328D01*
X504135Y866383D01*
Y866550D01*
X504191Y866772D01*
X504302Y866994D01*
X504357Y867327D01*
X504524Y868161D01*
X504635Y869161D01*
X504802Y870327D01*
X504857Y871771D01*
X504913Y873327D01*
Y873382D01*
Y873549D01*
Y873771D01*
Y874049D01*
Y874438D01*
X504857Y874882D01*
X504802Y875827D01*
X504691Y876938D01*
X504580Y878104D01*
X504357Y879160D01*
X504080Y880160D01*
Y880215D01*
X504024Y880271D01*
X503913Y880548D01*
X503746Y880993D01*
X503524Y881548D01*
X503191Y882104D01*
X502802Y882715D01*
X502358Y883326D01*
X501858Y883881D01*
X501802Y883937D01*
X501636Y884103D01*
X501302Y884326D01*
X500913Y884603D01*
X500358Y884937D01*
X499747Y885214D01*
X499080Y885492D01*
X498302Y885714D01*
X498247D01*
X497969Y885770D01*
X497525Y885826D01*
X496914Y885937D01*
X496525D01*
X496025Y885992D01*
X495525D01*
X494969Y886048D01*
X494303D01*
X493581Y886103D01*
D02*
G37*
G36*
X458640D02*
X449752D01*
Y876327D01*
X457307D01*
X458418Y876382D01*
X459584Y876438D01*
X460751Y876493D01*
X461251Y876549D01*
X461695Y876604D01*
X462140Y876715D01*
X462417Y876771D01*
X462473D01*
X462640Y876882D01*
X462917Y876993D01*
X463195Y877160D01*
X463917Y877660D01*
X464250Y877993D01*
X464584Y878382D01*
X464639Y878437D01*
X464695Y878604D01*
X464861Y878826D01*
X465028Y879160D01*
X465139Y879604D01*
X465306Y880104D01*
X465362Y880659D01*
X465417Y881270D01*
Y881382D01*
Y881604D01*
X465362Y881937D01*
X465306Y882381D01*
X465139Y882881D01*
X464973Y883381D01*
X464695Y883937D01*
X464362Y884381D01*
X464306Y884437D01*
X464195Y884603D01*
X463917Y884770D01*
X463584Y885048D01*
X463195Y885326D01*
X462695Y885548D01*
X462084Y885770D01*
X461417Y885937D01*
X461362D01*
X461195Y885992D01*
X460862D01*
X460362Y886048D01*
X459140D01*
X458640Y886103D01*
D02*
G37*
G36*
X418200Y883659D02*
X412978Y869383D01*
X423588D01*
X418200Y883659D01*
D02*
G37*
G36*
X289880D02*
X284658Y869383D01*
X295268D01*
X289880Y883659D01*
D02*
G37*
G36*
X213999Y886103D02*
X205111D01*
Y876327D01*
X212665D01*
X213776Y876382D01*
X214943Y876438D01*
X216110Y876493D01*
X216609Y876549D01*
X217054Y876604D01*
X217498Y876715D01*
X217776Y876771D01*
X217832D01*
X217998Y876882D01*
X218276Y876993D01*
X218554Y877160D01*
X219276Y877660D01*
X219609Y877993D01*
X219942Y878382D01*
X219998Y878437D01*
X220054Y878604D01*
X220220Y878826D01*
X220387Y879160D01*
X220498Y879604D01*
X220665Y880104D01*
X220720Y880659D01*
X220776Y881270D01*
Y881382D01*
Y881604D01*
X220720Y881937D01*
X220665Y882381D01*
X220498Y882881D01*
X220331Y883381D01*
X220054Y883937D01*
X219720Y884381D01*
X219665Y884437D01*
X219554Y884603D01*
X219276Y884770D01*
X218943Y885048D01*
X218554Y885326D01*
X218054Y885548D01*
X217443Y885770D01*
X216776Y885937D01*
X216721D01*
X216554Y885992D01*
X216221D01*
X215721Y886048D01*
X214499D01*
X213999Y886103D01*
D02*
G37*
G36*
X150003Y672669D02*
X149818Y672645D01*
X149425Y672622D01*
X148962Y672576D01*
X148476Y672530D01*
X148036Y672437D01*
X147620Y672321D01*
X147597D01*
X147574Y672298D01*
X147458Y672252D01*
X147273Y672183D01*
X147041Y672090D01*
X146810Y671951D01*
X146556Y671789D01*
X146301Y671604D01*
X146070Y671396D01*
X146046Y671373D01*
X145977Y671303D01*
X145885Y671164D01*
X145769Y671003D01*
X145630Y670771D01*
X145514Y670517D01*
X145399Y670239D01*
X145306Y669915D01*
Y669892D01*
X145283Y669776D01*
X145260Y669591D01*
X145213Y669336D01*
Y669175D01*
X145190Y668966D01*
Y668758D01*
X145167Y668527D01*
Y668249D01*
X145144Y667948D01*
Y665843D01*
X155742D01*
Y668689D01*
X155719Y668989D01*
Y669313D01*
X155672Y669637D01*
X155649Y669938D01*
X155603Y670193D01*
Y670239D01*
X155557Y670331D01*
X155511Y670470D01*
X155441Y670656D01*
X155349Y670864D01*
X155233Y671072D01*
X155094Y671280D01*
X154932Y671488D01*
X154909Y671512D01*
X154839Y671581D01*
X154724Y671674D01*
X154562Y671789D01*
X154354Y671905D01*
X154099Y672067D01*
X153775Y672183D01*
X153405Y672321D01*
X153382D01*
X153358Y672345D01*
X153289D01*
X153196Y672368D01*
X153104Y672414D01*
X152965Y672437D01*
X152618Y672507D01*
X152201Y672553D01*
X151716Y672622D01*
X151114Y672645D01*
X150466Y672669D01*
X150443D01*
X150373D01*
X150281D01*
X150165D01*
X150003D01*
D02*
G37*
G36*
X147018Y571642D02*
X146880Y571619D01*
X146694Y571596D01*
X146486Y571526D01*
X146278Y571457D01*
X146046Y571341D01*
X145861Y571202D01*
X145838Y571179D01*
X145769Y571133D01*
X145699Y571017D01*
X145584Y570878D01*
X145468Y570716D01*
X145375Y570508D01*
X145283Y570254D01*
X145213Y569976D01*
Y569953D01*
X145190Y569883D01*
Y569745D01*
X145167Y569536D01*
Y569027D01*
X145144Y568819D01*
Y565117D01*
X149216D01*
Y568264D01*
X149193Y568726D01*
X149170Y569212D01*
X149147Y569698D01*
X149124Y569907D01*
X149101Y570092D01*
X149055Y570277D01*
X149031Y570392D01*
Y570416D01*
X148985Y570485D01*
X148939Y570601D01*
X148869Y570716D01*
X148661Y571017D01*
X148522Y571156D01*
X148360Y571295D01*
X148337Y571318D01*
X148268Y571341D01*
X148175Y571411D01*
X148036Y571480D01*
X147851Y571526D01*
X147643Y571596D01*
X147412Y571619D01*
X147157Y571642D01*
X147111D01*
X147018D01*
D02*
G37*
G36*
X150142Y549775D02*
X149934Y549752D01*
X149702Y549729D01*
X149448Y549706D01*
X149147Y549683D01*
X148846Y549613D01*
X148175Y549474D01*
X147481Y549266D01*
X147134Y549127D01*
X146833Y548965D01*
X146532Y548757D01*
X146255Y548549D01*
X146231Y548526D01*
X146185Y548503D01*
X146139Y548433D01*
X146046Y548341D01*
X145931Y548202D01*
X145815Y548063D01*
X145699Y547901D01*
X145561Y547693D01*
X145445Y547485D01*
X145329Y547230D01*
X145098Y546698D01*
X145005Y546397D01*
X144959Y546073D01*
X144913Y545726D01*
X144889Y545356D01*
Y545171D01*
X144913Y545032D01*
X144936Y544847D01*
X144959Y544661D01*
X145051Y544199D01*
X145237Y543690D01*
X145329Y543412D01*
X145468Y543134D01*
X145630Y542880D01*
X145815Y542602D01*
X146023Y542347D01*
X146278Y542116D01*
X146301Y542093D01*
X146347Y542070D01*
X146417Y542000D01*
X146532Y541931D01*
X146694Y541838D01*
X146856Y541746D01*
X147065Y541630D01*
X147319Y541515D01*
X147597Y541399D01*
X147898Y541283D01*
X148245Y541190D01*
X148615Y541098D01*
X149031Y541029D01*
X149471Y540959D01*
X149934Y540936D01*
X150443Y540913D01*
X150466D01*
X150559D01*
X150697D01*
X150883Y540936D01*
X151114Y540959D01*
X151392Y540982D01*
X151669Y541029D01*
X151993Y541075D01*
X152664Y541214D01*
X153335Y541445D01*
X153682Y541584D01*
X154006Y541746D01*
X154307Y541954D01*
X154585Y542162D01*
X154608Y542186D01*
X154654Y542232D01*
X154724Y542301D01*
X154793Y542394D01*
X154909Y542509D01*
X155024Y542672D01*
X155163Y542833D01*
X155279Y543042D01*
X155557Y543481D01*
X155765Y544037D01*
X155857Y544338D01*
X155927Y544661D01*
X155973Y545009D01*
X155996Y545356D01*
Y545541D01*
X155973Y545680D01*
X155950Y545842D01*
X155927Y546027D01*
X155811Y546466D01*
X155649Y546975D01*
X155534Y547230D01*
X155418Y547508D01*
X155256Y547762D01*
X155071Y548040D01*
X154862Y548294D01*
X154608Y548526D01*
X154585Y548549D01*
X154539Y548572D01*
X154469Y548641D01*
X154354Y548711D01*
X154192Y548826D01*
X154006Y548919D01*
X153798Y549035D01*
X153544Y549151D01*
X153266Y549266D01*
X152965Y549382D01*
X152618Y549498D01*
X152225Y549590D01*
X151831Y549660D01*
X151392Y549729D01*
X150906Y549752D01*
X150397Y549775D01*
X150373D01*
X150281D01*
X150142D01*
D02*
G37*
G36*
Y493847D02*
X149934Y493824D01*
X149702Y493801D01*
X149448Y493778D01*
X149147Y493755D01*
X148846Y493685D01*
X148175Y493546D01*
X147481Y493338D01*
X147134Y493199D01*
X146833Y493037D01*
X146532Y492829D01*
X146255Y492621D01*
X146231Y492598D01*
X146185Y492575D01*
X146139Y492505D01*
X146046Y492413D01*
X145931Y492274D01*
X145815Y492135D01*
X145699Y491973D01*
X145561Y491765D01*
X145445Y491557D01*
X145329Y491302D01*
X145098Y490770D01*
X145005Y490469D01*
X144959Y490145D01*
X144913Y489798D01*
X144889Y489428D01*
Y489243D01*
X144913Y489104D01*
X144936Y488919D01*
X144959Y488733D01*
X145051Y488271D01*
X145237Y487762D01*
X145329Y487484D01*
X145468Y487206D01*
X145630Y486952D01*
X145815Y486674D01*
X146023Y486420D01*
X146278Y486188D01*
X146301Y486165D01*
X146347Y486142D01*
X146417Y486073D01*
X146532Y486003D01*
X146694Y485910D01*
X146856Y485818D01*
X147065Y485702D01*
X147319Y485587D01*
X147597Y485471D01*
X147898Y485355D01*
X148245Y485263D01*
X148615Y485170D01*
X149031Y485101D01*
X149471Y485031D01*
X149934Y485008D01*
X150443Y484985D01*
X150466D01*
X150559D01*
X150697D01*
X150883Y485008D01*
X151114Y485031D01*
X151392Y485054D01*
X151669Y485101D01*
X151993Y485147D01*
X152664Y485286D01*
X153335Y485517D01*
X153682Y485656D01*
X154006Y485818D01*
X154307Y486026D01*
X154585Y486235D01*
X154608Y486258D01*
X154654Y486304D01*
X154724Y486373D01*
X154793Y486466D01*
X154909Y486582D01*
X155024Y486744D01*
X155163Y486906D01*
X155279Y487114D01*
X155557Y487553D01*
X155765Y488109D01*
X155857Y488410D01*
X155927Y488733D01*
X155973Y489081D01*
X155996Y489428D01*
Y489613D01*
X155973Y489752D01*
X155950Y489914D01*
X155927Y490099D01*
X155811Y490538D01*
X155649Y491048D01*
X155534Y491302D01*
X155418Y491580D01*
X155256Y491834D01*
X155071Y492112D01*
X154862Y492366D01*
X154608Y492598D01*
X154585Y492621D01*
X154539Y492644D01*
X154469Y492714D01*
X154354Y492783D01*
X154192Y492899D01*
X154006Y492991D01*
X153798Y493107D01*
X153544Y493223D01*
X153266Y493338D01*
X152965Y493454D01*
X152618Y493570D01*
X152225Y493662D01*
X151831Y493732D01*
X151392Y493801D01*
X150906Y493824D01*
X150397Y493847D01*
X150373D01*
X150281D01*
X150142D01*
D02*
G37*
G36*
X150003Y437711D02*
X149818Y437688D01*
X149425Y437665D01*
X148962Y437619D01*
X148476Y437572D01*
X148036Y437480D01*
X147620Y437364D01*
X147597D01*
X147574Y437341D01*
X147458Y437295D01*
X147273Y437225D01*
X147041Y437133D01*
X146810Y436994D01*
X146556Y436832D01*
X146301Y436647D01*
X146070Y436438D01*
X146046Y436415D01*
X145977Y436346D01*
X145884Y436207D01*
X145769Y436045D01*
X145630Y435814D01*
X145514Y435559D01*
X145399Y435281D01*
X145306Y434958D01*
Y434934D01*
X145283Y434819D01*
X145260Y434634D01*
X145213Y434379D01*
Y434217D01*
X145190Y434009D01*
Y433801D01*
X145167Y433569D01*
Y433292D01*
X145144Y432991D01*
Y430885D01*
X155742D01*
Y433731D01*
X155719Y434032D01*
Y434356D01*
X155672Y434680D01*
X155649Y434981D01*
X155603Y435235D01*
Y435281D01*
X155557Y435374D01*
X155510Y435513D01*
X155441Y435698D01*
X155349Y435906D01*
X155233Y436115D01*
X155094Y436323D01*
X154932Y436531D01*
X154909Y436554D01*
X154839Y436624D01*
X154724Y436716D01*
X154562Y436832D01*
X154354Y436948D01*
X154099Y437109D01*
X153775Y437225D01*
X153405Y437364D01*
X153382D01*
X153358Y437387D01*
X153289D01*
X153196Y437410D01*
X153104Y437457D01*
X152965Y437480D01*
X152618Y437549D01*
X152201Y437595D01*
X151716Y437665D01*
X151114Y437688D01*
X150466Y437711D01*
X150443D01*
X150373D01*
X150281D01*
X150165D01*
X150003D01*
D02*
G37*
G36*
X147018Y421259D02*
X146879Y421236D01*
X146694Y421213D01*
X146486Y421143D01*
X146278Y421074D01*
X146046Y420958D01*
X145861Y420819D01*
X145838Y420796D01*
X145769Y420750D01*
X145699Y420634D01*
X145584Y420495D01*
X145468Y420333D01*
X145375Y420125D01*
X145283Y419871D01*
X145213Y419593D01*
Y419570D01*
X145190Y419500D01*
Y419362D01*
X145167Y419153D01*
Y418644D01*
X145144Y418436D01*
Y414734D01*
X149216D01*
Y417881D01*
X149193Y418344D01*
X149170Y418829D01*
X149147Y419315D01*
X149124Y419524D01*
X149101Y419709D01*
X149054Y419894D01*
X149031Y420009D01*
Y420033D01*
X148985Y420102D01*
X148939Y420218D01*
X148869Y420333D01*
X148661Y420634D01*
X148522Y420773D01*
X148360Y420912D01*
X148337Y420935D01*
X148268Y420958D01*
X148175Y421028D01*
X148036Y421097D01*
X147851Y421143D01*
X147643Y421213D01*
X147412Y421236D01*
X147157Y421259D01*
X147111D01*
X147018D01*
D02*
G37*
G36*
X152109Y403835D02*
X146162Y401590D01*
X152109Y399415D01*
Y403835D01*
D02*
G37*
%LPD*%
D17*
X783590Y601980D02*
X1022350D01*
X789940Y660400D02*
X988060D01*
X784860Y744220D02*
X902970D01*
X919480Y760730D01*
X943610Y721360D02*
X944880Y722630D01*
Y880110D01*
X819150Y699770D02*
X947420D01*
X817880Y701040D02*
X819150Y699770D01*
X947420D02*
X970280Y722630D01*
X943610Y623570D02*
X998220D01*
X970280Y722630D02*
Y880110D01*
X819150Y679450D02*
X971550D01*
X995680Y703580D01*
Y880110D01*
X894080D02*
X894520Y880550D01*
X919480Y760730D02*
Y880110D01*
X864870Y773430D02*
X894080Y802640D01*
X737870Y773430D02*
X864870D01*
X894080Y802640D02*
Y880110D01*
X1398270Y906780D02*
X1413510Y891540D01*
X894520Y897060D02*
X904240Y906780D01*
X1398270D01*
X894520Y880550D02*
Y897060D01*
X774700Y334010D02*
X779780Y328930D01*
X1062990D01*
X787400Y349250D02*
X985520D01*
X779780Y356870D02*
X787400Y349250D01*
X712470Y773430D02*
X712910Y772990D01*
X1268730Y382271D02*
Y650240D01*
X1225369Y374831D02*
X1261291D01*
X1217930Y302260D02*
Y367392D01*
X1225369Y374831D01*
X1261291D02*
X1268730Y382271D01*
X1022350Y601980D02*
X1046480Y626110D01*
X1054100Y579120D02*
X1071880Y596900D01*
X783590Y579120D02*
X1054100D01*
X784860Y557530D02*
X1097280D01*
X783590Y558800D02*
X784860Y557530D01*
X1097280D02*
X1116330Y576580D01*
X754380Y515620D02*
X1102360D01*
X1141730Y554990D01*
X1125220Y495300D02*
X1167130Y537210D01*
X754380Y495300D02*
X1125220D01*
X1150620Y426720D02*
X1216660Y492760D01*
X753110Y426720D02*
X1150620D01*
X754380Y455930D02*
X1132840D01*
X1192530Y515620D01*
Y520700D01*
X754380Y403860D02*
X755650Y402590D01*
X1179830D01*
X1243330Y466090D01*
X988060Y660400D02*
X1021080Y693420D01*
X666570Y236220D02*
X947420D01*
X659130Y243659D02*
Y288938D01*
Y243659D02*
X666570Y236220D01*
X661670Y291478D02*
Y292100D01*
X659130Y288938D02*
X661670Y291478D01*
X1037590Y152400D02*
Y260350D01*
X636270Y233680D02*
Y292100D01*
X654050Y215900D02*
X1012190D01*
X636270Y233680D02*
X654050Y215900D01*
X1012190D02*
Y260350D01*
Y152400D02*
Y215900D01*
X775970Y309880D02*
X1087120D01*
X1088390Y308610D01*
X775970Y290830D02*
X1113790D01*
X712470Y292100D02*
X713092D01*
X887911Y170180D02*
X895350Y177619D01*
X510540Y195580D02*
X535940Y170180D01*
X895350Y177619D02*
Y195580D01*
X535940Y170180D02*
X887911D01*
X520700Y148590D02*
X867410D01*
X868045Y147955D01*
X485140Y184150D02*
X520700Y148590D01*
X510540Y195580D02*
Y292100D01*
X485140Y184150D02*
Y292100D01*
X1262380Y321310D02*
X1332230D01*
X1347470Y336550D01*
X1402080D01*
X1415610Y323020D01*
Y302700D02*
Y323020D01*
Y302700D02*
X1416050Y302260D01*
X1217930D02*
X1390650D01*
X1217930Y195580D02*
Y302260D01*
X1062990Y215900D02*
Y260350D01*
X1083310Y195580D02*
X1116330D01*
X1062990Y215900D02*
X1083310Y195580D01*
X1141290Y196020D02*
X1141730Y195580D01*
X1141290Y196020D02*
Y212530D01*
X1121410Y232410D02*
X1141290Y212530D01*
X1088830Y245940D02*
X1102360Y232410D01*
X1121410D01*
X1088390Y260350D02*
X1088830Y259910D01*
Y245940D02*
Y259910D01*
X1143000Y260350D02*
X1146797Y256553D01*
X1167130Y195580D02*
Y236220D01*
X1146797Y256553D02*
X1167130Y236220D01*
X1113790Y260350D02*
X1143000D01*
X1390210Y276420D02*
X1390650Y276860D01*
X1367350Y276420D02*
X1390210D01*
X1353820Y262890D02*
X1367350Y276420D01*
X1353820Y234950D02*
X1367790Y220980D01*
X1353820Y234950D02*
Y262890D01*
X1440180Y220980D02*
X1450340Y231140D01*
X1367790Y220980D02*
X1440180D01*
X1450340Y231140D02*
Y419100D01*
X1440180Y429260D02*
X1446517Y422923D01*
X1450340Y419100D01*
X1385570Y429260D02*
X1440180D01*
X1297940Y351790D02*
Y535940D01*
X1318260Y556260D02*
X1385570D01*
X1297940Y535940D02*
X1318260Y556260D01*
X1385570Y581660D02*
Y650240D01*
X1192530Y520700D02*
Y880110D01*
X1217930Y492760D02*
Y880110D01*
X1021080Y693420D02*
Y880110D01*
X1046480Y626110D02*
Y880110D01*
X1071880Y596900D02*
Y880110D01*
X1116330Y576580D02*
Y880110D01*
X1141730Y554990D02*
Y880110D01*
X1167130Y537210D02*
Y880110D01*
X1243330Y466090D02*
Y880110D01*
X1386010Y751400D02*
X1413510D01*
Y891540D01*
Y542290D02*
Y751400D01*
X1385570Y530860D02*
X1386010Y531300D01*
X1402520D01*
X1413510Y542290D01*
X1385570Y751840D02*
X1386010Y751400D01*
X1268730Y650240D02*
Y880110D01*
Y650240D02*
X1385570D01*
D18*
X560070Y773430D02*
D03*
X1113790Y260350D02*
D03*
X1294130Y880110D02*
D03*
X1116330Y195580D02*
D03*
X1071880Y880110D02*
D03*
X986790Y152400D02*
D03*
X819150Y195580D02*
D03*
X946150Y260350D02*
D03*
X610870Y292100D02*
D03*
X383540D02*
D03*
X290830Y773430D02*
D03*
D19*
X585470D02*
D03*
X610870D02*
D03*
X636270D02*
D03*
X661670D02*
D03*
X687070D02*
D03*
X712470D02*
D03*
X737870D02*
D03*
X986790Y260350D02*
D03*
X1012190D02*
D03*
X1037590D02*
D03*
X1062990D02*
D03*
X1088390D02*
D03*
X1116330Y880110D02*
D03*
X1141730D02*
D03*
X1167130D02*
D03*
X1192530D02*
D03*
X1217930D02*
D03*
X1243330D02*
D03*
X1268730D02*
D03*
X1141730Y195580D02*
D03*
X1319530D02*
D03*
X1294130D02*
D03*
X1268730D02*
D03*
X1243330D02*
D03*
X1217930D02*
D03*
X1192530D02*
D03*
X1167130D02*
D03*
X1390650Y302260D02*
D03*
X1416050D02*
D03*
X1390650Y276860D02*
D03*
X1416050D02*
D03*
X1390650Y251460D02*
D03*
X1385570Y403860D02*
D03*
Y581660D02*
D03*
Y556260D02*
D03*
Y530860D02*
D03*
Y505460D02*
D03*
Y480060D02*
D03*
Y454660D02*
D03*
Y429260D02*
D03*
X894080Y880110D02*
D03*
X919480D02*
D03*
X944880D02*
D03*
X970280D02*
D03*
X995680D02*
D03*
X1021080D02*
D03*
X1046480D02*
D03*
X1012190Y152400D02*
D03*
X1189990D02*
D03*
X1164590D02*
D03*
X1139190D02*
D03*
X1113790D02*
D03*
X1088390D02*
D03*
X1062990D02*
D03*
X1037590D02*
D03*
X1385570Y751840D02*
D03*
Y777240D02*
D03*
Y726440D02*
D03*
Y701040D02*
D03*
Y675640D02*
D03*
Y650240D02*
D03*
X946150Y195580D02*
D03*
X920750D02*
D03*
X895350D02*
D03*
X869950D02*
D03*
X844550D02*
D03*
X819150Y260350D02*
D03*
X844550D02*
D03*
X869950D02*
D03*
X895350D02*
D03*
X920750D02*
D03*
X737870Y292100D02*
D03*
X712470D02*
D03*
X687070D02*
D03*
X661670D02*
D03*
X636270D02*
D03*
X561340D02*
D03*
X535940D02*
D03*
X510540D02*
D03*
X485140D02*
D03*
X459740D02*
D03*
X434340D02*
D03*
X408940D02*
D03*
X316230Y773430D02*
D03*
X367030D02*
D03*
X392430D02*
D03*
X417830D02*
D03*
X443230D02*
D03*
X468630D02*
D03*
X494030D02*
D03*
X519430D02*
D03*
X341630D02*
D03*
D20*
X1416050Y251460D02*
D03*
X1385570Y378460D02*
D03*
Y802640D02*
D03*
D21*
X783590Y601980D02*
D03*
X789940Y660400D02*
D03*
X784860Y744220D02*
D03*
X943610Y721360D02*
D03*
X817880Y701040D02*
D03*
X998220Y623570D02*
D03*
X819150Y679450D02*
D03*
X943610Y623570D02*
D03*
X774700Y334010D02*
D03*
X779780Y356870D02*
D03*
X783590Y579120D02*
D03*
Y558800D02*
D03*
X754380Y515620D02*
D03*
Y495300D02*
D03*
X753110Y426720D02*
D03*
X754380Y455930D02*
D03*
Y403860D02*
D03*
X985520Y349250D02*
D03*
X947420Y236220D02*
D03*
X1036320Y232410D02*
D03*
X1062990Y328930D02*
D03*
X1088390Y308610D02*
D03*
X1113790Y290830D02*
D03*
X775970Y309880D02*
D03*
Y290830D02*
D03*
X868045Y147955D02*
D03*
X1262380Y321310D02*
D03*
X1297940Y351790D02*
D03*
X1192530Y520700D02*
D03*
X1216660Y492760D02*
D03*
X1243330Y466090D02*
D03*
M02*
