G04*
G04 #@! TF.GenerationSoftware,Altium Limited,Altium Designer,21.0.9 (235)*
G04*
G04 Layer_Color=16711935*
%FSLAX44Y44*%
%MOMM*%
G71*
G04*
G04 #@! TF.SameCoordinates,4DC3274F-E9D7-49BC-8B51-1643F64A7915*
G04*
G04*
G04 #@! TF.FilePolarity,Positive*
G04*
G01*
G75*
%ADD22C,0.0127*%
D22*
X293395Y773879D02*
G03*
X293395Y773879I-2540J0D01*
G01*
X318795D02*
G03*
X318795Y773879I-2540J0D01*
G01*
X344195D02*
G03*
X344195Y773879I-2540J0D01*
G01*
X369595D02*
G03*
X369595Y773879I-2540J0D01*
G01*
X394995D02*
G03*
X394995Y773879I-2540J0D01*
G01*
X420395D02*
G03*
X420395Y773879I-2540J0D01*
G01*
X445795D02*
G03*
X445795Y773879I-2540J0D01*
G01*
X471195D02*
G03*
X471195Y773879I-2540J0D01*
G01*
X496595D02*
G03*
X496595Y773879I-2540J0D01*
G01*
X521995D02*
G03*
X521995Y773879I-2540J0D01*
G01*
X562335D02*
G03*
X562335Y773879I-2540J0D01*
G01*
X587735D02*
G03*
X587735Y773879I-2540J0D01*
G01*
X613135D02*
G03*
X613135Y773879I-2540J0D01*
G01*
X638535D02*
G03*
X638535Y773879I-2540J0D01*
G01*
X663935D02*
G03*
X663935Y773879I-2540J0D01*
G01*
X689335D02*
G03*
X689335Y773879I-2540J0D01*
G01*
X714735D02*
G03*
X714735Y773879I-2540J0D01*
G01*
X740135D02*
G03*
X740135Y773879I-2540J0D01*
G01*
X384535Y291280D02*
G03*
X384535Y291280I-2540J0D01*
G01*
X409935D02*
G03*
X409935Y291280I-2540J0D01*
G01*
X435335D02*
G03*
X435335Y291280I-2540J0D01*
G01*
X460735D02*
G03*
X460735Y291280I-2540J0D01*
G01*
X486135D02*
G03*
X486135Y291280I-2540J0D01*
G01*
X511535D02*
G03*
X511535Y291280I-2540J0D01*
G01*
X536935D02*
G03*
X536935Y291280I-2540J0D01*
G01*
X562335D02*
G03*
X562335Y291280I-2540J0D01*
G01*
X613135D02*
G03*
X613135Y291280I-2540J0D01*
G01*
X638535D02*
G03*
X638535Y291280I-2540J0D01*
G01*
X663935D02*
G03*
X663935Y291280I-2540J0D01*
G01*
X689335D02*
G03*
X689335Y291280I-2540J0D01*
G01*
X714735D02*
G03*
X714735Y291280I-2540J0D01*
G01*
X740135D02*
G03*
X740135Y291280I-2540J0D01*
G01*
X258170D02*
G03*
X258170Y291280I-15875J0D01*
G01*
X779170Y342080D02*
G03*
X779170Y342080I-15875J0D01*
G01*
Y621479D02*
G03*
X779170Y621479I-15875J0D01*
G01*
X271170Y773879D02*
G03*
X271170Y773879I-15875J0D01*
G01*
X747647Y799664D02*
X763295Y784016D01*
X102595Y799664D02*
X747647D01*
X102595Y265879D02*
Y799664D01*
X763295Y291280D02*
X788095Y316679D01*
X763295Y669740D02*
X788095Y644340D01*
X763295Y265879D02*
Y291280D01*
Y669740D02*
Y784016D01*
X102595Y265879D02*
X763295D01*
X788095Y316679D02*
Y644340D01*
M02*
