G04*
G04 #@! TF.GenerationSoftware,Altium Limited,Altium Designer,21.0.9 (235)*
G04*
G04 Layer_Color=16711935*
%FSLAX44Y44*%
%MOMM*%
G71*
G04*
G04 #@! TF.SameCoordinates,4DC3274F-E9D7-49BC-8B51-1643F64A7915*
G04*
G04*
G04 #@! TF.FilePolarity,Negative*
G04*
G01*
G75*
%ADD13R,1.7032X1.7032*%
%ADD14C,1.7032*%
%ADD15R,1.7032X1.7032*%
%ADD16C,1.4732*%
D13*
X560070Y773430D02*
D03*
X1113790Y260350D02*
D03*
X1294130Y880110D02*
D03*
X1116330Y195580D02*
D03*
X1071880Y880110D02*
D03*
X986790Y152400D02*
D03*
X819150Y195580D02*
D03*
X946150Y260350D02*
D03*
X610870Y292100D02*
D03*
X383540D02*
D03*
X290830Y773430D02*
D03*
D14*
X585470D02*
D03*
X610870D02*
D03*
X636270D02*
D03*
X661670D02*
D03*
X687070D02*
D03*
X712470D02*
D03*
X737870D02*
D03*
X986790Y260350D02*
D03*
X1012190D02*
D03*
X1037590D02*
D03*
X1062990D02*
D03*
X1088390D02*
D03*
X1116330Y880110D02*
D03*
X1141730D02*
D03*
X1167130D02*
D03*
X1192530D02*
D03*
X1217930D02*
D03*
X1243330D02*
D03*
X1268730D02*
D03*
X1141730Y195580D02*
D03*
X1319530D02*
D03*
X1294130D02*
D03*
X1268730D02*
D03*
X1243330D02*
D03*
X1217930D02*
D03*
X1192530D02*
D03*
X1167130D02*
D03*
X1390650Y302260D02*
D03*
X1416050D02*
D03*
X1390650Y276860D02*
D03*
X1416050D02*
D03*
X1390650Y251460D02*
D03*
X1385570Y403860D02*
D03*
Y581660D02*
D03*
Y556260D02*
D03*
Y530860D02*
D03*
Y505460D02*
D03*
Y480060D02*
D03*
Y454660D02*
D03*
Y429260D02*
D03*
X894080Y880110D02*
D03*
X919480D02*
D03*
X944880D02*
D03*
X970280D02*
D03*
X995680D02*
D03*
X1021080D02*
D03*
X1046480D02*
D03*
X1012190Y152400D02*
D03*
X1189990D02*
D03*
X1164590D02*
D03*
X1139190D02*
D03*
X1113790D02*
D03*
X1088390D02*
D03*
X1062990D02*
D03*
X1037590D02*
D03*
X1385570Y751840D02*
D03*
Y777240D02*
D03*
Y726440D02*
D03*
Y701040D02*
D03*
Y675640D02*
D03*
Y650240D02*
D03*
X946150Y195580D02*
D03*
X920750D02*
D03*
X895350D02*
D03*
X869950D02*
D03*
X844550D02*
D03*
X819150Y260350D02*
D03*
X844550D02*
D03*
X869950D02*
D03*
X895350D02*
D03*
X920750D02*
D03*
X737870Y292100D02*
D03*
X712470D02*
D03*
X687070D02*
D03*
X661670D02*
D03*
X636270D02*
D03*
X561340D02*
D03*
X535940D02*
D03*
X510540D02*
D03*
X485140D02*
D03*
X459740D02*
D03*
X434340D02*
D03*
X408940D02*
D03*
X316230Y773430D02*
D03*
X367030D02*
D03*
X392430D02*
D03*
X417830D02*
D03*
X443230D02*
D03*
X468630D02*
D03*
X494030D02*
D03*
X519430D02*
D03*
X341630D02*
D03*
D15*
X1416050Y251460D02*
D03*
X1385570Y378460D02*
D03*
Y802640D02*
D03*
D16*
X783590Y601980D02*
D03*
X789940Y660400D02*
D03*
X784860Y744220D02*
D03*
X943610Y721360D02*
D03*
X817880Y701040D02*
D03*
X998220Y623570D02*
D03*
X819150Y679450D02*
D03*
X943610Y623570D02*
D03*
X774700Y334010D02*
D03*
X779780Y356870D02*
D03*
X783590Y579120D02*
D03*
Y558800D02*
D03*
X754380Y515620D02*
D03*
Y495300D02*
D03*
X753110Y426720D02*
D03*
X754380Y455930D02*
D03*
Y403860D02*
D03*
X985520Y349250D02*
D03*
X947420Y236220D02*
D03*
X1036320Y232410D02*
D03*
X1062990Y328930D02*
D03*
X1088390Y308610D02*
D03*
X1113790Y290830D02*
D03*
X775970Y309880D02*
D03*
Y290830D02*
D03*
X868045Y147955D02*
D03*
X1262380Y321310D02*
D03*
X1297940Y351790D02*
D03*
X1192530Y520700D02*
D03*
X1216660Y492760D02*
D03*
X1243330Y466090D02*
D03*
M02*
