G04*
G04 #@! TF.GenerationSoftware,Altium Limited,Altium Designer,21.0.9 (235)*
G04*
G04 Layer_Physical_Order=2*
G04 Layer_Color=16711680*
%FSLAX44Y44*%
%MOMM*%
G71*
G04*
G04 #@! TF.SameCoordinates,4DC3274F-E9D7-49BC-8B51-1643F64A7915*
G04*
G04*
G04 #@! TF.FilePolarity,Positive*
G04*
G01*
G75*
%ADD17C,1.2700*%
%ADD18R,1.5000X1.5000*%
%ADD19C,1.5000*%
%ADD20R,1.5000X1.5000*%
%ADD21C,1.2700*%
G36*
X596959Y893269D02*
X597570Y893214D01*
X598237Y893103D01*
X599014Y892991D01*
X599847Y892825D01*
X600736Y892603D01*
X601681Y892325D01*
X602625Y891992D01*
X603625Y891547D01*
X604569Y891103D01*
X605458Y890547D01*
X606402Y889881D01*
X607236Y889158D01*
X607291D01*
X607347Y889047D01*
X607513Y888881D01*
X607680Y888714D01*
X607902Y888436D01*
X608125Y888103D01*
X608736Y887325D01*
X609347Y886326D01*
X610013Y885103D01*
X610624Y883715D01*
X611180Y882104D01*
X603514Y880271D01*
Y880326D01*
X603458Y880382D01*
Y880548D01*
X603347Y880770D01*
X603181Y881270D01*
X602903Y881937D01*
X602514Y882715D01*
X602014Y883492D01*
X601347Y884270D01*
X600625Y884937D01*
X600514Y884992D01*
X600236Y885214D01*
X599792Y885492D01*
X599181Y885826D01*
X598403Y886159D01*
X597514Y886437D01*
X596515Y886659D01*
X595404Y886714D01*
X595015D01*
X594681Y886659D01*
X594348Y886603D01*
X593904Y886548D01*
X592959Y886326D01*
X591848Y885937D01*
X590682Y885381D01*
X590071Y885048D01*
X589515Y884659D01*
X588960Y884159D01*
X588460Y883604D01*
Y883548D01*
X588349Y883437D01*
X588238Y883270D01*
X588071Y882992D01*
X587849Y882659D01*
X587627Y882270D01*
X587404Y881770D01*
X587182Y881215D01*
X586904Y880548D01*
X586682Y879826D01*
X586460Y878993D01*
X586238Y878104D01*
X586071Y877104D01*
X585960Y876049D01*
X585905Y874882D01*
X585849Y873605D01*
Y873549D01*
Y873271D01*
Y872882D01*
X585905Y872438D01*
Y871827D01*
X586016Y871105D01*
X586071Y870383D01*
X586182Y869549D01*
X586516Y867827D01*
X586960Y866105D01*
X587238Y865272D01*
X587627Y864494D01*
X588015Y863772D01*
X588460Y863161D01*
X588515Y863106D01*
X588571Y863050D01*
X588738Y862884D01*
X588960Y862661D01*
X589515Y862217D01*
X590293Y861661D01*
X591237Y861050D01*
X592404Y860606D01*
X593737Y860217D01*
X594459Y860162D01*
X595237Y860106D01*
X595515D01*
X595737Y860162D01*
X596348Y860217D01*
X597070Y860328D01*
X597848Y860606D01*
X598736Y860939D01*
X599625Y861384D01*
X600514Y862050D01*
X600625Y862161D01*
X600903Y862439D01*
X601292Y862884D01*
X601736Y863550D01*
X602292Y864439D01*
X602792Y865494D01*
X603292Y866772D01*
X603736Y868272D01*
X611291Y865939D01*
Y865883D01*
X611235Y865661D01*
X611124Y865328D01*
X610957Y864883D01*
X610735Y864383D01*
X610513Y863772D01*
X610235Y863106D01*
X609902Y862383D01*
X609124Y860884D01*
X608125Y859328D01*
X606902Y857828D01*
X606236Y857162D01*
X605514Y856551D01*
X605458Y856495D01*
X605347Y856440D01*
X605125Y856273D01*
X604791Y856051D01*
X604403Y855829D01*
X603903Y855606D01*
X603347Y855329D01*
X602736Y855051D01*
X602014Y854718D01*
X601236Y854440D01*
X600403Y854218D01*
X599514Y853996D01*
X598570Y853773D01*
X597514Y853607D01*
X596459Y853551D01*
X595293Y853495D01*
X594959D01*
X594570Y853551D01*
X594015Y853607D01*
X593404Y853662D01*
X592626Y853773D01*
X591793Y853940D01*
X590849Y854162D01*
X589904Y854440D01*
X588904Y854773D01*
X587849Y855218D01*
X586793Y855717D01*
X585738Y856273D01*
X584682Y856995D01*
X583683Y857773D01*
X582738Y858717D01*
X582683Y858773D01*
X582516Y858939D01*
X582294Y859273D01*
X581960Y859662D01*
X581627Y860217D01*
X581183Y860828D01*
X580738Y861606D01*
X580294Y862495D01*
X579850Y863439D01*
X579405Y864494D01*
X578961Y865716D01*
X578628Y866994D01*
X578294Y868327D01*
X578072Y869827D01*
X577905Y871383D01*
X577850Y873049D01*
Y873105D01*
Y873160D01*
Y873493D01*
X577905Y873993D01*
Y874660D01*
X578017Y875438D01*
X578128Y876382D01*
X578239Y877382D01*
X578461Y878549D01*
X578739Y879715D01*
X579072Y880937D01*
X579461Y882159D01*
X579961Y883437D01*
X580516Y884659D01*
X581183Y885826D01*
X581905Y886936D01*
X582794Y887992D01*
X582849Y888047D01*
X583016Y888214D01*
X583294Y888492D01*
X583683Y888825D01*
X584183Y889214D01*
X584794Y889659D01*
X585460Y890158D01*
X586293Y890658D01*
X587182Y891158D01*
X588126Y891658D01*
X589238Y892103D01*
X590349Y892492D01*
X591626Y892825D01*
X592904Y893103D01*
X594348Y893269D01*
X595792Y893325D01*
X596459D01*
X596959Y893269D01*
D02*
G37*
G36*
X385203Y870272D02*
Y854162D01*
X377426D01*
Y870327D01*
X363372Y892603D01*
X372427D01*
X381481Y877382D01*
X390314Y892603D01*
X399257D01*
X385203Y870272D01*
D02*
G37*
G36*
X255550Y877604D02*
X270826Y854162D01*
X260772D01*
X250162Y872216D01*
X243884Y865772D01*
Y854162D01*
X236108D01*
Y892603D01*
X243884D01*
Y875493D01*
X259661Y892603D01*
X270104D01*
X255550Y877604D01*
D02*
G37*
G36*
X344207Y854162D02*
X336430D01*
X320821Y879493D01*
Y854162D01*
X313655D01*
Y892603D01*
X321154D01*
X337041Y866716D01*
Y892603D01*
X344207D01*
Y854162D01*
D02*
G37*
G36*
X571351D02*
X564185D01*
X564129Y884381D01*
X556574Y854162D01*
X549075D01*
X541520Y884381D01*
Y854162D01*
X534354D01*
Y892603D01*
X545964D01*
X552852Y866328D01*
X559685Y892603D01*
X571351D01*
Y854162D01*
D02*
G37*
G36*
X189112Y872327D02*
Y872271D01*
Y872049D01*
Y871660D01*
Y871216D01*
Y870660D01*
X189057Y869994D01*
Y869272D01*
Y868549D01*
X188946Y866939D01*
X188835Y865272D01*
X188779Y864550D01*
X188668Y863828D01*
X188557Y863161D01*
X188446Y862550D01*
Y862495D01*
X188390Y862439D01*
Y862272D01*
X188335Y862106D01*
X188168Y861550D01*
X187946Y860884D01*
X187612Y860106D01*
X187224Y859328D01*
X186724Y858495D01*
X186113Y857717D01*
X186057Y857606D01*
X185835Y857384D01*
X185446Y857051D01*
X184946Y856606D01*
X184279Y856106D01*
X183502Y855606D01*
X182613Y855051D01*
X181613Y854606D01*
X181558D01*
X181502Y854551D01*
X181335Y854495D01*
X181113Y854440D01*
X180835Y854329D01*
X180502Y854218D01*
X180058Y854107D01*
X179613Y854051D01*
X178558Y853829D01*
X177280Y853607D01*
X175836Y853495D01*
X174225Y853440D01*
X173336D01*
X172836Y853495D01*
X172336D01*
X171725Y853551D01*
X171114Y853607D01*
X169781Y853718D01*
X168392Y853940D01*
X167003Y854273D01*
X166392Y854440D01*
X165837Y854662D01*
X165781D01*
X165726Y854718D01*
X165393Y854884D01*
X164837Y855162D01*
X164226Y855551D01*
X163504Y856051D01*
X162726Y856606D01*
X162004Y857273D01*
X161337Y857995D01*
X161282Y858106D01*
X161060Y858328D01*
X160782Y858773D01*
X160449Y859328D01*
X160115Y859939D01*
X159726Y860661D01*
X159449Y861439D01*
X159171Y862272D01*
Y862328D01*
X159115Y862439D01*
Y862606D01*
X159060Y862884D01*
X159004Y863217D01*
X158949Y863661D01*
X158893Y864161D01*
X158838Y864717D01*
X158727Y865383D01*
X158671Y866105D01*
X158616Y866883D01*
X158560Y867772D01*
X158504Y868716D01*
Y869772D01*
X158449Y870883D01*
Y872049D01*
Y892603D01*
X166226D01*
Y871716D01*
Y871660D01*
Y871494D01*
Y871272D01*
Y870938D01*
Y870494D01*
Y870049D01*
X166281Y869050D01*
Y867939D01*
X166337Y866883D01*
X166392Y866383D01*
Y865939D01*
X166448Y865605D01*
X166504Y865272D01*
Y865161D01*
X166615Y864883D01*
X166781Y864439D01*
X167003Y863883D01*
X167281Y863272D01*
X167726Y862661D01*
X168226Y861995D01*
X168837Y861439D01*
X168948Y861384D01*
X169170Y861217D01*
X169614Y860995D01*
X170170Y860773D01*
X170947Y860495D01*
X171836Y860273D01*
X172836Y860106D01*
X174003Y860050D01*
X174558D01*
X175114Y860106D01*
X175836Y860217D01*
X176669Y860384D01*
X177447Y860606D01*
X178280Y860939D01*
X178947Y861384D01*
X179002Y861439D01*
X179224Y861606D01*
X179502Y861884D01*
X179835Y862272D01*
X180169Y862772D01*
X180502Y863328D01*
X180780Y863939D01*
X180947Y864661D01*
Y864772D01*
X181002Y865050D01*
X181058Y865550D01*
X181169Y866217D01*
Y866661D01*
X181224Y867161D01*
Y867716D01*
X181280Y868272D01*
Y868938D01*
X181335Y869660D01*
Y870438D01*
Y871272D01*
Y892603D01*
X189112D01*
Y872327D01*
D02*
G37*
G36*
X625512Y854162D02*
X617735D01*
Y892603D01*
X625512D01*
Y854162D01*
D02*
G37*
G36*
X527022D02*
X519245D01*
Y892603D01*
X527022D01*
Y854162D01*
D02*
G37*
G36*
X496525Y892547D02*
X497580Y892492D01*
X498747Y892436D01*
X499969Y892269D01*
X501135Y892103D01*
X502191Y891825D01*
X502247D01*
X502358Y891769D01*
X502524Y891714D01*
X502747Y891658D01*
X503413Y891380D01*
X504191Y890992D01*
X505080Y890492D01*
X506079Y889881D01*
X507024Y889158D01*
X507968Y888270D01*
X508024D01*
X508079Y888159D01*
X508357Y887825D01*
X508801Y887270D01*
X509301Y886548D01*
X509912Y885659D01*
X510523Y884603D01*
X511134Y883381D01*
X511634Y882048D01*
Y881993D01*
X511690Y881881D01*
X511746Y881659D01*
X511857Y881382D01*
X511912Y881048D01*
X512023Y880604D01*
X512134Y880104D01*
X512301Y879548D01*
X512412Y878937D01*
X512523Y878215D01*
X512634Y877493D01*
X512690Y876660D01*
X512857Y874938D01*
X512912Y872993D01*
Y872938D01*
Y872771D01*
Y872549D01*
Y872216D01*
X512857Y871771D01*
Y871327D01*
X512801Y870771D01*
X512746Y870161D01*
X512634Y868883D01*
X512412Y867550D01*
X512079Y866161D01*
X511690Y864828D01*
Y864772D01*
X511634Y864661D01*
X511523Y864439D01*
X511412Y864106D01*
X511301Y863772D01*
X511079Y863383D01*
X510635Y862383D01*
X510079Y861328D01*
X509357Y860162D01*
X508524Y859051D01*
X507579Y857995D01*
X507468Y857884D01*
X507191Y857662D01*
X506746Y857328D01*
X506135Y856884D01*
X505357Y856384D01*
X504468Y855884D01*
X503358Y855384D01*
X502135Y854940D01*
X502080D01*
X502024Y854884D01*
X501858D01*
X501691Y854829D01*
X501080Y854718D01*
X500302Y854551D01*
X499358Y854384D01*
X498191Y854273D01*
X496803Y854218D01*
X495303Y854162D01*
X480749D01*
Y892603D01*
X496081D01*
X496525Y892547D01*
D02*
G37*
G36*
X459807D02*
X460418D01*
X461029Y892492D01*
X461751D01*
X463195Y892325D01*
X464695Y892158D01*
X466084Y891880D01*
X466695Y891714D01*
X467250Y891547D01*
X467306D01*
X467361Y891492D01*
X467695Y891325D01*
X468195Y891047D01*
X468861Y890714D01*
X469583Y890158D01*
X470305Y889547D01*
X471028Y888770D01*
X471694Y887825D01*
Y887770D01*
X471750Y887714D01*
X471861Y887548D01*
X471972Y887381D01*
X472250Y886825D01*
X472583Y886103D01*
X472861Y885214D01*
X473138Y884215D01*
X473361Y883048D01*
X473416Y881826D01*
Y881770D01*
Y881659D01*
Y881382D01*
X473361Y881104D01*
Y880715D01*
X473305Y880326D01*
X473083Y879326D01*
X472805Y878160D01*
X472361Y876993D01*
X471694Y875771D01*
X471305Y875216D01*
X470861Y874660D01*
X470805Y874604D01*
X470750Y874549D01*
X470583Y874382D01*
X470361Y874216D01*
X470139Y873993D01*
X469805Y873716D01*
X469417Y873438D01*
X468972Y873160D01*
X468472Y872827D01*
X467861Y872549D01*
X467250Y872271D01*
X466584Y871994D01*
X465806Y871716D01*
X465028Y871494D01*
X464195Y871272D01*
X463251Y871105D01*
X463306D01*
X463362Y871049D01*
X463695Y870827D01*
X464139Y870549D01*
X464695Y870161D01*
X465362Y869660D01*
X466028Y869161D01*
X466750Y868549D01*
X467361Y867883D01*
X467417Y867827D01*
X467695Y867550D01*
X468028Y867105D01*
X468528Y866439D01*
X469194Y865605D01*
X469528Y865050D01*
X469917Y864494D01*
X470361Y863883D01*
X470805Y863217D01*
X471305Y862439D01*
X471805Y861661D01*
X476527Y854162D01*
X467195D01*
X461640Y862495D01*
X461584Y862550D01*
X461529Y862717D01*
X461362Y862939D01*
X461140Y863217D01*
X460918Y863550D01*
X460640Y863995D01*
X460029Y864883D01*
X459306Y865883D01*
X458640Y866772D01*
X458029Y867605D01*
X457751Y867883D01*
X457529Y868161D01*
X457473Y868216D01*
X457362Y868327D01*
X457140Y868549D01*
X456862Y868827D01*
X456474Y869050D01*
X456085Y869327D01*
X455640Y869549D01*
X455196Y869772D01*
X455140D01*
X454974Y869827D01*
X454696Y869938D01*
X454252Y869994D01*
X453696Y870105D01*
X453029Y870161D01*
X452252Y870216D01*
X449752D01*
Y854162D01*
X441975D01*
Y892603D01*
X459306D01*
X459807Y892547D01*
D02*
G37*
G36*
X437809Y854162D02*
X429421D01*
X426088Y862884D01*
X410645D01*
X407479Y854162D01*
X399257D01*
X414145Y892603D01*
X422366D01*
X437809Y854162D01*
D02*
G37*
G36*
X309489D02*
X301101D01*
X297768Y862884D01*
X282325D01*
X279158Y854162D01*
X270937D01*
X285825Y892603D01*
X294046D01*
X309489Y854162D01*
D02*
G37*
G36*
X215165Y892547D02*
X215776D01*
X216387Y892492D01*
X217109D01*
X218554Y892325D01*
X220054Y892158D01*
X221442Y891880D01*
X222053Y891714D01*
X222609Y891547D01*
X222664D01*
X222720Y891492D01*
X223053Y891325D01*
X223553Y891047D01*
X224220Y890714D01*
X224942Y890158D01*
X225664Y889547D01*
X226386Y888770D01*
X227053Y887825D01*
Y887770D01*
X227108Y887714D01*
X227220Y887548D01*
X227331Y887381D01*
X227608Y886825D01*
X227942Y886103D01*
X228219Y885214D01*
X228497Y884215D01*
X228719Y883048D01*
X228775Y881826D01*
Y881770D01*
Y881659D01*
Y881382D01*
X228719Y881104D01*
Y880715D01*
X228664Y880326D01*
X228442Y879326D01*
X228164Y878160D01*
X227719Y876993D01*
X227053Y875771D01*
X226664Y875216D01*
X226220Y874660D01*
X226164Y874604D01*
X226108Y874549D01*
X225942Y874382D01*
X225720Y874216D01*
X225497Y873993D01*
X225164Y873716D01*
X224775Y873438D01*
X224331Y873160D01*
X223831Y872827D01*
X223220Y872549D01*
X222609Y872271D01*
X221942Y871994D01*
X221165Y871716D01*
X220387Y871494D01*
X219554Y871272D01*
X218609Y871105D01*
X218665D01*
X218720Y871049D01*
X219054Y870827D01*
X219498Y870549D01*
X220054Y870161D01*
X220720Y869660D01*
X221387Y869161D01*
X222109Y868549D01*
X222720Y867883D01*
X222775Y867827D01*
X223053Y867550D01*
X223386Y867105D01*
X223887Y866439D01*
X224553Y865605D01*
X224886Y865050D01*
X225275Y864494D01*
X225720Y863883D01*
X226164Y863217D01*
X226664Y862439D01*
X227164Y861661D01*
X231886Y854162D01*
X222553D01*
X216998Y862495D01*
X216943Y862550D01*
X216887Y862717D01*
X216721Y862939D01*
X216498Y863217D01*
X216276Y863550D01*
X215998Y863995D01*
X215387Y864883D01*
X214665Y865883D01*
X213999Y866772D01*
X213388Y867605D01*
X213110Y867883D01*
X212888Y868161D01*
X212832Y868216D01*
X212721Y868327D01*
X212499Y868549D01*
X212221Y868827D01*
X211832Y869050D01*
X211443Y869327D01*
X210999Y869549D01*
X210555Y869772D01*
X210499D01*
X210332Y869827D01*
X210055Y869938D01*
X209610Y869994D01*
X209055Y870105D01*
X208388Y870161D01*
X207610Y870216D01*
X205111D01*
Y854162D01*
X197334D01*
Y892603D01*
X214665D01*
X215165Y892547D01*
D02*
G37*
G36*
X152116Y886103D02*
X133507D01*
Y876993D01*
X149561D01*
Y870494D01*
X133507D01*
Y854162D01*
X125730D01*
Y892603D01*
X152116D01*
Y886103D01*
D02*
G37*
%LPC*%
G36*
X493581D02*
X488526D01*
Y860661D01*
X495358D01*
X496081Y860717D01*
X496858D01*
X497636Y860828D01*
X498358Y860884D01*
X498969Y860995D01*
X499080D01*
X499302Y861106D01*
X499636Y861217D01*
X500080Y861384D01*
X500580Y861606D01*
X501080Y861884D01*
X501580Y862217D01*
X502080Y862606D01*
X502135Y862661D01*
X502302Y862828D01*
X502524Y863106D01*
X502802Y863494D01*
X503080Y863995D01*
X503469Y864605D01*
X503746Y865383D01*
X504080Y866272D01*
Y866328D01*
X504135Y866383D01*
Y866550D01*
X504191Y866772D01*
X504302Y866994D01*
X504357Y867327D01*
X504524Y868161D01*
X504635Y869161D01*
X504802Y870327D01*
X504857Y871771D01*
X504913Y873327D01*
Y873382D01*
Y873549D01*
Y873771D01*
Y874049D01*
Y874438D01*
X504857Y874882D01*
X504802Y875827D01*
X504691Y876938D01*
X504580Y878104D01*
X504357Y879160D01*
X504080Y880160D01*
Y880215D01*
X504024Y880271D01*
X503913Y880548D01*
X503746Y880993D01*
X503524Y881548D01*
X503191Y882104D01*
X502802Y882715D01*
X502358Y883326D01*
X501858Y883881D01*
X501802Y883937D01*
X501636Y884103D01*
X501302Y884326D01*
X500913Y884603D01*
X500358Y884937D01*
X499747Y885214D01*
X499080Y885492D01*
X498302Y885714D01*
X498247D01*
X497969Y885770D01*
X497525Y885826D01*
X496914Y885937D01*
X496525D01*
X496025Y885992D01*
X495525D01*
X494969Y886048D01*
X494303D01*
X493581Y886103D01*
D02*
G37*
G36*
X458640D02*
X449752D01*
Y876327D01*
X457307D01*
X458418Y876382D01*
X459584Y876438D01*
X460751Y876493D01*
X461251Y876549D01*
X461695Y876604D01*
X462140Y876715D01*
X462417Y876771D01*
X462473D01*
X462640Y876882D01*
X462917Y876993D01*
X463195Y877160D01*
X463917Y877660D01*
X464250Y877993D01*
X464584Y878382D01*
X464639Y878437D01*
X464695Y878604D01*
X464861Y878826D01*
X465028Y879160D01*
X465139Y879604D01*
X465306Y880104D01*
X465362Y880659D01*
X465417Y881270D01*
Y881382D01*
Y881604D01*
X465362Y881937D01*
X465306Y882381D01*
X465139Y882881D01*
X464973Y883381D01*
X464695Y883937D01*
X464362Y884381D01*
X464306Y884437D01*
X464195Y884603D01*
X463917Y884770D01*
X463584Y885048D01*
X463195Y885326D01*
X462695Y885548D01*
X462084Y885770D01*
X461417Y885937D01*
X461362D01*
X461195Y885992D01*
X460862D01*
X460362Y886048D01*
X459140D01*
X458640Y886103D01*
D02*
G37*
G36*
X418200Y883659D02*
X412978Y869383D01*
X423588D01*
X418200Y883659D01*
D02*
G37*
G36*
X289880D02*
X284658Y869383D01*
X295268D01*
X289880Y883659D01*
D02*
G37*
G36*
X213999Y886103D02*
X205111D01*
Y876327D01*
X212665D01*
X213776Y876382D01*
X214943Y876438D01*
X216110Y876493D01*
X216609Y876549D01*
X217054Y876604D01*
X217498Y876715D01*
X217776Y876771D01*
X217832D01*
X217998Y876882D01*
X218276Y876993D01*
X218554Y877160D01*
X219276Y877660D01*
X219609Y877993D01*
X219942Y878382D01*
X219998Y878437D01*
X220054Y878604D01*
X220220Y878826D01*
X220387Y879160D01*
X220498Y879604D01*
X220665Y880104D01*
X220720Y880659D01*
X220776Y881270D01*
Y881382D01*
Y881604D01*
X220720Y881937D01*
X220665Y882381D01*
X220498Y882881D01*
X220331Y883381D01*
X220054Y883937D01*
X219720Y884381D01*
X219665Y884437D01*
X219554Y884603D01*
X219276Y884770D01*
X218943Y885048D01*
X218554Y885326D01*
X218054Y885548D01*
X217443Y885770D01*
X216776Y885937D01*
X216721D01*
X216554Y885992D01*
X216221D01*
X215721Y886048D01*
X214499D01*
X213999Y886103D01*
D02*
G37*
%LPD*%
D17*
X943610Y878218D02*
X944880Y879488D01*
X970280Y609600D02*
Y880110D01*
X944880Y879488D02*
Y880110D01*
X709930Y721360D02*
X943610D01*
Y878218D01*
X367030Y549910D02*
X530860Y386080D01*
Y297802D02*
X535940Y292722D01*
X367030Y549910D02*
Y773430D01*
X530860Y292100D02*
X535940D01*
X530860Y297802D02*
Y386080D01*
X510540Y292100D02*
X530860D01*
X535940D02*
Y292722D01*
X392430Y574040D02*
X562610Y403860D01*
X392430Y574040D02*
Y773430D01*
X562610Y403860D02*
X754380D01*
X419100Y589280D02*
X581660Y426720D01*
X753110D01*
X419100Y589280D02*
Y771538D01*
X588010Y457200D02*
X753110D01*
X443230Y601980D02*
X588010Y457200D01*
X443230Y601980D02*
Y773430D01*
X468630Y615950D02*
Y773430D01*
X589280Y495300D02*
X754380D01*
X468630Y615950D02*
X589280Y495300D01*
X607060Y515620D02*
X754380D01*
X494030Y628650D02*
X607060Y515620D01*
X494030Y628650D02*
Y773430D01*
X519430Y648970D02*
Y773430D01*
X610870Y557530D02*
X782320D01*
X519430Y648970D02*
X610870Y557530D01*
X585470Y660400D02*
Y773430D01*
Y660400D02*
X643890Y601980D01*
X783590D01*
X610870Y715010D02*
Y773430D01*
Y715010D02*
X665480Y660400D01*
X789940D01*
X678180Y679450D02*
X819150D01*
X636270Y721360D02*
X678180Y679450D01*
X636270Y721360D02*
Y773430D01*
X661670Y732790D02*
X693420Y701040D01*
X661670Y732790D02*
Y773430D01*
X693420Y701040D02*
X817880D01*
X687070Y745490D02*
Y773430D01*
X690880Y740410D02*
Y741680D01*
Y740410D02*
X701053Y730237D01*
X687070Y745490D02*
X690880Y741680D01*
X701053Y730237D02*
X707390Y723900D01*
X709930Y721360D01*
X712910Y753940D02*
Y772990D01*
Y753940D02*
X722630Y744220D01*
X712470Y773430D02*
X712910Y772990D01*
X722630Y744220D02*
X784860D01*
X560070Y646430D02*
X627380Y579120D01*
X560070Y646430D02*
Y773430D01*
X627380Y579120D02*
X783590D01*
X943610Y623570D02*
Y721360D01*
X998220Y623570D02*
X1050290Y571500D01*
X970280Y609600D02*
X1029970Y549910D01*
X713092Y292100D02*
X733412Y312420D01*
X773430D01*
X775970Y309880D01*
X708660Y334010D02*
X774700D01*
X687070Y312420D02*
X708660Y334010D01*
X687070Y292100D02*
Y312420D01*
X643890Y356870D02*
X779780D01*
X610870Y323850D02*
X643890Y356870D01*
X610870Y292100D02*
Y323850D01*
X782320Y557530D02*
X783590Y558800D01*
X753110Y457200D02*
X754380Y455930D01*
X417830Y772808D02*
X419100Y771538D01*
X417830Y772808D02*
Y773430D01*
X986790Y260350D02*
Y347980D01*
X985520Y349250D02*
X986790Y347980D01*
X948690Y234950D02*
X1033780D01*
X947420Y236220D02*
X948690Y234950D01*
X1033780D02*
X1036320Y232410D01*
X1062990Y260350D02*
Y328930D01*
X712470Y292100D02*
X713092D01*
X1088390Y260350D02*
Y308610D01*
X1113790Y260350D02*
Y290830D01*
X737870Y292100D02*
X774700D01*
X775970Y290830D01*
X819150Y260350D02*
Y318770D01*
X877570Y377190D01*
X1206500D02*
X1262380Y321310D01*
X877570Y377190D02*
X1206500D01*
X819150Y195580D02*
Y260350D01*
X818000Y196730D02*
X819150Y195580D01*
X810590Y198120D02*
X811980Y196730D01*
X434340Y233680D02*
X469900Y198120D01*
X811980Y196730D02*
X818000D01*
X469900Y198120D02*
X810590D01*
X434340Y233680D02*
Y292100D01*
X869950Y195580D02*
Y260350D01*
X868045Y147955D02*
X869950Y149860D01*
Y195580D01*
X868045Y147955D02*
X886460Y129540D01*
X1127760D01*
X844550Y195580D02*
Y260350D01*
X920750D02*
X946150D01*
X895350D02*
X920750D01*
X1297940Y261620D02*
Y351790D01*
X1308100Y251460D02*
X1320800D01*
X1297940Y261620D02*
X1308100Y251460D01*
X1138750Y151960D02*
X1139190Y152400D01*
X1138750Y140530D02*
Y151960D01*
X1127760Y129540D02*
X1138750Y140530D01*
X1062550Y152840D02*
X1062990Y152400D01*
X1062550Y152840D02*
Y178240D01*
X1045210Y195580D02*
X1062550Y178240D01*
X946150Y195580D02*
X1045210D01*
X920750D02*
X946150D01*
X895350D02*
X920750D01*
X895350D02*
Y260350D01*
X1088390Y152400D02*
X1113790D01*
X1062990D02*
X1088390D01*
X1217930Y194958D02*
Y195580D01*
X1211400Y188427D02*
X1217930Y194958D01*
X1211400Y181430D02*
Y188427D01*
X1203960Y173990D02*
X1211400Y181430D01*
X1122680Y173990D02*
X1203960D01*
X1114230Y165540D02*
X1122680Y173990D01*
X1114230Y152840D02*
Y165540D01*
X1113790Y152400D02*
X1114230Y152840D01*
X1217930Y195580D02*
X1243330D01*
X1192530D02*
X1217930D01*
X1139190Y152400D02*
X1164590D01*
X1189990D01*
X1268290Y195140D02*
X1268730Y195580D01*
X1268290Y173550D02*
Y195140D01*
X1247140Y152400D02*
X1268290Y173550D01*
X1189990Y152400D02*
X1247140D01*
X1268730Y195580D02*
X1294130D01*
X1319530D01*
X1320800Y251460D02*
X1390650D01*
X1319530Y195580D02*
Y250190D01*
X1320800Y251460D01*
X1385570Y378460D02*
X1419860D01*
X1436370Y284740D02*
Y361950D01*
X1419860Y378460D02*
X1436370Y361950D01*
X1416490Y277300D02*
X1428931D01*
X1436370Y284740D01*
X1416050Y276860D02*
X1416490Y277300D01*
X1416050Y251460D02*
X1440180D01*
X1455420Y266700D02*
Y388620D01*
X1440180Y251460D02*
X1455420Y266700D01*
X1385570Y403860D02*
X1440180D01*
X1455420Y388620D01*
X1341120Y492760D02*
Y530860D01*
X919920Y900870D02*
X932180Y913130D01*
X919920Y880550D02*
Y900870D01*
X919480Y880110D02*
X919920Y880550D01*
X1299391Y572589D02*
X1341120Y530860D01*
X1288869Y572589D02*
X1299391D01*
X1287780Y571500D02*
X1288869Y572589D01*
X1050290Y571500D02*
X1287780D01*
X1341120Y492760D02*
X1353820Y480060D01*
X1385570D01*
X1316990Y468630D02*
Y511810D01*
X1278890Y549910D02*
X1316990Y511810D01*
Y468630D02*
X1330960Y454660D01*
X1029970Y549910D02*
X1278890D01*
X1330960Y454660D02*
X1385570D01*
X1192530Y520700D02*
X1271270D01*
X1294130Y439420D02*
Y497840D01*
X1271270Y520700D02*
X1294130Y497840D01*
X1304290Y429260D02*
X1385570D01*
X1294130Y439420D02*
X1304290Y429260D01*
X1267460Y420370D02*
Y485321D01*
X1260021Y492760D02*
X1267460Y485321D01*
X1216660Y492760D02*
X1260021D01*
X1283970Y403860D02*
X1385570D01*
X1267460Y420370D02*
X1283970Y403860D01*
X1268730Y378460D02*
X1385570D01*
X1243330Y403860D02*
X1268730Y378460D01*
X1243330Y403860D02*
Y466090D01*
X1410970Y564373D02*
Y666750D01*
X1385570Y556260D02*
X1386010Y556700D01*
X1403297D01*
X1410970Y564373D01*
X1402520Y675200D02*
X1410970Y666750D01*
X1386010Y675200D02*
X1402520D01*
X1385570Y675640D02*
X1386010Y675200D01*
X1430020Y726440D02*
Y891540D01*
Y524510D02*
Y726440D01*
X1385570D02*
X1430020D01*
X1385570Y505460D02*
X1386010Y505900D01*
X1411410D01*
X1430020Y524510D01*
X932180Y913130D02*
X1408430D01*
X1430020Y891540D01*
D18*
X560070Y773430D02*
D03*
X1113790Y260350D02*
D03*
X1294130Y880110D02*
D03*
X1116330Y195580D02*
D03*
X1071880Y880110D02*
D03*
X986790Y152400D02*
D03*
X819150Y195580D02*
D03*
X946150Y260350D02*
D03*
X610870Y292100D02*
D03*
X383540D02*
D03*
X290830Y773430D02*
D03*
D19*
X585470D02*
D03*
X610870D02*
D03*
X636270D02*
D03*
X661670D02*
D03*
X687070D02*
D03*
X712470D02*
D03*
X737870D02*
D03*
X986790Y260350D02*
D03*
X1012190D02*
D03*
X1037590D02*
D03*
X1062990D02*
D03*
X1088390D02*
D03*
X1116330Y880110D02*
D03*
X1141730D02*
D03*
X1167130D02*
D03*
X1192530D02*
D03*
X1217930D02*
D03*
X1243330D02*
D03*
X1268730D02*
D03*
X1141730Y195580D02*
D03*
X1319530D02*
D03*
X1294130D02*
D03*
X1268730D02*
D03*
X1243330D02*
D03*
X1217930D02*
D03*
X1192530D02*
D03*
X1167130D02*
D03*
X1390650Y302260D02*
D03*
X1416050D02*
D03*
X1390650Y276860D02*
D03*
X1416050D02*
D03*
X1390650Y251460D02*
D03*
X1385570Y403860D02*
D03*
Y581660D02*
D03*
Y556260D02*
D03*
Y530860D02*
D03*
Y505460D02*
D03*
Y480060D02*
D03*
Y454660D02*
D03*
Y429260D02*
D03*
X894080Y880110D02*
D03*
X919480D02*
D03*
X944880D02*
D03*
X970280D02*
D03*
X995680D02*
D03*
X1021080D02*
D03*
X1046480D02*
D03*
X1012190Y152400D02*
D03*
X1189990D02*
D03*
X1164590D02*
D03*
X1139190D02*
D03*
X1113790D02*
D03*
X1088390D02*
D03*
X1062990D02*
D03*
X1037590D02*
D03*
X1385570Y751840D02*
D03*
Y777240D02*
D03*
Y726440D02*
D03*
Y701040D02*
D03*
Y675640D02*
D03*
Y650240D02*
D03*
X946150Y195580D02*
D03*
X920750D02*
D03*
X895350D02*
D03*
X869950D02*
D03*
X844550D02*
D03*
X819150Y260350D02*
D03*
X844550D02*
D03*
X869950D02*
D03*
X895350D02*
D03*
X920750D02*
D03*
X737870Y292100D02*
D03*
X712470D02*
D03*
X687070D02*
D03*
X661670D02*
D03*
X636270D02*
D03*
X561340D02*
D03*
X535940D02*
D03*
X510540D02*
D03*
X485140D02*
D03*
X459740D02*
D03*
X434340D02*
D03*
X408940D02*
D03*
X316230Y773430D02*
D03*
X367030D02*
D03*
X392430D02*
D03*
X417830D02*
D03*
X443230D02*
D03*
X468630D02*
D03*
X494030D02*
D03*
X519430D02*
D03*
X341630D02*
D03*
D20*
X1416050Y251460D02*
D03*
X1385570Y378460D02*
D03*
Y802640D02*
D03*
D21*
X783590Y601980D02*
D03*
X789940Y660400D02*
D03*
X784860Y744220D02*
D03*
X943610Y721360D02*
D03*
X817880Y701040D02*
D03*
X998220Y623570D02*
D03*
X819150Y679450D02*
D03*
X943610Y623570D02*
D03*
X774700Y334010D02*
D03*
X779780Y356870D02*
D03*
X783590Y579120D02*
D03*
Y558800D02*
D03*
X754380Y515620D02*
D03*
Y495300D02*
D03*
X753110Y426720D02*
D03*
X754380Y455930D02*
D03*
Y403860D02*
D03*
X985520Y349250D02*
D03*
X947420Y236220D02*
D03*
X1036320Y232410D02*
D03*
X1062990Y328930D02*
D03*
X1088390Y308610D02*
D03*
X1113790Y290830D02*
D03*
X775970Y309880D02*
D03*
Y290830D02*
D03*
X868045Y147955D02*
D03*
X1262380Y321310D02*
D03*
X1297940Y351790D02*
D03*
X1192530Y520700D02*
D03*
X1216660Y492760D02*
D03*
X1243330Y466090D02*
D03*
M02*
