M48
;Layer_Color=9474304
;FILE_FORMAT=4:4
METRIC,LZ
;TYPE=PLATED
T1F00S00C0.7000
T2F00S00C0.7112
T3F00S00C0.9000
T4F00S00C1.1000
%
T01
X0019177Y0091186
X0021717
X0024257
T02
X0133604Y0036449
X0130556
X0130429Y0044196
X0099187Y0049276
X0052197Y0061849
X004953Y0064516
X0047117Y0066548
X0052197Y0083058
X0026797Y0078486
X0026289Y0062484
X0018161Y005969
Y0067818
X0062611Y0066548
Y0064516
X006223Y0061468
X0065532Y0069088
X0091694Y0070231
X0094234Y0068453
X0096774Y006858
Y0053975
X0112903Y0056134
X0115316Y0054483
X0120904
X012319Y005715
X0126111Y0076454
T03
X0138303Y0028956
Y0031496
Y0034036
X0140843
Y0031496
Y0028956
X0137795Y0041656
Y0044196
Y0046736
Y0049276
Y0051816
X0131191Y0023495
X0128651
X0126111
X0123571
X0121031
X0118491
X0115951
X0113411
X0110871
X0110617Y001905
X0113157
X0115697
X0118237
X0108077
X0105537
X0102997
X0100457
X0097917
X0093853Y0023368
Y0029845
X0097917
X0100457
X0102997
X0105537
X0108077
X0110617
X0091313
X0088773
X0086233
X0083693
X0081153
Y0023368
X0083693
X0086233
X0088773
X0091313
X0052197Y0083058
X0049657
X0047117
X0044577
X0042037
X0039497
X0036957
X0034417
X0031877
X0029337
X0026797
X0024257
X0021717
X0054737
X0057277
X0059817
X0089154Y0091821
X0091694
X0094234
X0096774
X0099314
X0101854
X0104394
X0106934
X0110744
X0113284
X0115824
X0118364
X0120904
X0123444
X0125984
X0128524
X0137795Y0084074
Y0081534
Y0078994
Y0076454
Y0073914
Y0071374
Y0068834
Y0061976
Y0059436
Y0056896
Y0054356
T04
X0058039Y0030861
Y0035941
X0069596Y0036068
Y0030988
X0041529Y0030099
Y0025019
Y0043053
Y0048133
X0026543Y0035941
Y0030861
X0014351
Y0035941
M30
