G04*
G04 #@! TF.GenerationSoftware,Altium Limited,Altium Designer,21.0.9 (235)*
G04*
G04 Layer_Color=2752767*
%FSLAX44Y44*%
%MOMM*%
G71*
G04*
G04 #@! TF.SameCoordinates,4DC3274F-E9D7-49BC-8B51-1643F64A7915*
G04*
G04*
G04 #@! TF.FilePolarity,Positive*
G04*
G01*
G75*
%ADD23C,0.0508*%
%ADD24C,0.0677*%
G36*
X596959Y893269D02*
X597570Y893214D01*
X598237Y893103D01*
X599014Y892991D01*
X599847Y892825D01*
X600736Y892603D01*
X601681Y892325D01*
X602625Y891992D01*
X603625Y891547D01*
X604569Y891103D01*
X605458Y890547D01*
X606402Y889881D01*
X607236Y889158D01*
X607291D01*
X607347Y889047D01*
X607513Y888881D01*
X607680Y888714D01*
X607902Y888436D01*
X608125Y888103D01*
X608736Y887325D01*
X609347Y886326D01*
X610013Y885103D01*
X610624Y883715D01*
X611180Y882104D01*
X603514Y880271D01*
Y880326D01*
X603458Y880382D01*
Y880548D01*
X603347Y880770D01*
X603181Y881270D01*
X602903Y881937D01*
X602514Y882715D01*
X602014Y883492D01*
X601347Y884270D01*
X600625Y884937D01*
X600514Y884992D01*
X600236Y885214D01*
X599792Y885492D01*
X599181Y885826D01*
X598403Y886159D01*
X597514Y886437D01*
X596515Y886659D01*
X595404Y886714D01*
X595015D01*
X594681Y886659D01*
X594348Y886603D01*
X593904Y886548D01*
X592959Y886326D01*
X591848Y885937D01*
X590682Y885381D01*
X590071Y885048D01*
X589515Y884659D01*
X588960Y884159D01*
X588460Y883604D01*
Y883548D01*
X588349Y883437D01*
X588238Y883270D01*
X588071Y882992D01*
X587849Y882659D01*
X587627Y882270D01*
X587404Y881770D01*
X587182Y881215D01*
X586904Y880548D01*
X586682Y879826D01*
X586460Y878993D01*
X586238Y878104D01*
X586071Y877104D01*
X585960Y876049D01*
X585905Y874882D01*
X585849Y873605D01*
Y873549D01*
Y873271D01*
Y872882D01*
X585905Y872438D01*
Y871827D01*
X586016Y871105D01*
X586071Y870383D01*
X586182Y869549D01*
X586516Y867827D01*
X586960Y866105D01*
X587238Y865272D01*
X587627Y864494D01*
X588015Y863772D01*
X588460Y863161D01*
X588515Y863106D01*
X588571Y863050D01*
X588738Y862884D01*
X588960Y862661D01*
X589515Y862217D01*
X590293Y861661D01*
X591237Y861050D01*
X592404Y860606D01*
X593737Y860217D01*
X594459Y860162D01*
X595237Y860106D01*
X595515D01*
X595737Y860162D01*
X596348Y860217D01*
X597070Y860328D01*
X597848Y860606D01*
X598736Y860939D01*
X599625Y861384D01*
X600514Y862050D01*
X600625Y862161D01*
X600903Y862439D01*
X601292Y862884D01*
X601736Y863550D01*
X602292Y864439D01*
X602792Y865494D01*
X603292Y866772D01*
X603736Y868272D01*
X611291Y865939D01*
Y865883D01*
X611235Y865661D01*
X611124Y865328D01*
X610957Y864883D01*
X610735Y864383D01*
X610513Y863772D01*
X610235Y863106D01*
X609902Y862383D01*
X609124Y860884D01*
X608125Y859328D01*
X606902Y857828D01*
X606236Y857162D01*
X605514Y856551D01*
X605458Y856495D01*
X605347Y856440D01*
X605125Y856273D01*
X604791Y856051D01*
X604403Y855829D01*
X603903Y855606D01*
X603347Y855329D01*
X602736Y855051D01*
X602014Y854718D01*
X601236Y854440D01*
X600403Y854218D01*
X599514Y853996D01*
X598570Y853773D01*
X597514Y853607D01*
X596459Y853551D01*
X595293Y853495D01*
X594959D01*
X594570Y853551D01*
X594015Y853607D01*
X593404Y853662D01*
X592626Y853773D01*
X591793Y853940D01*
X590849Y854162D01*
X589904Y854440D01*
X588904Y854773D01*
X587849Y855218D01*
X586793Y855717D01*
X585738Y856273D01*
X584682Y856995D01*
X583683Y857773D01*
X582738Y858717D01*
X582683Y858773D01*
X582516Y858939D01*
X582294Y859273D01*
X581960Y859662D01*
X581627Y860217D01*
X581183Y860828D01*
X580738Y861606D01*
X580294Y862495D01*
X579850Y863439D01*
X579405Y864494D01*
X578961Y865716D01*
X578628Y866994D01*
X578294Y868327D01*
X578072Y869827D01*
X577905Y871383D01*
X577850Y873049D01*
Y873105D01*
Y873160D01*
Y873493D01*
X577905Y873993D01*
Y874660D01*
X578017Y875438D01*
X578128Y876382D01*
X578239Y877382D01*
X578461Y878549D01*
X578739Y879715D01*
X579072Y880937D01*
X579461Y882159D01*
X579961Y883437D01*
X580516Y884659D01*
X581183Y885826D01*
X581905Y886936D01*
X582794Y887992D01*
X582849Y888047D01*
X583016Y888214D01*
X583294Y888492D01*
X583683Y888825D01*
X584183Y889214D01*
X584794Y889659D01*
X585460Y890158D01*
X586293Y890658D01*
X587182Y891158D01*
X588126Y891658D01*
X589238Y892103D01*
X590349Y892492D01*
X591626Y892825D01*
X592904Y893103D01*
X594348Y893269D01*
X595792Y893325D01*
X596459D01*
X596959Y893269D01*
D02*
G37*
G36*
X385203Y870272D02*
Y854162D01*
X377426D01*
Y870327D01*
X363372Y892603D01*
X372427D01*
X381481Y877382D01*
X390314Y892603D01*
X399257D01*
X385203Y870272D01*
D02*
G37*
G36*
X255550Y877604D02*
X270826Y854162D01*
X260772D01*
X250162Y872216D01*
X243884Y865772D01*
Y854162D01*
X236108D01*
Y892603D01*
X243884D01*
Y875493D01*
X259661Y892603D01*
X270104D01*
X255550Y877604D01*
D02*
G37*
G36*
X344207Y854162D02*
X336430D01*
X320821Y879493D01*
Y854162D01*
X313655D01*
Y892603D01*
X321154D01*
X337041Y866716D01*
Y892603D01*
X344207D01*
Y854162D01*
D02*
G37*
G36*
X571351D02*
X564185D01*
X564129Y884381D01*
X556574Y854162D01*
X549075D01*
X541520Y884381D01*
Y854162D01*
X534354D01*
Y892603D01*
X545964D01*
X552852Y866328D01*
X559685Y892603D01*
X571351D01*
Y854162D01*
D02*
G37*
G36*
X189112Y872327D02*
Y872271D01*
Y872049D01*
Y871660D01*
Y871216D01*
Y870660D01*
X189057Y869994D01*
Y869272D01*
Y868549D01*
X188946Y866939D01*
X188835Y865272D01*
X188779Y864550D01*
X188668Y863828D01*
X188557Y863161D01*
X188446Y862550D01*
Y862495D01*
X188390Y862439D01*
Y862272D01*
X188335Y862106D01*
X188168Y861550D01*
X187946Y860884D01*
X187612Y860106D01*
X187224Y859328D01*
X186724Y858495D01*
X186113Y857717D01*
X186057Y857606D01*
X185835Y857384D01*
X185446Y857051D01*
X184946Y856606D01*
X184279Y856106D01*
X183502Y855606D01*
X182613Y855051D01*
X181613Y854606D01*
X181558D01*
X181502Y854551D01*
X181335Y854495D01*
X181113Y854440D01*
X180835Y854329D01*
X180502Y854218D01*
X180058Y854107D01*
X179613Y854051D01*
X178558Y853829D01*
X177280Y853607D01*
X175836Y853495D01*
X174225Y853440D01*
X173336D01*
X172836Y853495D01*
X172336D01*
X171725Y853551D01*
X171114Y853607D01*
X169781Y853718D01*
X168392Y853940D01*
X167003Y854273D01*
X166392Y854440D01*
X165837Y854662D01*
X165781D01*
X165726Y854718D01*
X165393Y854884D01*
X164837Y855162D01*
X164226Y855551D01*
X163504Y856051D01*
X162726Y856606D01*
X162004Y857273D01*
X161337Y857995D01*
X161282Y858106D01*
X161060Y858328D01*
X160782Y858773D01*
X160449Y859328D01*
X160115Y859939D01*
X159726Y860661D01*
X159449Y861439D01*
X159171Y862272D01*
Y862328D01*
X159115Y862439D01*
Y862606D01*
X159060Y862884D01*
X159004Y863217D01*
X158949Y863661D01*
X158893Y864161D01*
X158838Y864717D01*
X158727Y865383D01*
X158671Y866105D01*
X158616Y866883D01*
X158560Y867772D01*
X158504Y868716D01*
Y869772D01*
X158449Y870883D01*
Y872049D01*
Y892603D01*
X166226D01*
Y871716D01*
Y871660D01*
Y871494D01*
Y871272D01*
Y870938D01*
Y870494D01*
Y870049D01*
X166281Y869050D01*
Y867939D01*
X166337Y866883D01*
X166392Y866383D01*
Y865939D01*
X166448Y865605D01*
X166504Y865272D01*
Y865161D01*
X166615Y864883D01*
X166781Y864439D01*
X167003Y863883D01*
X167281Y863272D01*
X167726Y862661D01*
X168226Y861995D01*
X168837Y861439D01*
X168948Y861384D01*
X169170Y861217D01*
X169614Y860995D01*
X170170Y860773D01*
X170947Y860495D01*
X171836Y860273D01*
X172836Y860106D01*
X174003Y860050D01*
X174558D01*
X175114Y860106D01*
X175836Y860217D01*
X176669Y860384D01*
X177447Y860606D01*
X178280Y860939D01*
X178947Y861384D01*
X179002Y861439D01*
X179224Y861606D01*
X179502Y861884D01*
X179835Y862272D01*
X180169Y862772D01*
X180502Y863328D01*
X180780Y863939D01*
X180947Y864661D01*
Y864772D01*
X181002Y865050D01*
X181058Y865550D01*
X181169Y866217D01*
Y866661D01*
X181224Y867161D01*
Y867716D01*
X181280Y868272D01*
Y868938D01*
X181335Y869660D01*
Y870438D01*
Y871272D01*
Y892603D01*
X189112D01*
Y872327D01*
D02*
G37*
G36*
X625512Y854162D02*
X617735D01*
Y892603D01*
X625512D01*
Y854162D01*
D02*
G37*
G36*
X527022D02*
X519245D01*
Y892603D01*
X527022D01*
Y854162D01*
D02*
G37*
G36*
X496525Y892547D02*
X497580Y892492D01*
X498747Y892436D01*
X499969Y892269D01*
X501135Y892103D01*
X502191Y891825D01*
X502247D01*
X502358Y891769D01*
X502524Y891714D01*
X502747Y891658D01*
X503413Y891380D01*
X504191Y890992D01*
X505080Y890492D01*
X506079Y889881D01*
X507024Y889158D01*
X507968Y888270D01*
X508024D01*
X508079Y888159D01*
X508357Y887825D01*
X508801Y887270D01*
X509301Y886548D01*
X509912Y885659D01*
X510523Y884603D01*
X511134Y883381D01*
X511634Y882048D01*
Y881993D01*
X511690Y881881D01*
X511746Y881659D01*
X511857Y881382D01*
X511912Y881048D01*
X512023Y880604D01*
X512134Y880104D01*
X512301Y879548D01*
X512412Y878937D01*
X512523Y878215D01*
X512634Y877493D01*
X512690Y876660D01*
X512857Y874938D01*
X512912Y872993D01*
Y872938D01*
Y872771D01*
Y872549D01*
Y872216D01*
X512857Y871771D01*
Y871327D01*
X512801Y870771D01*
X512746Y870161D01*
X512634Y868883D01*
X512412Y867550D01*
X512079Y866161D01*
X511690Y864828D01*
Y864772D01*
X511634Y864661D01*
X511523Y864439D01*
X511412Y864106D01*
X511301Y863772D01*
X511079Y863383D01*
X510635Y862383D01*
X510079Y861328D01*
X509357Y860162D01*
X508524Y859051D01*
X507579Y857995D01*
X507468Y857884D01*
X507191Y857662D01*
X506746Y857328D01*
X506135Y856884D01*
X505357Y856384D01*
X504468Y855884D01*
X503358Y855384D01*
X502135Y854940D01*
X502080D01*
X502024Y854884D01*
X501858D01*
X501691Y854829D01*
X501080Y854718D01*
X500302Y854551D01*
X499358Y854384D01*
X498191Y854273D01*
X496803Y854218D01*
X495303Y854162D01*
X480749D01*
Y892603D01*
X496081D01*
X496525Y892547D01*
D02*
G37*
G36*
X459807D02*
X460418D01*
X461029Y892492D01*
X461751D01*
X463195Y892325D01*
X464695Y892158D01*
X466084Y891880D01*
X466695Y891714D01*
X467250Y891547D01*
X467306D01*
X467361Y891492D01*
X467695Y891325D01*
X468195Y891047D01*
X468861Y890714D01*
X469583Y890158D01*
X470305Y889547D01*
X471028Y888770D01*
X471694Y887825D01*
Y887770D01*
X471750Y887714D01*
X471861Y887548D01*
X471972Y887381D01*
X472250Y886825D01*
X472583Y886103D01*
X472861Y885214D01*
X473138Y884215D01*
X473361Y883048D01*
X473416Y881826D01*
Y881770D01*
Y881659D01*
Y881382D01*
X473361Y881104D01*
Y880715D01*
X473305Y880326D01*
X473083Y879326D01*
X472805Y878160D01*
X472361Y876993D01*
X471694Y875771D01*
X471305Y875216D01*
X470861Y874660D01*
X470805Y874604D01*
X470750Y874549D01*
X470583Y874382D01*
X470361Y874216D01*
X470139Y873993D01*
X469805Y873716D01*
X469417Y873438D01*
X468972Y873160D01*
X468472Y872827D01*
X467861Y872549D01*
X467250Y872271D01*
X466584Y871994D01*
X465806Y871716D01*
X465028Y871494D01*
X464195Y871272D01*
X463251Y871105D01*
X463306D01*
X463362Y871049D01*
X463695Y870827D01*
X464139Y870549D01*
X464695Y870161D01*
X465362Y869660D01*
X466028Y869161D01*
X466750Y868549D01*
X467361Y867883D01*
X467417Y867827D01*
X467695Y867550D01*
X468028Y867105D01*
X468528Y866439D01*
X469194Y865605D01*
X469528Y865050D01*
X469917Y864494D01*
X470361Y863883D01*
X470805Y863217D01*
X471305Y862439D01*
X471805Y861661D01*
X476527Y854162D01*
X467195D01*
X461640Y862495D01*
X461584Y862550D01*
X461529Y862717D01*
X461362Y862939D01*
X461140Y863217D01*
X460918Y863550D01*
X460640Y863995D01*
X460029Y864883D01*
X459306Y865883D01*
X458640Y866772D01*
X458029Y867605D01*
X457751Y867883D01*
X457529Y868161D01*
X457473Y868216D01*
X457362Y868327D01*
X457140Y868549D01*
X456862Y868827D01*
X456474Y869050D01*
X456085Y869327D01*
X455640Y869549D01*
X455196Y869772D01*
X455140D01*
X454974Y869827D01*
X454696Y869938D01*
X454252Y869994D01*
X453696Y870105D01*
X453029Y870161D01*
X452252Y870216D01*
X449752D01*
Y854162D01*
X441975D01*
Y892603D01*
X459306D01*
X459807Y892547D01*
D02*
G37*
G36*
X437809Y854162D02*
X429421D01*
X426088Y862884D01*
X410645D01*
X407479Y854162D01*
X399257D01*
X414145Y892603D01*
X422366D01*
X437809Y854162D01*
D02*
G37*
G36*
X309489D02*
X301101D01*
X297768Y862884D01*
X282325D01*
X279158Y854162D01*
X270937D01*
X285825Y892603D01*
X294046D01*
X309489Y854162D01*
D02*
G37*
G36*
X215165Y892547D02*
X215776D01*
X216387Y892492D01*
X217109D01*
X218554Y892325D01*
X220054Y892158D01*
X221442Y891880D01*
X222053Y891714D01*
X222609Y891547D01*
X222664D01*
X222720Y891492D01*
X223053Y891325D01*
X223553Y891047D01*
X224220Y890714D01*
X224942Y890158D01*
X225664Y889547D01*
X226386Y888770D01*
X227053Y887825D01*
Y887770D01*
X227108Y887714D01*
X227220Y887548D01*
X227331Y887381D01*
X227608Y886825D01*
X227942Y886103D01*
X228219Y885214D01*
X228497Y884215D01*
X228719Y883048D01*
X228775Y881826D01*
Y881770D01*
Y881659D01*
Y881382D01*
X228719Y881104D01*
Y880715D01*
X228664Y880326D01*
X228442Y879326D01*
X228164Y878160D01*
X227719Y876993D01*
X227053Y875771D01*
X226664Y875216D01*
X226220Y874660D01*
X226164Y874604D01*
X226108Y874549D01*
X225942Y874382D01*
X225720Y874216D01*
X225497Y873993D01*
X225164Y873716D01*
X224775Y873438D01*
X224331Y873160D01*
X223831Y872827D01*
X223220Y872549D01*
X222609Y872271D01*
X221942Y871994D01*
X221165Y871716D01*
X220387Y871494D01*
X219554Y871272D01*
X218609Y871105D01*
X218665D01*
X218720Y871049D01*
X219054Y870827D01*
X219498Y870549D01*
X220054Y870161D01*
X220720Y869660D01*
X221387Y869161D01*
X222109Y868549D01*
X222720Y867883D01*
X222775Y867827D01*
X223053Y867550D01*
X223386Y867105D01*
X223887Y866439D01*
X224553Y865605D01*
X224886Y865050D01*
X225275Y864494D01*
X225720Y863883D01*
X226164Y863217D01*
X226664Y862439D01*
X227164Y861661D01*
X231886Y854162D01*
X222553D01*
X216998Y862495D01*
X216943Y862550D01*
X216887Y862717D01*
X216721Y862939D01*
X216498Y863217D01*
X216276Y863550D01*
X215998Y863995D01*
X215387Y864883D01*
X214665Y865883D01*
X213999Y866772D01*
X213388Y867605D01*
X213110Y867883D01*
X212888Y868161D01*
X212832Y868216D01*
X212721Y868327D01*
X212499Y868549D01*
X212221Y868827D01*
X211832Y869050D01*
X211443Y869327D01*
X210999Y869549D01*
X210555Y869772D01*
X210499D01*
X210332Y869827D01*
X210055Y869938D01*
X209610Y869994D01*
X209055Y870105D01*
X208388Y870161D01*
X207610Y870216D01*
X205111D01*
Y854162D01*
X197334D01*
Y892603D01*
X214665D01*
X215165Y892547D01*
D02*
G37*
G36*
X152116Y886103D02*
X133507D01*
Y876993D01*
X149561D01*
Y870494D01*
X133507D01*
Y854162D01*
X125730D01*
Y892603D01*
X152116D01*
Y886103D01*
D02*
G37*
%LPC*%
G36*
X493581D02*
X488526D01*
Y860661D01*
X495358D01*
X496081Y860717D01*
X496858D01*
X497636Y860828D01*
X498358Y860884D01*
X498969Y860995D01*
X499080D01*
X499302Y861106D01*
X499636Y861217D01*
X500080Y861384D01*
X500580Y861606D01*
X501080Y861884D01*
X501580Y862217D01*
X502080Y862606D01*
X502135Y862661D01*
X502302Y862828D01*
X502524Y863106D01*
X502802Y863494D01*
X503080Y863995D01*
X503469Y864605D01*
X503746Y865383D01*
X504080Y866272D01*
Y866328D01*
X504135Y866383D01*
Y866550D01*
X504191Y866772D01*
X504302Y866994D01*
X504357Y867327D01*
X504524Y868161D01*
X504635Y869161D01*
X504802Y870327D01*
X504857Y871771D01*
X504913Y873327D01*
Y873382D01*
Y873549D01*
Y873771D01*
Y874049D01*
Y874438D01*
X504857Y874882D01*
X504802Y875827D01*
X504691Y876938D01*
X504580Y878104D01*
X504357Y879160D01*
X504080Y880160D01*
Y880215D01*
X504024Y880271D01*
X503913Y880548D01*
X503746Y880993D01*
X503524Y881548D01*
X503191Y882104D01*
X502802Y882715D01*
X502358Y883326D01*
X501858Y883881D01*
X501802Y883937D01*
X501636Y884103D01*
X501302Y884326D01*
X500913Y884603D01*
X500358Y884937D01*
X499747Y885214D01*
X499080Y885492D01*
X498302Y885714D01*
X498247D01*
X497969Y885770D01*
X497525Y885826D01*
X496914Y885937D01*
X496525D01*
X496025Y885992D01*
X495525D01*
X494969Y886048D01*
X494303D01*
X493581Y886103D01*
D02*
G37*
G36*
X458640D02*
X449752D01*
Y876327D01*
X457307D01*
X458418Y876382D01*
X459584Y876438D01*
X460751Y876493D01*
X461251Y876549D01*
X461695Y876604D01*
X462140Y876715D01*
X462417Y876771D01*
X462473D01*
X462640Y876882D01*
X462917Y876993D01*
X463195Y877160D01*
X463917Y877660D01*
X464250Y877993D01*
X464584Y878382D01*
X464639Y878437D01*
X464695Y878604D01*
X464861Y878826D01*
X465028Y879160D01*
X465139Y879604D01*
X465306Y880104D01*
X465362Y880659D01*
X465417Y881270D01*
Y881382D01*
Y881604D01*
X465362Y881937D01*
X465306Y882381D01*
X465139Y882881D01*
X464973Y883381D01*
X464695Y883937D01*
X464362Y884381D01*
X464306Y884437D01*
X464195Y884603D01*
X463917Y884770D01*
X463584Y885048D01*
X463195Y885326D01*
X462695Y885548D01*
X462084Y885770D01*
X461417Y885937D01*
X461362D01*
X461195Y885992D01*
X460862D01*
X460362Y886048D01*
X459140D01*
X458640Y886103D01*
D02*
G37*
G36*
X418200Y883659D02*
X412978Y869383D01*
X423588D01*
X418200Y883659D01*
D02*
G37*
G36*
X289880D02*
X284658Y869383D01*
X295268D01*
X289880Y883659D01*
D02*
G37*
G36*
X213999Y886103D02*
X205111D01*
Y876327D01*
X212665D01*
X213776Y876382D01*
X214943Y876438D01*
X216110Y876493D01*
X216609Y876549D01*
X217054Y876604D01*
X217498Y876715D01*
X217776Y876771D01*
X217832D01*
X217998Y876882D01*
X218276Y876993D01*
X218554Y877160D01*
X219276Y877660D01*
X219609Y877993D01*
X219942Y878382D01*
X219998Y878437D01*
X220054Y878604D01*
X220220Y878826D01*
X220387Y879160D01*
X220498Y879604D01*
X220665Y880104D01*
X220720Y880659D01*
X220776Y881270D01*
Y881382D01*
Y881604D01*
X220720Y881937D01*
X220665Y882381D01*
X220498Y882881D01*
X220331Y883381D01*
X220054Y883937D01*
X219720Y884381D01*
X219665Y884437D01*
X219554Y884603D01*
X219276Y884770D01*
X218943Y885048D01*
X218554Y885326D01*
X218054Y885548D01*
X217443Y885770D01*
X216776Y885937D01*
X216721D01*
X216554Y885992D01*
X216221D01*
X215721Y886048D01*
X214499D01*
X213999Y886103D01*
D02*
G37*
%LPD*%
D23*
X558038Y771398D02*
Y775462D01*
X562102D01*
Y771398D01*
X558038D01*
X583438D02*
Y775462D01*
X587502D01*
Y771398D01*
X583438D01*
X608838D02*
Y775462D01*
X612902D01*
Y771398D01*
X608838D01*
X634238D02*
Y775462D01*
X638302D01*
Y771398D01*
X634238D01*
X659638D02*
Y775462D01*
X663702D01*
Y771398D01*
X659638D01*
X685038D02*
Y775462D01*
X689102D01*
Y771398D01*
X685038D01*
X710438D02*
Y775462D01*
X714502D01*
Y771398D01*
X710438D01*
X735838D02*
Y775462D01*
X739902D01*
Y771398D01*
X735838D01*
X984758Y258318D02*
Y262382D01*
X988822D01*
Y258318D01*
X984758D01*
X1010158D02*
Y262382D01*
X1014222D01*
Y258318D01*
X1010158D01*
X1035558D02*
Y262382D01*
X1039622D01*
Y258318D01*
X1035558D01*
X1060958D02*
Y262382D01*
X1065022D01*
Y258318D01*
X1060958D01*
X1086358D02*
Y262382D01*
X1090422D01*
Y258318D01*
X1086358D01*
X1111758D02*
Y262382D01*
X1115822D01*
Y258318D01*
X1111758D01*
X1114298Y878078D02*
Y882142D01*
X1118362D01*
Y878078D01*
X1114298D01*
X1139698D02*
Y882142D01*
X1143762D01*
Y878078D01*
X1139698D01*
X1165098D02*
Y882142D01*
X1169162D01*
Y878078D01*
X1165098D01*
X1190498D02*
Y882142D01*
X1194562D01*
Y878078D01*
X1190498D01*
X1215898D02*
Y882142D01*
X1219962D01*
Y878078D01*
X1215898D01*
X1241298D02*
Y882142D01*
X1245362D01*
Y878078D01*
X1241298D01*
X1266698D02*
Y882142D01*
X1270762D01*
Y878078D01*
X1266698D01*
X1292098D02*
Y882142D01*
X1296162D01*
Y878078D01*
X1292098D01*
X1139698Y193548D02*
Y197612D01*
X1143762D01*
Y193548D01*
X1139698D01*
X1317498D02*
Y197612D01*
X1321562D01*
Y193548D01*
X1317498D01*
X1292098D02*
Y197612D01*
X1296162D01*
Y193548D01*
X1292098D01*
X1266698D02*
Y197612D01*
X1270762D01*
Y193548D01*
X1266698D01*
X1241298D02*
Y197612D01*
X1245362D01*
Y193548D01*
X1241298D01*
X1215898D02*
Y197612D01*
X1219962D01*
Y193548D01*
X1215898D01*
X1190498D02*
Y197612D01*
X1194562D01*
Y193548D01*
X1190498D01*
X1165098D02*
Y197612D01*
X1169162D01*
Y193548D01*
X1165098D01*
X1114298D02*
Y197612D01*
X1118362D01*
Y193548D01*
X1114298D01*
X1388618Y300228D02*
Y304292D01*
X1392682D01*
Y300228D01*
X1388618D01*
X1414018D02*
Y304292D01*
X1418082D01*
Y300228D01*
X1414018D01*
X1388618Y274828D02*
Y278892D01*
X1392682D01*
Y274828D01*
X1388618D01*
X1414018D02*
Y278892D01*
X1418082D01*
Y274828D01*
X1414018D01*
X1388618Y249428D02*
Y253492D01*
X1392682D01*
Y249428D01*
X1388618D01*
X1414018D02*
Y253492D01*
X1418082D01*
Y249428D01*
X1414018D01*
X1383538Y401828D02*
Y405892D01*
X1387602D01*
Y401828D01*
X1383538D01*
Y579628D02*
Y583692D01*
X1387602D01*
Y579628D01*
X1383538D01*
Y554228D02*
Y558292D01*
X1387602D01*
Y554228D01*
X1383538D01*
Y528828D02*
Y532892D01*
X1387602D01*
Y528828D01*
X1383538D01*
Y503428D02*
Y507492D01*
X1387602D01*
Y503428D01*
X1383538D01*
Y478028D02*
Y482092D01*
X1387602D01*
Y478028D01*
X1383538D01*
Y452628D02*
Y456692D01*
X1387602D01*
Y452628D01*
X1383538D01*
Y427228D02*
Y431292D01*
X1387602D01*
Y427228D01*
X1383538D01*
Y376428D02*
Y380492D01*
X1387602D01*
Y376428D01*
X1383538D01*
X892048Y878078D02*
Y882142D01*
X896112D01*
Y878078D01*
X892048D01*
X917448D02*
Y882142D01*
X921512D01*
Y878078D01*
X917448D01*
X942848D02*
Y882142D01*
X946912D01*
Y878078D01*
X942848D01*
X968248D02*
Y882142D01*
X972312D01*
Y878078D01*
X968248D01*
X993648D02*
Y882142D01*
X997712D01*
Y878078D01*
X993648D01*
X1019048D02*
Y882142D01*
X1023112D01*
Y878078D01*
X1019048D01*
X1044448D02*
Y882142D01*
X1048512D01*
Y878078D01*
X1044448D01*
X1069848D02*
Y882142D01*
X1073912D01*
Y878078D01*
X1069848D01*
X1010158Y150368D02*
Y154432D01*
X1014222D01*
Y150368D01*
X1010158D01*
X1187958D02*
Y154432D01*
X1192022D01*
Y150368D01*
X1187958D01*
X1162558D02*
Y154432D01*
X1166622D01*
Y150368D01*
X1162558D01*
X1137158D02*
Y154432D01*
X1141222D01*
Y150368D01*
X1137158D01*
X1111758D02*
Y154432D01*
X1115822D01*
Y150368D01*
X1111758D01*
X1086358D02*
Y154432D01*
X1090422D01*
Y150368D01*
X1086358D01*
X1060958D02*
Y154432D01*
X1065022D01*
Y150368D01*
X1060958D01*
X1035558D02*
Y154432D01*
X1039622D01*
Y150368D01*
X1035558D01*
X984758D02*
Y154432D01*
X988822D01*
Y150368D01*
X984758D01*
X1383538Y749808D02*
Y753872D01*
X1387602D01*
Y749808D01*
X1383538D01*
Y800608D02*
Y804672D01*
X1387602D01*
Y800608D01*
X1383538D01*
Y775208D02*
Y779272D01*
X1387602D01*
Y775208D01*
X1383538D01*
Y724408D02*
Y728472D01*
X1387602D01*
Y724408D01*
X1383538D01*
Y699008D02*
Y703072D01*
X1387602D01*
Y699008D01*
X1383538D01*
Y673608D02*
Y677672D01*
X1387602D01*
Y673608D01*
X1383538D01*
Y648208D02*
Y652272D01*
X1387602D01*
Y648208D01*
X1383538D01*
X944118Y193548D02*
Y197612D01*
X948182D01*
Y193548D01*
X944118D01*
X918718D02*
Y197612D01*
X922782D01*
Y193548D01*
X918718D01*
X893318D02*
Y197612D01*
X897382D01*
Y193548D01*
X893318D01*
X867918D02*
Y197612D01*
X871982D01*
Y193548D01*
X867918D01*
X842518D02*
Y197612D01*
X846582D01*
Y193548D01*
X842518D01*
X817118D02*
Y197612D01*
X821182D01*
Y193548D01*
X817118D01*
Y258318D02*
Y262382D01*
X821182D01*
Y258318D01*
X817118D01*
X842518D02*
Y262382D01*
X846582D01*
Y258318D01*
X842518D01*
X867918D02*
Y262382D01*
X871982D01*
Y258318D01*
X867918D01*
X893318D02*
Y262382D01*
X897382D01*
Y258318D01*
X893318D01*
X918718D02*
Y262382D01*
X922782D01*
Y258318D01*
X918718D01*
X944118D02*
Y262382D01*
X948182D01*
Y258318D01*
X944118D01*
X735838Y290068D02*
Y294132D01*
X739902D01*
Y290068D01*
X735838D01*
X710438D02*
Y294132D01*
X714502D01*
Y290068D01*
X710438D01*
X685038D02*
Y294132D01*
X689102D01*
Y290068D01*
X685038D01*
X659638D02*
Y294132D01*
X663702D01*
Y290068D01*
X659638D01*
X634238D02*
Y294132D01*
X638302D01*
Y290068D01*
X634238D01*
X608838D02*
Y294132D01*
X612902D01*
Y290068D01*
X608838D01*
X559308D02*
Y294132D01*
X563372D01*
Y290068D01*
X559308D01*
X533908D02*
Y294132D01*
X537972D01*
Y290068D01*
X533908D01*
X508508D02*
Y294132D01*
X512572D01*
Y290068D01*
X508508D01*
X483108D02*
Y294132D01*
X487172D01*
Y290068D01*
X483108D01*
X457708D02*
Y294132D01*
X461772D01*
Y290068D01*
X457708D01*
X432308D02*
Y294132D01*
X436372D01*
Y290068D01*
X432308D01*
X406908D02*
Y294132D01*
X410972D01*
Y290068D01*
X406908D01*
X381508D02*
Y294132D01*
X385572D01*
Y290068D01*
X381508D01*
X288798Y771398D02*
Y775462D01*
X292862D01*
Y771398D01*
X288798D01*
X314198D02*
Y775462D01*
X318262D01*
Y771398D01*
X314198D01*
X364998D02*
Y775462D01*
X369062D01*
Y771398D01*
X364998D01*
X390398D02*
Y775462D01*
X394462D01*
Y771398D01*
X390398D01*
X415798D02*
Y775462D01*
X419862D01*
Y771398D01*
X415798D01*
X441198D02*
Y775462D01*
X445262D01*
Y771398D01*
X441198D01*
X466598D02*
Y775462D01*
X470662D01*
Y771398D01*
X466598D01*
X491998D02*
Y775462D01*
X496062D01*
Y771398D01*
X491998D01*
X517398D02*
Y775462D01*
X521462D01*
Y771398D01*
X517398D01*
X339598D02*
Y775462D01*
X343662D01*
Y771398D01*
X339598D01*
D24*
X785622Y601980D02*
G03*
X785622Y601980I-2032J0D01*
G01*
X791972Y660400D02*
G03*
X791972Y660400I-2032J0D01*
G01*
X786892Y744220D02*
G03*
X786892Y744220I-2032J0D01*
G01*
X945642Y721360D02*
G03*
X945642Y721360I-2032J0D01*
G01*
X819912Y701040D02*
G03*
X819912Y701040I-2032J0D01*
G01*
X1000252Y623570D02*
G03*
X1000252Y623570I-2032J0D01*
G01*
X821182Y679450D02*
G03*
X821182Y679450I-2032J0D01*
G01*
X945642Y623570D02*
G03*
X945642Y623570I-2032J0D01*
G01*
X776732Y334010D02*
G03*
X776732Y334010I-2032J0D01*
G01*
X781812Y356870D02*
G03*
X781812Y356870I-2032J0D01*
G01*
X785622Y579120D02*
G03*
X785622Y579120I-2032J0D01*
G01*
Y558800D02*
G03*
X785622Y558800I-2032J0D01*
G01*
X756412Y515620D02*
G03*
X756412Y515620I-2032J0D01*
G01*
Y495300D02*
G03*
X756412Y495300I-2032J0D01*
G01*
X755142Y426720D02*
G03*
X755142Y426720I-2032J0D01*
G01*
X756412Y455930D02*
G03*
X756412Y455930I-2032J0D01*
G01*
Y403860D02*
G03*
X756412Y403860I-2032J0D01*
G01*
X987552Y349250D02*
G03*
X987552Y349250I-2032J0D01*
G01*
X949452Y236220D02*
G03*
X949452Y236220I-2032J0D01*
G01*
X1038352Y232410D02*
G03*
X1038352Y232410I-2032J0D01*
G01*
X1065022Y328930D02*
G03*
X1065022Y328930I-2032J0D01*
G01*
X1090422Y308610D02*
G03*
X1090422Y308610I-2032J0D01*
G01*
X1115822Y290830D02*
G03*
X1115822Y290830I-2032J0D01*
G01*
X778002Y309880D02*
G03*
X778002Y309880I-2032J0D01*
G01*
Y290830D02*
G03*
X778002Y290830I-2032J0D01*
G01*
X870077Y147955D02*
G03*
X870077Y147955I-2032J0D01*
G01*
X1264412Y321310D02*
G03*
X1264412Y321310I-2032J0D01*
G01*
X1299972Y351790D02*
G03*
X1299972Y351790I-2032J0D01*
G01*
X1194562Y520700D02*
G03*
X1194562Y520700I-2032J0D01*
G01*
X1218692Y492760D02*
G03*
X1218692Y492760I-2032J0D01*
G01*
X1245362Y466090D02*
G03*
X1245362Y466090I-2032J0D01*
G01*
M02*
