G04*
G04 #@! TF.GenerationSoftware,Altium Limited,Altium Designer,21.0.9 (235)*
G04*
G04 Layer_Color=16711935*
%FSLAX44Y44*%
%MOMM*%
G71*
G04*
G04 #@! TF.SameCoordinates,23A475E3-534D-4AA9-8CFC-B78DB4E5A132*
G04*
G04*
G04 #@! TF.FilePolarity,Positive*
G04*
G01*
G75*
%ADD38C,0.1000*%
D38*
X116730Y675150D02*
Y709150D01*
X134730Y675150D02*
Y709150D01*
X116730Y675150D02*
X134730D01*
X116730Y709150D02*
X134730D01*
X103820Y615783D02*
X137821D01*
X103820Y633783D02*
X137821D01*
Y615783D02*
Y633783D01*
X103820Y615783D02*
Y633783D01*
X113650Y520460D02*
X127650D01*
X113650Y490460D02*
X127650D01*
X113650D02*
Y520460D01*
X127650Y490460D02*
Y520460D01*
X103820Y579173D02*
X137821D01*
X103820Y561173D02*
X137821D01*
X103820D02*
Y579173D01*
X137821Y561173D02*
Y579173D01*
X134730Y747540D02*
Y781540D01*
X116730Y747540D02*
Y781540D01*
X134730D01*
X116730Y747540D02*
X134730D01*
X715790Y228490D02*
X749790D01*
X715790Y246490D02*
X749790D01*
Y228490D02*
Y246490D01*
X715790Y228490D02*
Y246490D01*
X616730Y228490D02*
X650730D01*
X616730Y246490D02*
X650730D01*
Y228490D02*
Y246490D01*
X616730Y228490D02*
Y246490D01*
X192550Y224680D02*
X226550D01*
X192550Y242680D02*
X226550D01*
Y224680D02*
Y242680D01*
X192550Y224680D02*
Y242680D01*
X491000Y228490D02*
X525000D01*
X491000Y246490D02*
X525000D01*
Y228490D02*
Y246490D01*
X491000Y228490D02*
Y246490D01*
X303840Y224680D02*
X337840D01*
X303840Y242680D02*
X337840D01*
Y224680D02*
Y242680D01*
X303840Y224680D02*
Y242680D01*
M02*
