G04*
G04 #@! TF.GenerationSoftware,Altium Limited,Altium Designer,21.0.9 (235)*
G04*
G04 Layer_Color=65535*
%FSLAX44Y44*%
%MOMM*%
G71*
G04*
G04 #@! TF.SameCoordinates,23A475E3-534D-4AA9-8CFC-B78DB4E5A132*
G04*
G04*
G04 #@! TF.FilePolarity,Positive*
G04*
G01*
G75*
%ADD10C,0.2500*%
%ADD11C,0.2000*%
%ADD12C,0.2032*%
%ADD13C,0.2540*%
D10*
X144750Y381620D02*
G03*
X144750Y381620I-1250J0D01*
G01*
X697220Y287670D02*
G03*
X697220Y287670I-1250J0D01*
G01*
X266670Y381620D02*
G03*
X266670Y381620I-1250J0D01*
G01*
X581630D02*
G03*
X581630Y381620I-1250J0D01*
G01*
X416550Y408320D02*
G03*
X416550Y408320I-1250J0D01*
G01*
X416530Y323200D02*
G03*
X416530Y323200I-1250J0D01*
G01*
X132650Y487460D02*
G03*
X132650Y487460I-1250J0D01*
G01*
D11*
X966470Y203200D02*
X1195070D01*
X966470Y177800D02*
Y203200D01*
Y177800D02*
X1195070D01*
Y203200D01*
X610870Y817880D02*
Y843280D01*
X223520D02*
X610870D01*
X204470D02*
X223520D01*
X204470Y817880D02*
Y843280D01*
Y817880D02*
X610870D01*
X966470Y311150D02*
X1118870D01*
X966470Y285750D02*
X1118870D01*
Y311150D01*
X966470Y285750D02*
Y311150D01*
X1096010Y247650D02*
X1324610D01*
X1096010Y222250D02*
Y247650D01*
Y222250D02*
X1324610D01*
Y247650D01*
X1365250Y403860D02*
Y632460D01*
Y403860D02*
X1390650D01*
Y632460D01*
X1365250D02*
X1390650D01*
X878840Y905510D02*
X1082040D01*
Y930910D01*
X878840D02*
X1082040D01*
X878840Y905510D02*
Y930910D01*
X1094740Y905510D02*
X1297940D01*
Y930910D01*
X1094740D02*
X1297940D01*
X1094740Y905510D02*
Y930910D01*
X1365250Y675640D02*
X1390650D01*
X1365250D02*
Y853440D01*
X1390650D01*
Y675640D02*
Y853440D01*
X1421130Y304377D02*
Y353060D01*
Y276860D02*
Y353060D01*
X1370330Y276860D02*
Y353060D01*
Y276860D02*
X1421130D01*
X1370330Y353060D02*
X1421130D01*
X130810Y376810D02*
X156210D01*
X130810Y291210D02*
Y376810D01*
Y291210D02*
X156210D01*
Y376810D01*
X683260Y292480D02*
X708660D01*
Y378080D01*
X683260D02*
X708660D01*
X683260Y292480D02*
Y378080D01*
X798830Y220980D02*
X951230D01*
X798830Y246380D02*
X951230D01*
X798830Y220980D02*
Y246380D01*
X951230Y220980D02*
Y246380D01*
X798830Y311150D02*
X951230D01*
X798830Y285750D02*
X951230D01*
Y311150D01*
X798830Y285750D02*
Y311150D01*
X166370Y886460D02*
X267970D01*
X166370D02*
Y911860D01*
X153670D02*
X166370D01*
X153670D02*
Y937260D01*
X267970D01*
Y886460D02*
Y937260D01*
X252730Y376810D02*
X278130D01*
X252730Y291210D02*
Y376810D01*
Y291210D02*
X278130D01*
Y376810D01*
X567690D02*
X593090D01*
X567690Y291210D02*
Y376810D01*
Y291210D02*
X593090D01*
Y376810D01*
X402590Y413130D02*
X427990D01*
Y498730D01*
X402590D02*
X427990D01*
X402590Y413130D02*
Y498730D01*
Y318390D02*
X427990D01*
X402590Y232790D02*
Y318390D01*
Y232790D02*
X427990D01*
Y318390D01*
X117730Y688150D02*
Y696150D01*
X133730Y688150D02*
Y696150D01*
X116820Y616783D02*
X124820D01*
X116820Y632783D02*
X124820D01*
X113650Y512460D02*
Y520460D01*
X123650D01*
X113650Y490460D02*
Y498460D01*
Y490460D02*
X123650D01*
X116820Y578173D02*
X124820D01*
X116820Y562173D02*
X124820D01*
X133730Y760540D02*
Y768540D01*
X117730Y760540D02*
Y768540D01*
X728790Y229490D02*
X736790D01*
X728790Y245490D02*
X736790D01*
X629730Y229490D02*
X637730D01*
X629730Y245490D02*
X637730D01*
X205550Y225680D02*
X213550D01*
X205550Y241680D02*
X213550D01*
X504000Y229490D02*
X512000D01*
X504000Y245490D02*
X512000D01*
X316840Y225680D02*
X324840D01*
X316840Y241680D02*
X324840D01*
D12*
X1413510Y269240D02*
Y273472D01*
Y271356D01*
X1400814D01*
X1402930Y269240D01*
X1388110Y272624D02*
Y264160D01*
X1379646Y272624D01*
X1377530D01*
X1375414Y270508D01*
Y266276D01*
X1377530Y264160D01*
X1400814Y364064D02*
Y355600D01*
X1407162D01*
X1405046Y359832D01*
Y361948D01*
X1407162Y364064D01*
X1411394D01*
X1413510Y361948D01*
Y357716D01*
X1411394Y355600D01*
X1375414Y364064D02*
X1377530Y359832D01*
X1381762Y355600D01*
X1385994D01*
X1388110Y357716D01*
Y361948D01*
X1385994Y364064D01*
X1383878D01*
X1381762Y361948D01*
Y355600D01*
D13*
X695068Y399411D02*
X692529Y401950D01*
X687450D01*
X684911Y399411D01*
Y396872D01*
X687450Y394333D01*
X692529D01*
X695068Y391793D01*
Y389254D01*
X692529Y386715D01*
X687450D01*
X684911Y389254D01*
X710303Y401950D02*
X705224Y399411D01*
X700146Y394333D01*
Y389254D01*
X702685Y386715D01*
X707764D01*
X710303Y389254D01*
Y391793D01*
X707764Y394333D01*
X700146D01*
X142491Y404364D02*
X139951Y406903D01*
X134873D01*
X132334Y404364D01*
Y401825D01*
X134873Y399286D01*
X139951D01*
X142491Y396746D01*
Y394207D01*
X139951Y391668D01*
X134873D01*
X132334Y394207D01*
X157726Y406903D02*
X147569D01*
Y399286D01*
X152647Y401825D01*
X155187D01*
X157726Y399286D01*
Y394207D01*
X155187Y391668D01*
X150108D01*
X147569Y394207D01*
X264411Y404364D02*
X261871Y406903D01*
X256793D01*
X254254Y404364D01*
Y401825D01*
X256793Y399286D01*
X261871D01*
X264411Y396746D01*
Y394207D01*
X261871Y391668D01*
X256793D01*
X254254Y394207D01*
X277107Y391668D02*
Y406903D01*
X269489Y399286D01*
X279646D01*
X414271Y345944D02*
X411731Y348483D01*
X406653D01*
X404114Y345944D01*
Y343405D01*
X406653Y340866D01*
X411731D01*
X414271Y338326D01*
Y335787D01*
X411731Y333248D01*
X406653D01*
X404114Y335787D01*
X419349Y345944D02*
X421888Y348483D01*
X426967D01*
X429506Y345944D01*
Y343405D01*
X426967Y340866D01*
X424427D01*
X426967D01*
X429506Y338326D01*
Y335787D01*
X426967Y333248D01*
X421888D01*
X419349Y335787D01*
X414398Y520061D02*
X411858Y522600D01*
X406780D01*
X404241Y520061D01*
Y517522D01*
X406780Y514982D01*
X411858D01*
X414398Y512443D01*
Y509904D01*
X411858Y507365D01*
X406780D01*
X404241Y509904D01*
X429633Y507365D02*
X419476D01*
X429633Y517522D01*
Y520061D01*
X427094Y522600D01*
X422015D01*
X419476Y520061D01*
X579371Y404364D02*
X576832Y406903D01*
X571753D01*
X569214Y404364D01*
Y401825D01*
X571753Y399286D01*
X576832D01*
X579371Y396746D01*
Y394207D01*
X576832Y391668D01*
X571753D01*
X569214Y394207D01*
X584449Y391668D02*
X589527D01*
X586988D01*
Y406903D01*
X584449Y404364D01*
X191516Y251714D02*
Y266949D01*
X199133D01*
X201673Y264410D01*
Y259331D01*
X199133Y256792D01*
X191516D01*
X196594D02*
X201673Y251714D01*
X206751Y254253D02*
X209290Y251714D01*
X214369D01*
X216908Y254253D01*
Y264410D01*
X214369Y266949D01*
X209290D01*
X206751Y264410D01*
Y261871D01*
X209290Y259331D01*
X216908D01*
X277152Y249936D02*
Y265171D01*
X284769D01*
X287309Y262632D01*
Y257554D01*
X284769Y255014D01*
X277152D01*
X282230D02*
X287309Y249936D01*
X292387Y262632D02*
X294926Y265171D01*
X300005D01*
X302544Y262632D01*
Y260093D01*
X300005Y257554D01*
X302544Y255014D01*
Y252475D01*
X300005Y249936D01*
X294926D01*
X292387Y252475D01*
Y255014D01*
X294926Y257554D01*
X292387Y260093D01*
Y262632D01*
X294926Y257554D02*
X300005D01*
X102787Y588207D02*
Y603442D01*
X110404D01*
X112943Y600903D01*
Y595825D01*
X110404Y593285D01*
X102787D01*
X107865D02*
X112943Y588207D01*
X118022Y603442D02*
X128178D01*
Y600903D01*
X118022Y590746D01*
Y588207D01*
X102787Y642817D02*
Y658052D01*
X110404D01*
X112943Y655513D01*
Y650435D01*
X110404Y647896D01*
X102787D01*
X107865D02*
X112943Y642817D01*
X128178Y658052D02*
X123100Y655513D01*
X118022Y650435D01*
Y645356D01*
X120561Y642817D01*
X125639D01*
X128178Y645356D01*
Y647896D01*
X125639Y650435D01*
X118022D01*
X155194Y945896D02*
Y961131D01*
X162812D01*
X165351Y958592D01*
Y953513D01*
X162812Y950974D01*
X155194D01*
X160272D02*
X165351Y945896D01*
X180586Y961131D02*
X170429D01*
Y953513D01*
X175507Y956053D01*
X178047D01*
X180586Y953513D01*
Y948435D01*
X178047Y945896D01*
X172968D01*
X170429Y948435D01*
X464312Y253746D02*
Y268981D01*
X471930D01*
X474469Y266442D01*
Y261364D01*
X471930Y258824D01*
X464312D01*
X469390D02*
X474469Y253746D01*
X487165D02*
Y268981D01*
X479547Y261364D01*
X489704D01*
X118114Y795023D02*
Y810257D01*
X125732D01*
X128271Y807718D01*
Y802640D01*
X125732Y800101D01*
X118114D01*
X123193D02*
X128271Y795023D01*
X133349Y807718D02*
X135888Y810257D01*
X140967D01*
X143506Y807718D01*
Y805179D01*
X140967Y802640D01*
X138427D01*
X140967D01*
X143506Y800101D01*
Y797562D01*
X140967Y795023D01*
X135888D01*
X133349Y797562D01*
X590042Y253746D02*
Y268981D01*
X597659D01*
X600199Y266442D01*
Y261364D01*
X597659Y258824D01*
X590042D01*
X595120D02*
X600199Y253746D01*
X615434D02*
X605277D01*
X615434Y263903D01*
Y266442D01*
X612895Y268981D01*
X607816D01*
X605277Y266442D01*
X689102Y253746D02*
Y268981D01*
X696720D01*
X699259Y266442D01*
Y261364D01*
X696720Y258824D01*
X689102D01*
X694180D02*
X699259Y253746D01*
X704337D02*
X709415D01*
X706876D01*
Y268981D01*
X704337Y266442D01*
X116837Y532129D02*
Y542286D01*
X114298Y544825D01*
X109219D01*
X106680Y542286D01*
Y532129D01*
X109219Y529590D01*
X114298D01*
X111758Y534668D02*
X116837Y529590D01*
X114298D02*
X116837Y532129D01*
X121915Y529590D02*
X126993D01*
X124454D01*
Y544825D01*
X121915Y542286D01*
X967994Y319786D02*
Y335021D01*
X975611D01*
X978151Y332482D01*
Y327403D01*
X975611Y324864D01*
X967994D01*
X983229Y319786D02*
X988307D01*
X985768D01*
Y335021D01*
X983229Y332482D01*
X995925Y319786D02*
X1001003D01*
X998464D01*
Y335021D01*
X995925Y332482D01*
X1096264Y939546D02*
Y954781D01*
X1103882D01*
X1106421Y952242D01*
Y947163D01*
X1103882Y944624D01*
X1096264D01*
X1111499Y939546D02*
X1116577D01*
X1114038D01*
Y954781D01*
X1111499Y952242D01*
X1124195D02*
X1126734Y954781D01*
X1131813D01*
X1134352Y952242D01*
Y942085D01*
X1131813Y939546D01*
X1126734D01*
X1124195Y942085D01*
Y952242D01*
X1097534Y256286D02*
Y271521D01*
X1105152D01*
X1107691Y268982D01*
Y263904D01*
X1105152Y261364D01*
X1097534D01*
X1112769Y258825D02*
X1115308Y256286D01*
X1120387D01*
X1122926Y258825D01*
Y268982D01*
X1120387Y271521D01*
X1115308D01*
X1112769Y268982D01*
Y266443D01*
X1115308Y263904D01*
X1122926D01*
X1371854Y373634D02*
Y388869D01*
X1379471D01*
X1382011Y386330D01*
Y381251D01*
X1379471Y378712D01*
X1371854D01*
X1387089Y386330D02*
X1389628Y388869D01*
X1394707D01*
X1397246Y386330D01*
Y383791D01*
X1394707Y381251D01*
X1397246Y378712D01*
Y376173D01*
X1394707Y373634D01*
X1389628D01*
X1387089Y376173D01*
Y378712D01*
X1389628Y381251D01*
X1387089Y383791D01*
Y386330D01*
X1389628Y381251D02*
X1394707D01*
X1366901Y640969D02*
Y656204D01*
X1374518D01*
X1377058Y653665D01*
Y648587D01*
X1374518Y646047D01*
X1366901D01*
X1382136Y656204D02*
X1392293D01*
Y653665D01*
X1382136Y643508D01*
Y640969D01*
X880364Y939546D02*
Y954781D01*
X887981D01*
X890521Y952242D01*
Y947163D01*
X887981Y944624D01*
X880364D01*
X905756Y954781D02*
X900677Y952242D01*
X895599Y947163D01*
Y942085D01*
X898138Y939546D01*
X903217D01*
X905756Y942085D01*
Y944624D01*
X903217Y947163D01*
X895599D01*
X967994Y211836D02*
Y227071D01*
X975611D01*
X978151Y224532D01*
Y219454D01*
X975611Y216914D01*
X967994D01*
X993386Y227071D02*
X983229D01*
Y219454D01*
X988307Y221993D01*
X990847D01*
X993386Y219454D01*
Y214375D01*
X990847Y211836D01*
X985768D01*
X983229Y214375D01*
X1366774Y862076D02*
Y877311D01*
X1374391D01*
X1376931Y874772D01*
Y869694D01*
X1374391Y867154D01*
X1366774D01*
X1389627Y862076D02*
Y877311D01*
X1382009Y869694D01*
X1392166D01*
X800354Y255016D02*
Y270251D01*
X807971D01*
X810511Y267712D01*
Y262633D01*
X807971Y260094D01*
X800354D01*
X815589Y267712D02*
X818128Y270251D01*
X823207D01*
X825746Y267712D01*
Y265173D01*
X823207Y262633D01*
X820667D01*
X823207D01*
X825746Y260094D01*
Y257555D01*
X823207Y255016D01*
X818128D01*
X815589Y257555D01*
X800354Y319786D02*
Y335021D01*
X807971D01*
X810511Y332482D01*
Y327403D01*
X807971Y324864D01*
X800354D01*
X825746Y319786D02*
X815589D01*
X825746Y329943D01*
Y332482D01*
X823207Y335021D01*
X818128D01*
X815589Y332482D01*
X205994Y851916D02*
Y867151D01*
X213612D01*
X216151Y864612D01*
Y859533D01*
X213612Y856994D01*
X205994D01*
X221229Y851916D02*
X226307D01*
X223768D01*
Y867151D01*
X221229Y864612D01*
X117856Y735579D02*
Y720344D01*
X125473D01*
X128013Y722883D01*
Y733040D01*
X125473Y735579D01*
X117856D01*
X133091Y720344D02*
X138169D01*
X135630D01*
Y735579D01*
X133091Y733040D01*
M02*
