G04*
G04 #@! TF.GenerationSoftware,Altium Limited,Altium Designer,21.0.9 (235)*
G04*
G04 Layer_Color=2752767*
%FSLAX44Y44*%
%MOMM*%
G71*
G04*
G04 #@! TF.SameCoordinates,23A475E3-534D-4AA9-8CFC-B78DB4E5A132*
G04*
G04*
G04 #@! TF.FilePolarity,Positive*
G04*
G01*
G75*
%ADD39C,0.0508*%
%ADD40C,0.0677*%
G36*
X766595Y152238D02*
X767409Y152163D01*
X768298Y152015D01*
X769335Y151867D01*
X770446Y151645D01*
X771631Y151349D01*
X772890Y150978D01*
X774149Y150534D01*
X775483Y149942D01*
X776742Y149349D01*
X777927Y148608D01*
X779186Y147719D01*
X780297Y146757D01*
X780371D01*
X780445Y146608D01*
X780667Y146386D01*
X780890Y146164D01*
X781186Y145794D01*
X781482Y145349D01*
X782297Y144312D01*
X783111Y142979D01*
X784000Y141350D01*
X784815Y139498D01*
X785556Y137350D01*
X775334Y134906D01*
Y134980D01*
X775260Y135054D01*
Y135276D01*
X775112Y135573D01*
X774890Y136239D01*
X774520Y137128D01*
X774001Y138165D01*
X773335Y139202D01*
X772446Y140239D01*
X771483Y141128D01*
X771335Y141202D01*
X770965Y141498D01*
X770372Y141868D01*
X769557Y142313D01*
X768520Y142757D01*
X767335Y143127D01*
X766002Y143424D01*
X764521Y143498D01*
X764002D01*
X763558Y143424D01*
X763113Y143350D01*
X762521Y143275D01*
X761262Y142979D01*
X759781Y142461D01*
X758225Y141720D01*
X757410Y141276D01*
X756670Y140757D01*
X755929Y140091D01*
X755263Y139350D01*
Y139276D01*
X755114Y139128D01*
X754966Y138906D01*
X754744Y138535D01*
X754448Y138091D01*
X754152Y137572D01*
X753855Y136906D01*
X753559Y136165D01*
X753189Y135276D01*
X752892Y134313D01*
X752596Y133202D01*
X752300Y132017D01*
X752078Y130684D01*
X751929Y129277D01*
X751855Y127722D01*
X751781Y126018D01*
Y125944D01*
Y125574D01*
Y125055D01*
X751855Y124463D01*
Y123648D01*
X752004Y122685D01*
X752078Y121722D01*
X752226Y120611D01*
X752670Y118315D01*
X753263Y116019D01*
X753633Y114908D01*
X754152Y113871D01*
X754670Y112908D01*
X755263Y112094D01*
X755337Y112020D01*
X755411Y111945D01*
X755633Y111723D01*
X755929Y111427D01*
X756670Y110834D01*
X757707Y110094D01*
X758966Y109279D01*
X760521Y108687D01*
X762299Y108168D01*
X763262Y108094D01*
X764299Y108020D01*
X764669D01*
X764965Y108094D01*
X765780Y108168D01*
X766743Y108316D01*
X767780Y108687D01*
X768965Y109131D01*
X770150Y109724D01*
X771335Y110612D01*
X771483Y110760D01*
X771853Y111131D01*
X772372Y111723D01*
X772964Y112612D01*
X773705Y113797D01*
X774372Y115204D01*
X775038Y116908D01*
X775631Y118908D01*
X785704Y115797D01*
Y115723D01*
X785630Y115427D01*
X785482Y114982D01*
X785259Y114390D01*
X784963Y113723D01*
X784667Y112908D01*
X784296Y112020D01*
X783852Y111057D01*
X782815Y109057D01*
X781482Y106983D01*
X779853Y104983D01*
X778964Y104094D01*
X778001Y103280D01*
X777927Y103206D01*
X777779Y103132D01*
X777482Y102909D01*
X777038Y102613D01*
X776520Y102317D01*
X775853Y102021D01*
X775112Y101650D01*
X774298Y101280D01*
X773335Y100836D01*
X772298Y100465D01*
X771187Y100169D01*
X770002Y99873D01*
X768743Y99576D01*
X767335Y99354D01*
X765928Y99280D01*
X764373Y99206D01*
X763928D01*
X763410Y99280D01*
X762669Y99354D01*
X761854Y99428D01*
X760817Y99576D01*
X759706Y99799D01*
X758447Y100095D01*
X757188Y100465D01*
X755855Y100910D01*
X754448Y101502D01*
X753040Y102169D01*
X751633Y102909D01*
X750226Y103872D01*
X748893Y104909D01*
X747634Y106168D01*
X747560Y106242D01*
X747337Y106465D01*
X747041Y106909D01*
X746597Y107427D01*
X746152Y108168D01*
X745560Y108983D01*
X744967Y110020D01*
X744375Y111205D01*
X743782Y112464D01*
X743190Y113871D01*
X742597Y115501D01*
X742153Y117204D01*
X741708Y118982D01*
X741412Y120982D01*
X741190Y123055D01*
X741116Y125277D01*
Y125351D01*
Y125426D01*
Y125870D01*
X741190Y126537D01*
Y127425D01*
X741338Y128462D01*
X741486Y129721D01*
X741634Y131055D01*
X741930Y132610D01*
X742301Y134165D01*
X742745Y135795D01*
X743264Y137424D01*
X743930Y139128D01*
X744671Y140757D01*
X745560Y142313D01*
X746523Y143794D01*
X747708Y145201D01*
X747782Y145275D01*
X748004Y145498D01*
X748374Y145868D01*
X748893Y146312D01*
X749559Y146831D01*
X750374Y147423D01*
X751263Y148090D01*
X752374Y148756D01*
X753559Y149423D01*
X754818Y150090D01*
X756299Y150682D01*
X757781Y151201D01*
X759484Y151645D01*
X761188Y152015D01*
X763113Y152238D01*
X765039Y152312D01*
X765928D01*
X766595Y152238D01*
D02*
G37*
G36*
X484254Y121574D02*
Y100095D01*
X473884D01*
Y121648D01*
X455145Y151349D01*
X467218D01*
X479291Y131055D01*
X491068Y151349D01*
X502992D01*
X484254Y121574D01*
D02*
G37*
G36*
X311383Y131351D02*
X331751Y100095D01*
X318345D01*
X304198Y124166D01*
X295829Y115575D01*
Y100095D01*
X285459D01*
Y151349D01*
X295829D01*
Y128536D01*
X316863Y151349D01*
X330788D01*
X311383Y131351D01*
D02*
G37*
G36*
X429593Y100095D02*
X419223D01*
X398411Y133869D01*
Y100095D01*
X388856D01*
Y151349D01*
X398855D01*
X420038Y116834D01*
Y151349D01*
X429593D01*
Y100095D01*
D02*
G37*
G36*
X732450D02*
X722896D01*
X722821Y140387D01*
X712748Y100095D01*
X702749D01*
X692676Y140387D01*
Y100095D01*
X683122D01*
Y151349D01*
X698602D01*
X707786Y116315D01*
X716896Y151349D01*
X732450D01*
Y100095D01*
D02*
G37*
G36*
X222799Y124314D02*
Y124241D01*
Y123944D01*
Y123426D01*
Y122833D01*
Y122093D01*
X222725Y121204D01*
Y120241D01*
Y119278D01*
X222577Y117130D01*
X222429Y114908D01*
X222355Y113945D01*
X222207Y112982D01*
X222059Y112094D01*
X221910Y111279D01*
Y111205D01*
X221836Y111131D01*
Y110908D01*
X221762Y110686D01*
X221540Y109946D01*
X221244Y109057D01*
X220799Y108020D01*
X220281Y106983D01*
X219614Y105872D01*
X218800Y104835D01*
X218725Y104687D01*
X218429Y104391D01*
X217911Y103946D01*
X217244Y103354D01*
X216355Y102687D01*
X215318Y102021D01*
X214133Y101280D01*
X212800Y100687D01*
X212726D01*
X212652Y100613D01*
X212430Y100539D01*
X212134Y100465D01*
X211763Y100317D01*
X211319Y100169D01*
X210726Y100021D01*
X210134Y99947D01*
X208727Y99650D01*
X207023Y99354D01*
X205097Y99206D01*
X202949Y99132D01*
X201764D01*
X201098Y99206D01*
X200431D01*
X199616Y99280D01*
X198802Y99354D01*
X197024Y99502D01*
X195172Y99799D01*
X193321Y100243D01*
X192506Y100465D01*
X191765Y100761D01*
X191691D01*
X191617Y100836D01*
X191173Y101058D01*
X190432Y101428D01*
X189617Y101946D01*
X188654Y102613D01*
X187618Y103354D01*
X186655Y104242D01*
X185766Y105205D01*
X185692Y105353D01*
X185396Y105650D01*
X185025Y106242D01*
X184581Y106983D01*
X184137Y107798D01*
X183618Y108761D01*
X183248Y109797D01*
X182877Y110908D01*
Y110983D01*
X182803Y111131D01*
Y111353D01*
X182729Y111723D01*
X182655Y112168D01*
X182581Y112760D01*
X182507Y113427D01*
X182433Y114167D01*
X182285Y115056D01*
X182211Y116019D01*
X182137Y117056D01*
X182063Y118241D01*
X181989Y119500D01*
Y120907D01*
X181915Y122389D01*
Y123944D01*
Y151349D01*
X192284D01*
Y123500D01*
Y123426D01*
Y123203D01*
Y122907D01*
Y122463D01*
Y121870D01*
Y121278D01*
X192358Y119945D01*
Y118463D01*
X192432Y117056D01*
X192506Y116389D01*
Y115797D01*
X192580Y115352D01*
X192654Y114908D01*
Y114760D01*
X192802Y114390D01*
X193025Y113797D01*
X193321Y113056D01*
X193691Y112242D01*
X194284Y111427D01*
X194950Y110538D01*
X195765Y109797D01*
X195913Y109724D01*
X196209Y109501D01*
X196802Y109205D01*
X197542Y108909D01*
X198579Y108538D01*
X199764Y108242D01*
X201098Y108020D01*
X202653Y107946D01*
X203394D01*
X204134Y108020D01*
X205097Y108168D01*
X206208Y108390D01*
X207245Y108687D01*
X208356Y109131D01*
X209245Y109724D01*
X209319Y109797D01*
X209615Y110020D01*
X209986Y110390D01*
X210430Y110908D01*
X210875Y111575D01*
X211319Y112316D01*
X211689Y113131D01*
X211911Y114093D01*
Y114242D01*
X211985Y114612D01*
X212059Y115278D01*
X212208Y116167D01*
Y116760D01*
X212282Y117426D01*
Y118167D01*
X212356Y118908D01*
Y119796D01*
X212430Y120759D01*
Y121796D01*
Y122907D01*
Y151349D01*
X222799D01*
Y124314D01*
D02*
G37*
G36*
X804665Y100095D02*
X794296D01*
Y151349D01*
X804665D01*
Y100095D01*
D02*
G37*
G36*
X673345D02*
X662976D01*
Y151349D01*
X673345D01*
Y100095D01*
D02*
G37*
G36*
X632683Y151275D02*
X634090Y151201D01*
X635645Y151127D01*
X637275Y150904D01*
X638830Y150682D01*
X640237Y150312D01*
X640311D01*
X640460Y150238D01*
X640682Y150164D01*
X640978Y150090D01*
X641867Y149719D01*
X642904Y149201D01*
X644089Y148534D01*
X645422Y147719D01*
X646681Y146757D01*
X647940Y145572D01*
X648014D01*
X648088Y145423D01*
X648459Y144979D01*
X649051Y144238D01*
X649718Y143275D01*
X650533Y142091D01*
X651347Y140683D01*
X652162Y139054D01*
X652829Y137276D01*
Y137202D01*
X652903Y137054D01*
X652977Y136758D01*
X653125Y136387D01*
X653199Y135943D01*
X653347Y135350D01*
X653495Y134684D01*
X653717Y133943D01*
X653866Y133128D01*
X654014Y132166D01*
X654162Y131203D01*
X654236Y130092D01*
X654458Y127796D01*
X654532Y125203D01*
Y125129D01*
Y124907D01*
Y124611D01*
Y124166D01*
X654458Y123574D01*
Y122981D01*
X654384Y122241D01*
X654310Y121426D01*
X654162Y119722D01*
X653866Y117945D01*
X653421Y116093D01*
X652903Y114316D01*
Y114242D01*
X652829Y114093D01*
X652681Y113797D01*
X652532Y113353D01*
X652384Y112908D01*
X652088Y112390D01*
X651496Y111057D01*
X650755Y109649D01*
X649792Y108094D01*
X648681Y106613D01*
X647422Y105205D01*
X647274Y105057D01*
X646903Y104761D01*
X646311Y104317D01*
X645496Y103724D01*
X644459Y103057D01*
X643274Y102391D01*
X641793Y101724D01*
X640163Y101132D01*
X640089D01*
X640015Y101058D01*
X639793D01*
X639571Y100984D01*
X638756Y100836D01*
X637719Y100613D01*
X636460Y100391D01*
X634905Y100243D01*
X633053Y100169D01*
X631053Y100095D01*
X611648D01*
Y151349D01*
X632090D01*
X632683Y151275D01*
D02*
G37*
G36*
X583725D02*
X584539D01*
X585354Y151201D01*
X586317D01*
X588243Y150978D01*
X590243Y150756D01*
X592094Y150386D01*
X592909Y150164D01*
X593650Y149942D01*
X593724D01*
X593798Y149867D01*
X594242Y149645D01*
X594909Y149275D01*
X595798Y148830D01*
X596760Y148090D01*
X597723Y147275D01*
X598686Y146238D01*
X599575Y144979D01*
Y144905D01*
X599649Y144831D01*
X599797Y144609D01*
X599945Y144387D01*
X600316Y143646D01*
X600760Y142683D01*
X601130Y141498D01*
X601501Y140165D01*
X601797Y138609D01*
X601871Y136980D01*
Y136906D01*
Y136758D01*
Y136387D01*
X601797Y136017D01*
Y135499D01*
X601723Y134980D01*
X601427Y133647D01*
X601056Y132092D01*
X600464Y130536D01*
X599575Y128907D01*
X599057Y128166D01*
X598464Y127425D01*
X598390Y127351D01*
X598316Y127277D01*
X598094Y127055D01*
X597797Y126833D01*
X597501Y126537D01*
X597057Y126166D01*
X596538Y125796D01*
X595946Y125426D01*
X595279Y124981D01*
X594464Y124611D01*
X593650Y124241D01*
X592761Y123870D01*
X591724Y123500D01*
X590687Y123203D01*
X589576Y122907D01*
X588317Y122685D01*
X588391D01*
X588465Y122611D01*
X588909Y122315D01*
X589502Y121944D01*
X590243Y121426D01*
X591131Y120759D01*
X592020Y120093D01*
X592983Y119278D01*
X593798Y118389D01*
X593872Y118315D01*
X594242Y117945D01*
X594687Y117352D01*
X595353Y116463D01*
X596242Y115352D01*
X596686Y114612D01*
X597205Y113871D01*
X597797Y113056D01*
X598390Y112168D01*
X599057Y111131D01*
X599723Y110094D01*
X606019Y100095D01*
X593576D01*
X586169Y111205D01*
X586095Y111279D01*
X586021Y111501D01*
X585799Y111797D01*
X585502Y112168D01*
X585206Y112612D01*
X584836Y113205D01*
X584021Y114390D01*
X583058Y115723D01*
X582169Y116908D01*
X581355Y118019D01*
X580984Y118389D01*
X580688Y118760D01*
X580614Y118834D01*
X580466Y118982D01*
X580169Y119278D01*
X579799Y119648D01*
X579281Y119945D01*
X578762Y120315D01*
X578170Y120611D01*
X577577Y120907D01*
X577503D01*
X577281Y120982D01*
X576911Y121130D01*
X576318Y121204D01*
X575577Y121352D01*
X574689Y121426D01*
X573652Y121500D01*
X570319D01*
Y100095D01*
X559949D01*
Y151349D01*
X583058D01*
X583725Y151275D01*
D02*
G37*
G36*
X554394Y100095D02*
X543210D01*
X538766Y111723D01*
X518176D01*
X513954Y100095D01*
X502992D01*
X522842Y151349D01*
X533804D01*
X554394Y100095D01*
D02*
G37*
G36*
X383301D02*
X372117D01*
X367673Y111723D01*
X347083D01*
X342861Y100095D01*
X331899D01*
X351749Y151349D01*
X362711D01*
X383301Y100095D01*
D02*
G37*
G36*
X257536Y151275D02*
X258351D01*
X259166Y151201D01*
X260129D01*
X262054Y150978D01*
X264054Y150756D01*
X265906Y150386D01*
X266721Y150164D01*
X267461Y149942D01*
X267535D01*
X267609Y149867D01*
X268054Y149645D01*
X268720Y149275D01*
X269609Y148830D01*
X270572Y148090D01*
X271535Y147275D01*
X272498Y146238D01*
X273386Y144979D01*
Y144905D01*
X273461Y144831D01*
X273609Y144609D01*
X273757Y144387D01*
X274127Y143646D01*
X274572Y142683D01*
X274942Y141498D01*
X275312Y140165D01*
X275609Y138609D01*
X275683Y136980D01*
Y136906D01*
Y136758D01*
Y136387D01*
X275609Y136017D01*
Y135499D01*
X275534Y134980D01*
X275238Y133647D01*
X274868Y132092D01*
X274275Y130536D01*
X273386Y128907D01*
X272868Y128166D01*
X272276Y127425D01*
X272201Y127351D01*
X272127Y127277D01*
X271905Y127055D01*
X271609Y126833D01*
X271313Y126537D01*
X270868Y126166D01*
X270350Y125796D01*
X269757Y125426D01*
X269091Y124981D01*
X268276Y124611D01*
X267461Y124241D01*
X266572Y123870D01*
X265536Y123500D01*
X264499Y123203D01*
X263388Y122907D01*
X262128Y122685D01*
X262202D01*
X262276Y122611D01*
X262721Y122315D01*
X263314Y121944D01*
X264054Y121426D01*
X264943Y120759D01*
X265832Y120093D01*
X266795Y119278D01*
X267609Y118389D01*
X267683Y118315D01*
X268054Y117945D01*
X268498Y117352D01*
X269165Y116463D01*
X270054Y115352D01*
X270498Y114612D01*
X271016Y113871D01*
X271609Y113056D01*
X272201Y112168D01*
X272868Y111131D01*
X273535Y110094D01*
X279830Y100095D01*
X267387D01*
X259981Y111205D01*
X259906Y111279D01*
X259832Y111501D01*
X259610Y111797D01*
X259314Y112168D01*
X259018Y112612D01*
X258647Y113205D01*
X257833Y114390D01*
X256870Y115723D01*
X255981Y116908D01*
X255166Y118019D01*
X254796Y118389D01*
X254500Y118760D01*
X254426Y118834D01*
X254277Y118982D01*
X253981Y119278D01*
X253611Y119648D01*
X253092Y119945D01*
X252574Y120315D01*
X251981Y120611D01*
X251389Y120907D01*
X251315D01*
X251092Y120982D01*
X250722Y121130D01*
X250130Y121204D01*
X249389Y121352D01*
X248500Y121426D01*
X247463Y121500D01*
X244130D01*
Y100095D01*
X233761D01*
Y151349D01*
X256870D01*
X257536Y151275D01*
D02*
G37*
G36*
X173471Y142683D02*
X148659D01*
Y130536D01*
X170064D01*
Y121870D01*
X148659D01*
Y100095D01*
X138289D01*
Y151349D01*
X173471D01*
Y142683D01*
D02*
G37*
%LPC*%
G36*
X628757D02*
X622017D01*
Y108761D01*
X631127D01*
X632090Y108835D01*
X633127D01*
X634164Y108983D01*
X635127Y109057D01*
X635942Y109205D01*
X636090D01*
X636386Y109353D01*
X636830Y109501D01*
X637423Y109724D01*
X638089Y110020D01*
X638756Y110390D01*
X639423Y110834D01*
X640089Y111353D01*
X640163Y111427D01*
X640386Y111649D01*
X640682Y112020D01*
X641052Y112538D01*
X641422Y113205D01*
X641941Y114019D01*
X642311Y115056D01*
X642756Y116241D01*
Y116315D01*
X642830Y116389D01*
Y116612D01*
X642904Y116908D01*
X643052Y117204D01*
X643126Y117649D01*
X643348Y118760D01*
X643496Y120093D01*
X643718Y121648D01*
X643793Y123574D01*
X643867Y125648D01*
Y125722D01*
Y125944D01*
Y126240D01*
Y126611D01*
Y127129D01*
X643793Y127722D01*
X643718Y128981D01*
X643570Y130462D01*
X643422Y132017D01*
X643126Y133425D01*
X642756Y134758D01*
Y134832D01*
X642682Y134906D01*
X642533Y135276D01*
X642311Y135869D01*
X642015Y136610D01*
X641571Y137350D01*
X641052Y138165D01*
X640460Y138980D01*
X639793Y139720D01*
X639719Y139794D01*
X639497Y140017D01*
X639052Y140313D01*
X638534Y140683D01*
X637793Y141128D01*
X636978Y141498D01*
X636090Y141868D01*
X635053Y142164D01*
X634979D01*
X634608Y142239D01*
X634016Y142313D01*
X633201Y142461D01*
X632683D01*
X632016Y142535D01*
X631349D01*
X630609Y142609D01*
X629720D01*
X628757Y142683D01*
D02*
G37*
G36*
X582169D02*
X570319D01*
Y129647D01*
X580392D01*
X581873Y129721D01*
X583428Y129795D01*
X584984Y129869D01*
X585650Y129944D01*
X586243Y130018D01*
X586836Y130166D01*
X587206Y130240D01*
X587280D01*
X587502Y130388D01*
X587872Y130536D01*
X588243Y130758D01*
X589206Y131425D01*
X589650Y131869D01*
X590094Y132388D01*
X590168Y132462D01*
X590243Y132684D01*
X590465Y132980D01*
X590687Y133425D01*
X590835Y134017D01*
X591057Y134684D01*
X591131Y135424D01*
X591205Y136239D01*
Y136387D01*
Y136684D01*
X591131Y137128D01*
X591057Y137721D01*
X590835Y138387D01*
X590613Y139054D01*
X590243Y139794D01*
X589798Y140387D01*
X589724Y140461D01*
X589576Y140683D01*
X589206Y140905D01*
X588761Y141276D01*
X588243Y141646D01*
X587576Y141942D01*
X586761Y142239D01*
X585873Y142461D01*
X585799D01*
X585576Y142535D01*
X585132D01*
X584465Y142609D01*
X582836D01*
X582169Y142683D01*
D02*
G37*
G36*
X528249Y139424D02*
X521287Y120389D01*
X535433D01*
X528249Y139424D01*
D02*
G37*
G36*
X357156D02*
X350193Y120389D01*
X364340D01*
X357156Y139424D01*
D02*
G37*
G36*
X255981Y142683D02*
X244130D01*
Y129647D01*
X254203D01*
X255685Y129721D01*
X257240Y129795D01*
X258795Y129869D01*
X259462Y129944D01*
X260054Y130018D01*
X260647Y130166D01*
X261017Y130240D01*
X261091D01*
X261314Y130388D01*
X261684Y130536D01*
X262054Y130758D01*
X263017Y131425D01*
X263462Y131869D01*
X263906Y132388D01*
X263980Y132462D01*
X264054Y132684D01*
X264276Y132980D01*
X264499Y133425D01*
X264647Y134017D01*
X264869Y134684D01*
X264943Y135424D01*
X265017Y136239D01*
Y136387D01*
Y136684D01*
X264943Y137128D01*
X264869Y137721D01*
X264647Y138387D01*
X264424Y139054D01*
X264054Y139794D01*
X263610Y140387D01*
X263536Y140461D01*
X263388Y140683D01*
X263017Y140905D01*
X262573Y141276D01*
X262054Y141646D01*
X261388Y141942D01*
X260573Y142239D01*
X259684Y142461D01*
X259610D01*
X259388Y142535D01*
X258944D01*
X258277Y142609D01*
X256647D01*
X255981Y142683D01*
D02*
G37*
%LPD*%
D39*
X1002538Y188468D02*
Y192532D01*
X1006602D01*
Y188468D01*
X1002538D01*
X1180338D02*
Y192532D01*
X1184402D01*
Y188468D01*
X1180338D01*
X1154938D02*
Y192532D01*
X1159002D01*
Y188468D01*
X1154938D01*
X1129538D02*
Y192532D01*
X1133602D01*
Y188468D01*
X1129538D01*
X1104138D02*
Y192532D01*
X1108202D01*
Y188468D01*
X1104138D01*
X1078738D02*
Y192532D01*
X1082802D01*
Y188468D01*
X1078738D01*
X1053338D02*
Y192532D01*
X1057402D01*
Y188468D01*
X1053338D01*
X1027938D02*
Y192532D01*
X1032002D01*
Y188468D01*
X1027938D01*
X977138D02*
Y192532D01*
X981202D01*
Y188468D01*
X977138D01*
X596138Y828548D02*
Y832612D01*
X600202D01*
Y828548D01*
X596138D01*
X570738D02*
Y832612D01*
X574802D01*
Y828548D01*
X570738D01*
X545338D02*
Y832612D01*
X549402D01*
Y828548D01*
X545338D01*
X519938D02*
Y832612D01*
X524002D01*
Y828548D01*
X519938D01*
X494538D02*
Y832612D01*
X498602D01*
Y828548D01*
X494538D01*
X469138D02*
Y832612D01*
X473202D01*
Y828548D01*
X469138D01*
X443738D02*
Y832612D01*
X447802D01*
Y828548D01*
X443738D01*
X418338D02*
Y832612D01*
X422402D01*
Y828548D01*
X418338D01*
X392938D02*
Y832612D01*
X397002D01*
Y828548D01*
X392938D01*
X367538D02*
Y832612D01*
X371602D01*
Y828548D01*
X367538D01*
X342138D02*
Y832612D01*
X346202D01*
Y828548D01*
X342138D01*
X316738D02*
Y832612D01*
X320802D01*
Y828548D01*
X316738D01*
X291338D02*
Y832612D01*
X295402D01*
Y828548D01*
X291338D01*
X265938D02*
Y832612D01*
X270002D01*
Y828548D01*
X265938D01*
X240538D02*
Y832612D01*
X244602D01*
Y828548D01*
X240538D01*
X215138D02*
Y832612D01*
X219202D01*
Y828548D01*
X215138D01*
X977138Y296418D02*
Y300482D01*
X981202D01*
Y296418D01*
X977138D01*
X1002538D02*
Y300482D01*
X1006602D01*
Y296418D01*
X1002538D01*
X1027938D02*
Y300482D01*
X1032002D01*
Y296418D01*
X1027938D01*
X1053338D02*
Y300482D01*
X1057402D01*
Y296418D01*
X1053338D01*
X1078738D02*
Y300482D01*
X1082802D01*
Y296418D01*
X1078738D01*
X1104138D02*
Y300482D01*
X1108202D01*
Y296418D01*
X1104138D01*
X1132078Y232918D02*
Y236982D01*
X1136142D01*
Y232918D01*
X1132078D01*
X1309878D02*
Y236982D01*
X1313942D01*
Y232918D01*
X1309878D01*
X1284478D02*
Y236982D01*
X1288542D01*
Y232918D01*
X1284478D01*
X1259078D02*
Y236982D01*
X1263142D01*
Y232918D01*
X1259078D01*
X1233678D02*
Y236982D01*
X1237742D01*
Y232918D01*
X1233678D01*
X1208278D02*
Y236982D01*
X1212342D01*
Y232918D01*
X1208278D01*
X1182878D02*
Y236982D01*
X1186942D01*
Y232918D01*
X1182878D01*
X1157478D02*
Y236982D01*
X1161542D01*
Y232918D01*
X1157478D01*
X1106678D02*
Y236982D01*
X1110742D01*
Y232918D01*
X1106678D01*
X1375918Y439928D02*
Y443992D01*
X1379982D01*
Y439928D01*
X1375918D01*
Y617728D02*
Y621792D01*
X1379982D01*
Y617728D01*
X1375918D01*
Y592328D02*
Y596392D01*
X1379982D01*
Y592328D01*
X1375918D01*
Y566928D02*
Y570992D01*
X1379982D01*
Y566928D01*
X1375918D01*
Y541528D02*
Y545592D01*
X1379982D01*
Y541528D01*
X1375918D01*
Y516128D02*
Y520192D01*
X1379982D01*
Y516128D01*
X1375918D01*
Y490728D02*
Y494792D01*
X1379982D01*
Y490728D01*
X1375918D01*
Y465328D02*
Y469392D01*
X1379982D01*
Y465328D01*
X1375918D01*
Y414528D02*
Y418592D01*
X1379982D01*
Y414528D01*
X1375918D01*
X889508Y916178D02*
Y920242D01*
X893572D01*
Y916178D01*
X889508D01*
X914908D02*
Y920242D01*
X918972D01*
Y916178D01*
X914908D01*
X940308D02*
Y920242D01*
X944372D01*
Y916178D01*
X940308D01*
X965708D02*
Y920242D01*
X969772D01*
Y916178D01*
X965708D01*
X991108D02*
Y920242D01*
X995172D01*
Y916178D01*
X991108D01*
X1016508D02*
Y920242D01*
X1020572D01*
Y916178D01*
X1016508D01*
X1041908D02*
Y920242D01*
X1045972D01*
Y916178D01*
X1041908D01*
X1067308D02*
Y920242D01*
X1071372D01*
Y916178D01*
X1067308D01*
X1105408D02*
Y920242D01*
X1109472D01*
Y916178D01*
X1105408D01*
X1130808D02*
Y920242D01*
X1134872D01*
Y916178D01*
X1130808D01*
X1156208D02*
Y920242D01*
X1160272D01*
Y916178D01*
X1156208D01*
X1181608D02*
Y920242D01*
X1185672D01*
Y916178D01*
X1181608D01*
X1207008D02*
Y920242D01*
X1211072D01*
Y916178D01*
X1207008D01*
X1232408D02*
Y920242D01*
X1236472D01*
Y916178D01*
X1232408D01*
X1257808D02*
Y920242D01*
X1261872D01*
Y916178D01*
X1257808D01*
X1283208D02*
Y920242D01*
X1287272D01*
Y916178D01*
X1283208D01*
X1375918Y787908D02*
Y791972D01*
X1379982D01*
Y787908D01*
X1375918D01*
Y838708D02*
Y842772D01*
X1379982D01*
Y838708D01*
X1375918D01*
Y813308D02*
Y817372D01*
X1379982D01*
Y813308D01*
X1375918D01*
Y762508D02*
Y766572D01*
X1379982D01*
Y762508D01*
X1375918D01*
Y737108D02*
Y741172D01*
X1379982D01*
Y737108D01*
X1375918D01*
Y711708D02*
Y715772D01*
X1379982D01*
Y711708D01*
X1375918D01*
Y686308D02*
Y690372D01*
X1379982D01*
Y686308D01*
X1375918D01*
X1380998Y338328D02*
Y342392D01*
X1385062D01*
Y338328D01*
X1380998D01*
X1406398D02*
Y342392D01*
X1410462D01*
Y338328D01*
X1406398D01*
X1380998Y312928D02*
Y316992D01*
X1385062D01*
Y312928D01*
X1380998D01*
X1406398D02*
Y316992D01*
X1410462D01*
Y312928D01*
X1406398D01*
X1380998Y287528D02*
Y291592D01*
X1385062D01*
Y287528D01*
X1380998D01*
X1406398D02*
Y291592D01*
X1410462D01*
Y287528D01*
X1406398D01*
X936498Y231648D02*
Y235712D01*
X940562D01*
Y231648D01*
X936498D01*
X911098D02*
Y235712D01*
X915162D01*
Y231648D01*
X911098D01*
X885698D02*
Y235712D01*
X889762D01*
Y231648D01*
X885698D01*
X860298D02*
Y235712D01*
X864362D01*
Y231648D01*
X860298D01*
X834898D02*
Y235712D01*
X838962D01*
Y231648D01*
X834898D01*
X809498D02*
Y235712D01*
X813562D01*
Y231648D01*
X809498D01*
Y296418D02*
Y300482D01*
X813562D01*
Y296418D01*
X809498D01*
X834898D02*
Y300482D01*
X838962D01*
Y296418D01*
X834898D01*
X860298D02*
Y300482D01*
X864362D01*
Y296418D01*
X860298D01*
X885698D02*
Y300482D01*
X889762D01*
Y296418D01*
X885698D01*
X911098D02*
Y300482D01*
X915162D01*
Y296418D01*
X911098D01*
X936498D02*
Y300482D01*
X940562D01*
Y296418D01*
X936498D01*
X191770Y909828D02*
X189738Y913892D01*
X193802D01*
X191770Y909828D01*
X217170D02*
X215138Y913892D01*
X219202D01*
X217170Y909828D01*
X242570D02*
X240538Y913892D01*
X244602D01*
X242570Y909828D01*
X1129030Y559308D02*
X1130046Y560324D01*
X1131062D01*
X1130046Y561340D01*
X1131062Y562356D01*
X1130046D01*
X1129030Y563372D01*
X1128014Y562356D01*
X1126998D01*
X1128014Y561340D01*
X1126998Y560324D01*
X1128014D01*
X1129030Y559308D01*
X1261110Y762508D02*
X1262126Y763524D01*
X1263142D01*
X1262126Y764540D01*
X1263142Y765556D01*
X1262126D01*
X1261110Y766572D01*
X1260094Y765556D01*
X1259078D01*
X1260094Y764540D01*
X1259078Y763524D01*
X1260094D01*
X1261110Y762508D01*
X1336040Y362458D02*
X1337056Y363474D01*
X1338072D01*
X1337056Y364490D01*
X1338072Y365506D01*
X1337056D01*
X1336040Y366522D01*
X1335024Y365506D01*
X1334008D01*
X1335024Y364490D01*
X1334008Y363474D01*
X1335024D01*
X1336040Y362458D01*
X1305560D02*
X1306576Y363474D01*
X1307592D01*
X1306576Y364490D01*
X1307592Y365506D01*
X1306576D01*
X1305560Y366522D01*
X1304544Y365506D01*
X1303528D01*
X1304544Y364490D01*
X1303528Y363474D01*
X1304544D01*
X1305560Y362458D01*
X1304290Y439928D02*
X1305306Y440944D01*
X1306322D01*
X1305306Y441960D01*
X1306322Y442976D01*
X1305306D01*
X1304290Y443992D01*
X1303274Y442976D01*
X1302258D01*
X1303274Y441960D01*
X1302258Y440944D01*
X1303274D01*
X1304290Y439928D01*
X1231900Y569468D02*
X1232916Y570484D01*
X1233932D01*
X1232916Y571500D01*
X1233932Y572516D01*
X1232916D01*
X1231900Y573532D01*
X1230884Y572516D01*
X1229868D01*
X1230884Y571500D01*
X1229868Y570484D01*
X1230884D01*
X1231900Y569468D01*
X1153160Y542798D02*
X1154176Y543814D01*
X1155192D01*
X1154176Y544830D01*
X1155192Y545846D01*
X1154176D01*
X1153160Y546862D01*
X1152144Y545846D01*
X1151128D01*
X1152144Y544830D01*
X1151128Y543814D01*
X1152144D01*
X1153160Y542798D01*
X1209040D02*
X1210056Y543814D01*
X1211072D01*
X1210056Y544830D01*
X1211072Y545846D01*
X1210056D01*
X1209040Y546862D01*
X1208024Y545846D01*
X1207008D01*
X1208024Y544830D01*
X1207008Y543814D01*
X1208024D01*
X1209040Y542798D01*
X495300Y643128D02*
X496316Y644144D01*
X497332D01*
X496316Y645160D01*
X497332Y646176D01*
X496316D01*
X495300Y647192D01*
X494284Y646176D01*
X493268D01*
X494284Y645160D01*
X493268Y644144D01*
X494284D01*
X495300Y643128D01*
X916940Y700278D02*
X917956Y701294D01*
X918972D01*
X917956Y702310D01*
X918972Y703326D01*
X917956D01*
X916940Y704342D01*
X915924Y703326D01*
X914908D01*
X915924Y702310D01*
X914908Y701294D01*
X915924D01*
X916940Y700278D01*
X622300Y612648D02*
X623316Y613664D01*
X624332D01*
X623316Y614680D01*
X624332Y615696D01*
X623316D01*
X622300Y616712D01*
X621284Y615696D01*
X620268D01*
X621284Y614680D01*
X620268Y613664D01*
X621284D01*
X622300Y612648D01*
X967740Y683768D02*
X968756Y684784D01*
X969772D01*
X968756Y685800D01*
X969772Y686816D01*
X968756D01*
X967740Y687832D01*
X966724Y686816D01*
X965708D01*
X966724Y685800D01*
X965708Y684784D01*
X966724D01*
X967740Y683768D01*
X942340Y682498D02*
X943356Y683514D01*
X944372D01*
X943356Y684530D01*
X944372Y685546D01*
X943356D01*
X942340Y686562D01*
X941324Y685546D01*
X940308D01*
X941324Y684530D01*
X940308Y683514D01*
X941324D01*
X942340Y682498D01*
X967740Y537718D02*
X968756Y538734D01*
X969772D01*
X968756Y539750D01*
X969772Y540766D01*
X968756D01*
X967740Y541782D01*
X966724Y540766D01*
X965708D01*
X966724Y539750D01*
X965708Y538734D01*
X966724D01*
X967740Y537718D01*
X991870Y490728D02*
X992886Y491744D01*
X993902D01*
X992886Y492760D01*
X993902Y493776D01*
X992886D01*
X991870Y494792D01*
X990854Y493776D01*
X989838D01*
X990854Y492760D01*
X989838Y491744D01*
X990854D01*
X991870Y490728D01*
X626110Y663448D02*
X627126Y664464D01*
X628142D01*
X627126Y665480D01*
X628142Y666496D01*
X627126D01*
X626110Y667512D01*
X625094Y666496D01*
X624078D01*
X625094Y665480D01*
X624078Y664464D01*
X625094D01*
X626110Y663448D01*
X655320Y688848D02*
X656336Y689864D01*
X657352D01*
X656336Y690880D01*
X657352Y691896D01*
X656336D01*
X655320Y692912D01*
X654304Y691896D01*
X653288D01*
X654304Y690880D01*
X653288Y689864D01*
X654304D01*
X655320Y688848D01*
X626110Y643128D02*
X627126Y644144D01*
X628142D01*
X627126Y645160D01*
X628142Y646176D01*
X627126D01*
X626110Y647192D01*
X625094Y646176D01*
X624078D01*
X625094Y645160D01*
X624078Y644144D01*
X625094D01*
X626110Y643128D01*
X267970Y782828D02*
X268986Y783844D01*
X270002D01*
X268986Y784860D01*
X270002Y785876D01*
X268986D01*
X267970Y786892D01*
X266954Y785876D01*
X265938D01*
X266954Y784860D01*
X265938Y783844D01*
X266954D01*
X267970Y782828D01*
X262890Y622808D02*
X263906Y623824D01*
X264922D01*
X263906Y624840D01*
X264922Y625856D01*
X263906D01*
X262890Y626872D01*
X261874Y625856D01*
X260858D01*
X261874Y624840D01*
X260858Y623824D01*
X261874D01*
X262890Y622808D01*
X181610Y594868D02*
X182626Y595884D01*
X183642D01*
X182626Y596900D01*
X183642Y597916D01*
X182626D01*
X181610Y598932D01*
X180594Y597916D01*
X179578D01*
X180594Y596900D01*
X179578Y595884D01*
X180594D01*
X181610Y594868D01*
Y676148D02*
X182626Y677164D01*
X183642D01*
X182626Y678180D01*
X183642Y679196D01*
X182626D01*
X181610Y680212D01*
X180594Y679196D01*
X179578D01*
X180594Y678180D01*
X179578Y677164D01*
X180594D01*
X181610Y676148D01*
X471170Y663448D02*
X472186Y664464D01*
X473202D01*
X472186Y665480D01*
X473202Y666496D01*
X472186D01*
X471170Y667512D01*
X470154Y666496D01*
X469138D01*
X470154Y665480D01*
X469138Y664464D01*
X470154D01*
X471170Y663448D01*
X521970Y828548D02*
X522986Y829564D01*
X524002D01*
X522986Y830580D01*
X524002Y831596D01*
X522986D01*
X521970Y832612D01*
X520954Y831596D01*
X519938D01*
X520954Y830580D01*
X519938Y829564D01*
X520954D01*
X521970Y828548D01*
Y616458D02*
X522986Y617474D01*
X524002D01*
X522986Y618490D01*
X524002Y619506D01*
X522986D01*
X521970Y620522D01*
X520954Y619506D01*
X519938D01*
X520954Y618490D01*
X519938Y617474D01*
X520954D01*
X521970Y616458D01*
D40*
X145542Y308610D02*
G03*
X145542Y308610I-2032J0D01*
G01*
Y359410D02*
G03*
X145542Y359410I-2032J0D01*
G01*
X697992Y360680D02*
G03*
X697992Y360680I-2032J0D01*
G01*
Y309880D02*
G03*
X697992Y309880I-2032J0D01*
G01*
X267462Y308610D02*
G03*
X267462Y308610I-2032J0D01*
G01*
Y359410D02*
G03*
X267462Y359410I-2032J0D01*
G01*
X582422Y308610D02*
G03*
X582422Y308610I-2032J0D01*
G01*
Y359410D02*
G03*
X582422Y359410I-2032J0D01*
G01*
X417322Y481330D02*
G03*
X417322Y481330I-2032J0D01*
G01*
Y430530D02*
G03*
X417322Y430530I-2032J0D01*
G01*
Y250190D02*
G03*
X417322Y250190I-2032J0D01*
G01*
Y300990D02*
G03*
X417322Y300990I-2032J0D01*
G01*
M02*
