G04*
G04 #@! TF.GenerationSoftware,Altium Limited,Altium Designer,21.0.9 (235)*
G04*
G04 Layer_Color=128*
%FSLAX44Y44*%
%MOMM*%
G71*
G04*
G04 #@! TF.SameCoordinates,23A475E3-534D-4AA9-8CFC-B78DB4E5A132*
G04*
G04*
G04 #@! TF.FilePolarity,Positive*
G04*
G01*
G75*
%ADD39C,0.0508*%
G36*
X766595Y152238D02*
X767409Y152163D01*
X768298Y152015D01*
X769335Y151867D01*
X770446Y151645D01*
X771631Y151349D01*
X772890Y150978D01*
X774149Y150534D01*
X775483Y149942D01*
X776742Y149349D01*
X777927Y148608D01*
X779186Y147719D01*
X780297Y146757D01*
X780371D01*
X780445Y146608D01*
X780667Y146386D01*
X780890Y146164D01*
X781186Y145794D01*
X781482Y145349D01*
X782297Y144312D01*
X783111Y142979D01*
X784000Y141350D01*
X784815Y139498D01*
X785556Y137350D01*
X775334Y134906D01*
Y134980D01*
X775260Y135054D01*
Y135276D01*
X775112Y135573D01*
X774890Y136239D01*
X774520Y137128D01*
X774001Y138165D01*
X773335Y139202D01*
X772446Y140239D01*
X771483Y141128D01*
X771335Y141202D01*
X770965Y141498D01*
X770372Y141868D01*
X769557Y142313D01*
X768520Y142757D01*
X767335Y143127D01*
X766002Y143424D01*
X764521Y143498D01*
X764002D01*
X763558Y143424D01*
X763113Y143350D01*
X762521Y143275D01*
X761262Y142979D01*
X759781Y142461D01*
X758225Y141720D01*
X757410Y141276D01*
X756670Y140757D01*
X755929Y140091D01*
X755263Y139350D01*
Y139276D01*
X755114Y139128D01*
X754966Y138906D01*
X754744Y138535D01*
X754448Y138091D01*
X754152Y137572D01*
X753855Y136906D01*
X753559Y136165D01*
X753189Y135276D01*
X752892Y134313D01*
X752596Y133202D01*
X752300Y132017D01*
X752078Y130684D01*
X751929Y129277D01*
X751855Y127722D01*
X751781Y126018D01*
Y125944D01*
Y125574D01*
Y125055D01*
X751855Y124463D01*
Y123648D01*
X752004Y122685D01*
X752078Y121722D01*
X752226Y120611D01*
X752670Y118315D01*
X753263Y116019D01*
X753633Y114908D01*
X754152Y113871D01*
X754670Y112908D01*
X755263Y112094D01*
X755337Y112020D01*
X755411Y111945D01*
X755633Y111723D01*
X755929Y111427D01*
X756670Y110834D01*
X757707Y110094D01*
X758966Y109279D01*
X760521Y108687D01*
X762299Y108168D01*
X763262Y108094D01*
X764299Y108020D01*
X764669D01*
X764965Y108094D01*
X765780Y108168D01*
X766743Y108316D01*
X767780Y108687D01*
X768965Y109131D01*
X770150Y109724D01*
X771335Y110612D01*
X771483Y110760D01*
X771853Y111131D01*
X772372Y111723D01*
X772964Y112612D01*
X773705Y113797D01*
X774372Y115204D01*
X775038Y116908D01*
X775631Y118908D01*
X785704Y115797D01*
Y115723D01*
X785630Y115427D01*
X785482Y114982D01*
X785259Y114390D01*
X784963Y113723D01*
X784667Y112908D01*
X784296Y112020D01*
X783852Y111057D01*
X782815Y109057D01*
X781482Y106983D01*
X779853Y104983D01*
X778964Y104094D01*
X778001Y103280D01*
X777927Y103206D01*
X777779Y103132D01*
X777482Y102909D01*
X777038Y102613D01*
X776520Y102317D01*
X775853Y102021D01*
X775112Y101650D01*
X774298Y101280D01*
X773335Y100836D01*
X772298Y100465D01*
X771187Y100169D01*
X770002Y99873D01*
X768743Y99576D01*
X767335Y99354D01*
X765928Y99280D01*
X764373Y99206D01*
X763928D01*
X763410Y99280D01*
X762669Y99354D01*
X761854Y99428D01*
X760817Y99576D01*
X759706Y99799D01*
X758447Y100095D01*
X757188Y100465D01*
X755855Y100910D01*
X754448Y101502D01*
X753040Y102169D01*
X751633Y102909D01*
X750226Y103872D01*
X748893Y104909D01*
X747634Y106168D01*
X747560Y106242D01*
X747337Y106465D01*
X747041Y106909D01*
X746597Y107427D01*
X746152Y108168D01*
X745560Y108983D01*
X744967Y110020D01*
X744375Y111205D01*
X743782Y112464D01*
X743190Y113871D01*
X742597Y115501D01*
X742153Y117204D01*
X741708Y118982D01*
X741412Y120982D01*
X741190Y123055D01*
X741116Y125277D01*
Y125351D01*
Y125426D01*
Y125870D01*
X741190Y126537D01*
Y127425D01*
X741338Y128462D01*
X741486Y129721D01*
X741634Y131055D01*
X741930Y132610D01*
X742301Y134165D01*
X742745Y135795D01*
X743264Y137424D01*
X743930Y139128D01*
X744671Y140757D01*
X745560Y142313D01*
X746523Y143794D01*
X747708Y145201D01*
X747782Y145275D01*
X748004Y145498D01*
X748374Y145868D01*
X748893Y146312D01*
X749559Y146831D01*
X750374Y147423D01*
X751263Y148090D01*
X752374Y148756D01*
X753559Y149423D01*
X754818Y150090D01*
X756299Y150682D01*
X757781Y151201D01*
X759484Y151645D01*
X761188Y152015D01*
X763113Y152238D01*
X765039Y152312D01*
X765928D01*
X766595Y152238D01*
D02*
G37*
G36*
X484254Y121574D02*
Y100095D01*
X473884D01*
Y121648D01*
X455145Y151349D01*
X467218D01*
X479291Y131055D01*
X491068Y151349D01*
X502992D01*
X484254Y121574D01*
D02*
G37*
G36*
X311383Y131351D02*
X331751Y100095D01*
X318345D01*
X304198Y124166D01*
X295829Y115575D01*
Y100095D01*
X285459D01*
Y151349D01*
X295829D01*
Y128536D01*
X316863Y151349D01*
X330788D01*
X311383Y131351D01*
D02*
G37*
G36*
X429593Y100095D02*
X419223D01*
X398411Y133869D01*
Y100095D01*
X388856D01*
Y151349D01*
X398855D01*
X420038Y116834D01*
Y151349D01*
X429593D01*
Y100095D01*
D02*
G37*
G36*
X732450D02*
X722896D01*
X722821Y140387D01*
X712748Y100095D01*
X702749D01*
X692676Y140387D01*
Y100095D01*
X683122D01*
Y151349D01*
X698602D01*
X707786Y116315D01*
X716896Y151349D01*
X732450D01*
Y100095D01*
D02*
G37*
G36*
X222799Y124314D02*
Y124241D01*
Y123944D01*
Y123426D01*
Y122833D01*
Y122093D01*
X222725Y121204D01*
Y120241D01*
Y119278D01*
X222577Y117130D01*
X222429Y114908D01*
X222355Y113945D01*
X222207Y112982D01*
X222059Y112094D01*
X221910Y111279D01*
Y111205D01*
X221836Y111131D01*
Y110908D01*
X221762Y110686D01*
X221540Y109946D01*
X221244Y109057D01*
X220799Y108020D01*
X220281Y106983D01*
X219614Y105872D01*
X218800Y104835D01*
X218725Y104687D01*
X218429Y104391D01*
X217911Y103946D01*
X217244Y103354D01*
X216355Y102687D01*
X215318Y102021D01*
X214133Y101280D01*
X212800Y100687D01*
X212726D01*
X212652Y100613D01*
X212430Y100539D01*
X212134Y100465D01*
X211763Y100317D01*
X211319Y100169D01*
X210726Y100021D01*
X210134Y99947D01*
X208727Y99650D01*
X207023Y99354D01*
X205097Y99206D01*
X202949Y99132D01*
X201764D01*
X201098Y99206D01*
X200431D01*
X199616Y99280D01*
X198802Y99354D01*
X197024Y99502D01*
X195172Y99799D01*
X193321Y100243D01*
X192506Y100465D01*
X191765Y100761D01*
X191691D01*
X191617Y100836D01*
X191173Y101058D01*
X190432Y101428D01*
X189617Y101946D01*
X188654Y102613D01*
X187618Y103354D01*
X186655Y104242D01*
X185766Y105205D01*
X185692Y105353D01*
X185396Y105650D01*
X185025Y106242D01*
X184581Y106983D01*
X184137Y107798D01*
X183618Y108761D01*
X183248Y109797D01*
X182877Y110908D01*
Y110983D01*
X182803Y111131D01*
Y111353D01*
X182729Y111723D01*
X182655Y112168D01*
X182581Y112760D01*
X182507Y113427D01*
X182433Y114167D01*
X182285Y115056D01*
X182211Y116019D01*
X182137Y117056D01*
X182063Y118241D01*
X181989Y119500D01*
Y120907D01*
X181915Y122389D01*
Y123944D01*
Y151349D01*
X192284D01*
Y123500D01*
Y123426D01*
Y123203D01*
Y122907D01*
Y122463D01*
Y121870D01*
Y121278D01*
X192358Y119945D01*
Y118463D01*
X192432Y117056D01*
X192506Y116389D01*
Y115797D01*
X192580Y115352D01*
X192654Y114908D01*
Y114760D01*
X192802Y114390D01*
X193025Y113797D01*
X193321Y113056D01*
X193691Y112242D01*
X194284Y111427D01*
X194950Y110538D01*
X195765Y109797D01*
X195913Y109724D01*
X196209Y109501D01*
X196802Y109205D01*
X197542Y108909D01*
X198579Y108538D01*
X199764Y108242D01*
X201098Y108020D01*
X202653Y107946D01*
X203394D01*
X204134Y108020D01*
X205097Y108168D01*
X206208Y108390D01*
X207245Y108687D01*
X208356Y109131D01*
X209245Y109724D01*
X209319Y109797D01*
X209615Y110020D01*
X209986Y110390D01*
X210430Y110908D01*
X210875Y111575D01*
X211319Y112316D01*
X211689Y113131D01*
X211911Y114093D01*
Y114242D01*
X211985Y114612D01*
X212059Y115278D01*
X212208Y116167D01*
Y116760D01*
X212282Y117426D01*
Y118167D01*
X212356Y118908D01*
Y119796D01*
X212430Y120759D01*
Y121796D01*
Y122907D01*
Y151349D01*
X222799D01*
Y124314D01*
D02*
G37*
G36*
X804665Y100095D02*
X794296D01*
Y151349D01*
X804665D01*
Y100095D01*
D02*
G37*
G36*
X673345D02*
X662976D01*
Y151349D01*
X673345D01*
Y100095D01*
D02*
G37*
G36*
X632683Y151275D02*
X634090Y151201D01*
X635645Y151127D01*
X637275Y150904D01*
X638830Y150682D01*
X640237Y150312D01*
X640311D01*
X640460Y150238D01*
X640682Y150164D01*
X640978Y150090D01*
X641867Y149719D01*
X642904Y149201D01*
X644089Y148534D01*
X645422Y147719D01*
X646681Y146757D01*
X647940Y145572D01*
X648014D01*
X648088Y145423D01*
X648459Y144979D01*
X649051Y144238D01*
X649718Y143275D01*
X650533Y142091D01*
X651347Y140683D01*
X652162Y139054D01*
X652829Y137276D01*
Y137202D01*
X652903Y137054D01*
X652977Y136758D01*
X653125Y136387D01*
X653199Y135943D01*
X653347Y135350D01*
X653495Y134684D01*
X653717Y133943D01*
X653866Y133128D01*
X654014Y132166D01*
X654162Y131203D01*
X654236Y130092D01*
X654458Y127796D01*
X654532Y125203D01*
Y125129D01*
Y124907D01*
Y124611D01*
Y124166D01*
X654458Y123574D01*
Y122981D01*
X654384Y122241D01*
X654310Y121426D01*
X654162Y119722D01*
X653866Y117945D01*
X653421Y116093D01*
X652903Y114316D01*
Y114242D01*
X652829Y114093D01*
X652681Y113797D01*
X652532Y113353D01*
X652384Y112908D01*
X652088Y112390D01*
X651496Y111057D01*
X650755Y109649D01*
X649792Y108094D01*
X648681Y106613D01*
X647422Y105205D01*
X647274Y105057D01*
X646903Y104761D01*
X646311Y104317D01*
X645496Y103724D01*
X644459Y103057D01*
X643274Y102391D01*
X641793Y101724D01*
X640163Y101132D01*
X640089D01*
X640015Y101058D01*
X639793D01*
X639571Y100984D01*
X638756Y100836D01*
X637719Y100613D01*
X636460Y100391D01*
X634905Y100243D01*
X633053Y100169D01*
X631053Y100095D01*
X611648D01*
Y151349D01*
X632090D01*
X632683Y151275D01*
D02*
G37*
G36*
X583725D02*
X584539D01*
X585354Y151201D01*
X586317D01*
X588243Y150978D01*
X590243Y150756D01*
X592094Y150386D01*
X592909Y150164D01*
X593650Y149942D01*
X593724D01*
X593798Y149867D01*
X594242Y149645D01*
X594909Y149275D01*
X595798Y148830D01*
X596760Y148090D01*
X597723Y147275D01*
X598686Y146238D01*
X599575Y144979D01*
Y144905D01*
X599649Y144831D01*
X599797Y144609D01*
X599945Y144387D01*
X600316Y143646D01*
X600760Y142683D01*
X601130Y141498D01*
X601501Y140165D01*
X601797Y138609D01*
X601871Y136980D01*
Y136906D01*
Y136758D01*
Y136387D01*
X601797Y136017D01*
Y135499D01*
X601723Y134980D01*
X601427Y133647D01*
X601056Y132092D01*
X600464Y130536D01*
X599575Y128907D01*
X599057Y128166D01*
X598464Y127425D01*
X598390Y127351D01*
X598316Y127277D01*
X598094Y127055D01*
X597797Y126833D01*
X597501Y126537D01*
X597057Y126166D01*
X596538Y125796D01*
X595946Y125426D01*
X595279Y124981D01*
X594464Y124611D01*
X593650Y124241D01*
X592761Y123870D01*
X591724Y123500D01*
X590687Y123203D01*
X589576Y122907D01*
X588317Y122685D01*
X588391D01*
X588465Y122611D01*
X588909Y122315D01*
X589502Y121944D01*
X590243Y121426D01*
X591131Y120759D01*
X592020Y120093D01*
X592983Y119278D01*
X593798Y118389D01*
X593872Y118315D01*
X594242Y117945D01*
X594687Y117352D01*
X595353Y116463D01*
X596242Y115352D01*
X596686Y114612D01*
X597205Y113871D01*
X597797Y113056D01*
X598390Y112168D01*
X599057Y111131D01*
X599723Y110094D01*
X606019Y100095D01*
X593576D01*
X586169Y111205D01*
X586095Y111279D01*
X586021Y111501D01*
X585799Y111797D01*
X585502Y112168D01*
X585206Y112612D01*
X584836Y113205D01*
X584021Y114390D01*
X583058Y115723D01*
X582169Y116908D01*
X581355Y118019D01*
X580984Y118389D01*
X580688Y118760D01*
X580614Y118834D01*
X580466Y118982D01*
X580169Y119278D01*
X579799Y119648D01*
X579281Y119945D01*
X578762Y120315D01*
X578170Y120611D01*
X577577Y120907D01*
X577503D01*
X577281Y120982D01*
X576911Y121130D01*
X576318Y121204D01*
X575577Y121352D01*
X574689Y121426D01*
X573652Y121500D01*
X570319D01*
Y100095D01*
X559949D01*
Y151349D01*
X583058D01*
X583725Y151275D01*
D02*
G37*
G36*
X554394Y100095D02*
X543210D01*
X538766Y111723D01*
X518176D01*
X513954Y100095D01*
X502992D01*
X522842Y151349D01*
X533804D01*
X554394Y100095D01*
D02*
G37*
G36*
X383301D02*
X372117D01*
X367673Y111723D01*
X347083D01*
X342861Y100095D01*
X331899D01*
X351749Y151349D01*
X362711D01*
X383301Y100095D01*
D02*
G37*
G36*
X257536Y151275D02*
X258351D01*
X259166Y151201D01*
X260129D01*
X262054Y150978D01*
X264054Y150756D01*
X265906Y150386D01*
X266721Y150164D01*
X267461Y149942D01*
X267535D01*
X267609Y149867D01*
X268054Y149645D01*
X268720Y149275D01*
X269609Y148830D01*
X270572Y148090D01*
X271535Y147275D01*
X272498Y146238D01*
X273386Y144979D01*
Y144905D01*
X273461Y144831D01*
X273609Y144609D01*
X273757Y144387D01*
X274127Y143646D01*
X274572Y142683D01*
X274942Y141498D01*
X275312Y140165D01*
X275609Y138609D01*
X275683Y136980D01*
Y136906D01*
Y136758D01*
Y136387D01*
X275609Y136017D01*
Y135499D01*
X275534Y134980D01*
X275238Y133647D01*
X274868Y132092D01*
X274275Y130536D01*
X273386Y128907D01*
X272868Y128166D01*
X272276Y127425D01*
X272201Y127351D01*
X272127Y127277D01*
X271905Y127055D01*
X271609Y126833D01*
X271313Y126537D01*
X270868Y126166D01*
X270350Y125796D01*
X269757Y125426D01*
X269091Y124981D01*
X268276Y124611D01*
X267461Y124241D01*
X266572Y123870D01*
X265536Y123500D01*
X264499Y123203D01*
X263388Y122907D01*
X262128Y122685D01*
X262202D01*
X262276Y122611D01*
X262721Y122315D01*
X263314Y121944D01*
X264054Y121426D01*
X264943Y120759D01*
X265832Y120093D01*
X266795Y119278D01*
X267609Y118389D01*
X267683Y118315D01*
X268054Y117945D01*
X268498Y117352D01*
X269165Y116463D01*
X270054Y115352D01*
X270498Y114612D01*
X271016Y113871D01*
X271609Y113056D01*
X272201Y112168D01*
X272868Y111131D01*
X273535Y110094D01*
X279830Y100095D01*
X267387D01*
X259981Y111205D01*
X259906Y111279D01*
X259832Y111501D01*
X259610Y111797D01*
X259314Y112168D01*
X259018Y112612D01*
X258647Y113205D01*
X257833Y114390D01*
X256870Y115723D01*
X255981Y116908D01*
X255166Y118019D01*
X254796Y118389D01*
X254500Y118760D01*
X254426Y118834D01*
X254277Y118982D01*
X253981Y119278D01*
X253611Y119648D01*
X253092Y119945D01*
X252574Y120315D01*
X251981Y120611D01*
X251389Y120907D01*
X251315D01*
X251092Y120982D01*
X250722Y121130D01*
X250130Y121204D01*
X249389Y121352D01*
X248500Y121426D01*
X247463Y121500D01*
X244130D01*
Y100095D01*
X233761D01*
Y151349D01*
X256870D01*
X257536Y151275D01*
D02*
G37*
G36*
X173471Y142683D02*
X148659D01*
Y130536D01*
X170064D01*
Y121870D01*
X148659D01*
Y100095D01*
X138289D01*
Y151349D01*
X173471D01*
Y142683D01*
D02*
G37*
%LPC*%
G36*
X628757D02*
X622017D01*
Y108761D01*
X631127D01*
X632090Y108835D01*
X633127D01*
X634164Y108983D01*
X635127Y109057D01*
X635942Y109205D01*
X636090D01*
X636386Y109353D01*
X636830Y109501D01*
X637423Y109724D01*
X638089Y110020D01*
X638756Y110390D01*
X639423Y110834D01*
X640089Y111353D01*
X640163Y111427D01*
X640386Y111649D01*
X640682Y112020D01*
X641052Y112538D01*
X641422Y113205D01*
X641941Y114019D01*
X642311Y115056D01*
X642756Y116241D01*
Y116315D01*
X642830Y116389D01*
Y116612D01*
X642904Y116908D01*
X643052Y117204D01*
X643126Y117649D01*
X643348Y118760D01*
X643496Y120093D01*
X643718Y121648D01*
X643793Y123574D01*
X643867Y125648D01*
Y125722D01*
Y125944D01*
Y126240D01*
Y126611D01*
Y127129D01*
X643793Y127722D01*
X643718Y128981D01*
X643570Y130462D01*
X643422Y132017D01*
X643126Y133425D01*
X642756Y134758D01*
Y134832D01*
X642682Y134906D01*
X642533Y135276D01*
X642311Y135869D01*
X642015Y136610D01*
X641571Y137350D01*
X641052Y138165D01*
X640460Y138980D01*
X639793Y139720D01*
X639719Y139794D01*
X639497Y140017D01*
X639052Y140313D01*
X638534Y140683D01*
X637793Y141128D01*
X636978Y141498D01*
X636090Y141868D01*
X635053Y142164D01*
X634979D01*
X634608Y142239D01*
X634016Y142313D01*
X633201Y142461D01*
X632683D01*
X632016Y142535D01*
X631349D01*
X630609Y142609D01*
X629720D01*
X628757Y142683D01*
D02*
G37*
G36*
X582169D02*
X570319D01*
Y129647D01*
X580392D01*
X581873Y129721D01*
X583428Y129795D01*
X584984Y129869D01*
X585650Y129944D01*
X586243Y130018D01*
X586836Y130166D01*
X587206Y130240D01*
X587280D01*
X587502Y130388D01*
X587872Y130536D01*
X588243Y130758D01*
X589206Y131425D01*
X589650Y131869D01*
X590094Y132388D01*
X590168Y132462D01*
X590243Y132684D01*
X590465Y132980D01*
X590687Y133425D01*
X590835Y134017D01*
X591057Y134684D01*
X591131Y135424D01*
X591205Y136239D01*
Y136387D01*
Y136684D01*
X591131Y137128D01*
X591057Y137721D01*
X590835Y138387D01*
X590613Y139054D01*
X590243Y139794D01*
X589798Y140387D01*
X589724Y140461D01*
X589576Y140683D01*
X589206Y140905D01*
X588761Y141276D01*
X588243Y141646D01*
X587576Y141942D01*
X586761Y142239D01*
X585873Y142461D01*
X585799D01*
X585576Y142535D01*
X585132D01*
X584465Y142609D01*
X582836D01*
X582169Y142683D01*
D02*
G37*
G36*
X528249Y139424D02*
X521287Y120389D01*
X535433D01*
X528249Y139424D01*
D02*
G37*
G36*
X357156D02*
X350193Y120389D01*
X364340D01*
X357156Y139424D01*
D02*
G37*
G36*
X255981Y142683D02*
X244130D01*
Y129647D01*
X254203D01*
X255685Y129721D01*
X257240Y129795D01*
X258795Y129869D01*
X259462Y129944D01*
X260054Y130018D01*
X260647Y130166D01*
X261017Y130240D01*
X261091D01*
X261314Y130388D01*
X261684Y130536D01*
X262054Y130758D01*
X263017Y131425D01*
X263462Y131869D01*
X263906Y132388D01*
X263980Y132462D01*
X264054Y132684D01*
X264276Y132980D01*
X264499Y133425D01*
X264647Y134017D01*
X264869Y134684D01*
X264943Y135424D01*
X265017Y136239D01*
Y136387D01*
Y136684D01*
X264943Y137128D01*
X264869Y137721D01*
X264647Y138387D01*
X264424Y139054D01*
X264054Y139794D01*
X263610Y140387D01*
X263536Y140461D01*
X263388Y140683D01*
X263017Y140905D01*
X262573Y141276D01*
X262054Y141646D01*
X261388Y141942D01*
X260573Y142239D01*
X259684Y142461D01*
X259610D01*
X259388Y142535D01*
X258944D01*
X258277Y142609D01*
X256647D01*
X255981Y142683D01*
D02*
G37*
%LPD*%
D39*
X1000070Y190500D02*
X1009070D01*
X1004570Y186000D02*
Y195000D01*
X1177870Y190500D02*
X1186870D01*
X1182370Y186000D02*
Y195000D01*
X1152470Y190500D02*
X1161470D01*
X1156970Y186000D02*
Y195000D01*
X1127070Y190500D02*
X1136070D01*
X1131570Y186000D02*
Y195000D01*
X1101670Y190500D02*
X1110670D01*
X1106170Y186000D02*
Y195000D01*
X1076270Y190500D02*
X1085270D01*
X1080770Y186000D02*
Y195000D01*
X1050870Y190500D02*
X1059870D01*
X1055370Y186000D02*
Y195000D01*
X1025470Y190500D02*
X1034470D01*
X1029970Y186000D02*
Y195000D01*
X974670Y190500D02*
X983670D01*
X979170Y186000D02*
Y195000D01*
X593670Y830580D02*
X602670D01*
X598170Y826080D02*
Y835080D01*
X568270Y830580D02*
X577270D01*
X572770Y826080D02*
Y835080D01*
X542870Y830580D02*
X551870D01*
X547370Y826080D02*
Y835080D01*
X517470Y830580D02*
X526470D01*
X521970Y826080D02*
Y835080D01*
X492070Y830580D02*
X501070D01*
X496570Y826080D02*
Y835080D01*
X466670Y830580D02*
X475670D01*
X471170Y826080D02*
Y835080D01*
X441270Y830580D02*
X450270D01*
X445770Y826080D02*
Y835080D01*
X415870Y830580D02*
X424870D01*
X420370Y826080D02*
Y835080D01*
X390470Y830580D02*
X399470D01*
X394970Y826080D02*
Y835080D01*
X365070Y830580D02*
X374070D01*
X369570Y826080D02*
Y835080D01*
X339670Y830580D02*
X348670D01*
X344170Y826080D02*
Y835080D01*
X314270Y830580D02*
X323270D01*
X318770Y826080D02*
Y835080D01*
X288870Y830580D02*
X297870D01*
X293370Y826080D02*
Y835080D01*
X263470Y830580D02*
X272470D01*
X267970Y826080D02*
Y835080D01*
X238070Y830580D02*
X247070D01*
X242570Y826080D02*
Y835080D01*
X212670Y830580D02*
X221670D01*
X217170Y826080D02*
Y835080D01*
X974670Y298450D02*
X983670D01*
X979170Y293950D02*
Y302950D01*
X1000070Y298450D02*
X1009070D01*
X1004570Y293950D02*
Y302950D01*
X1025470Y298450D02*
X1034470D01*
X1029970Y293950D02*
Y302950D01*
X1050870Y298450D02*
X1059870D01*
X1055370Y293950D02*
Y302950D01*
X1076270Y298450D02*
X1085270D01*
X1080770Y293950D02*
Y302950D01*
X1101670Y298450D02*
X1110670D01*
X1106170Y293950D02*
Y302950D01*
X1129610Y234950D02*
X1138610D01*
X1134110Y230450D02*
Y239450D01*
X1307410Y234950D02*
X1316410D01*
X1311910Y230450D02*
Y239450D01*
X1282010Y234950D02*
X1291010D01*
X1286510Y230450D02*
Y239450D01*
X1256610Y234950D02*
X1265610D01*
X1261110Y230450D02*
Y239450D01*
X1231210Y234950D02*
X1240210D01*
X1235710Y230450D02*
Y239450D01*
X1205810Y234950D02*
X1214810D01*
X1210310Y230450D02*
Y239450D01*
X1180410Y234950D02*
X1189410D01*
X1184910Y230450D02*
Y239450D01*
X1155010Y234950D02*
X1164010D01*
X1159510Y230450D02*
Y239450D01*
X1104210Y234950D02*
X1113210D01*
X1108710Y230450D02*
Y239450D01*
X1373450Y441960D02*
X1382450D01*
X1377950Y437460D02*
Y446460D01*
X1373450Y619760D02*
X1382450D01*
X1377950Y615260D02*
Y624260D01*
X1373450Y594360D02*
X1382450D01*
X1377950Y589860D02*
Y598860D01*
X1373450Y568960D02*
X1382450D01*
X1377950Y564460D02*
Y573460D01*
X1373450Y543560D02*
X1382450D01*
X1377950Y539060D02*
Y548060D01*
X1373450Y518160D02*
X1382450D01*
X1377950Y513660D02*
Y522660D01*
X1373450Y492760D02*
X1382450D01*
X1377950Y488260D02*
Y497260D01*
X1373450Y467360D02*
X1382450D01*
X1377950Y462860D02*
Y471860D01*
X1373450Y416560D02*
X1382450D01*
X1377950Y412060D02*
Y421060D01*
X887040Y918210D02*
X896040D01*
X891540Y913710D02*
Y922710D01*
X912440Y918210D02*
X921440D01*
X916940Y913710D02*
Y922710D01*
X937840Y918210D02*
X946840D01*
X942340Y913710D02*
Y922710D01*
X963240Y918210D02*
X972240D01*
X967740Y913710D02*
Y922710D01*
X988640Y918210D02*
X997640D01*
X993140Y913710D02*
Y922710D01*
X1014040Y918210D02*
X1023040D01*
X1018540Y913710D02*
Y922710D01*
X1039440Y918210D02*
X1048440D01*
X1043940Y913710D02*
Y922710D01*
X1064840Y918210D02*
X1073840D01*
X1069340Y913710D02*
Y922710D01*
X1102940Y918210D02*
X1111940D01*
X1107440Y913710D02*
Y922710D01*
X1128340Y918210D02*
X1137340D01*
X1132840Y913710D02*
Y922710D01*
X1153740Y918210D02*
X1162740D01*
X1158240Y913710D02*
Y922710D01*
X1179140Y918210D02*
X1188140D01*
X1183640Y913710D02*
Y922710D01*
X1204540Y918210D02*
X1213540D01*
X1209040Y913710D02*
Y922710D01*
X1229940Y918210D02*
X1238940D01*
X1234440Y913710D02*
Y922710D01*
X1255340Y918210D02*
X1264340D01*
X1259840Y913710D02*
Y922710D01*
X1280740Y918210D02*
X1289740D01*
X1285240Y913710D02*
Y922710D01*
X1373450Y789940D02*
X1382450D01*
X1377950Y785440D02*
Y794440D01*
X1373450Y840740D02*
X1382450D01*
X1377950Y836240D02*
Y845240D01*
X1373450Y815340D02*
X1382450D01*
X1377950Y810840D02*
Y819840D01*
X1373450Y764540D02*
X1382450D01*
X1377950Y760040D02*
Y769040D01*
X1373450Y739140D02*
X1382450D01*
X1377950Y734640D02*
Y743640D01*
X1373450Y713740D02*
X1382450D01*
X1377950Y709240D02*
Y718240D01*
X1373450Y688340D02*
X1382450D01*
X1377950Y683840D02*
Y692840D01*
X1378530Y340360D02*
X1387530D01*
X1383030Y335860D02*
Y344860D01*
X1403930Y340360D02*
X1412930D01*
X1408430Y335860D02*
Y344860D01*
X1378530Y314960D02*
X1387530D01*
X1383030Y310460D02*
Y319460D01*
X1403930Y314960D02*
X1412930D01*
X1408430Y310460D02*
Y319460D01*
X1378530Y289560D02*
X1387530D01*
X1383030Y285060D02*
Y294060D01*
X1403930Y289560D02*
X1412930D01*
X1408430Y285060D02*
Y294060D01*
X138010Y308610D02*
X149010D01*
X143510Y303110D02*
Y314110D01*
X138010Y359410D02*
X149010D01*
X143510Y353910D02*
Y364910D01*
X690460Y360680D02*
X701460D01*
X695960Y355180D02*
Y366180D01*
X690460Y309880D02*
X701460D01*
X695960Y304380D02*
Y315380D01*
X934030Y233680D02*
X943030D01*
X938530Y229180D02*
Y238180D01*
X908630Y233680D02*
X917630D01*
X913130Y229180D02*
Y238180D01*
X883230Y233680D02*
X892230D01*
X887730Y229180D02*
Y238180D01*
X857830Y233680D02*
X866830D01*
X862330Y229180D02*
Y238180D01*
X832430Y233680D02*
X841430D01*
X836930Y229180D02*
Y238180D01*
X807030Y233680D02*
X816030D01*
X811530Y229180D02*
Y238180D01*
X807030Y298450D02*
X816030D01*
X811530Y293950D02*
Y302950D01*
X832430Y298450D02*
X841430D01*
X836930Y293950D02*
Y302950D01*
X857830Y298450D02*
X866830D01*
X862330Y293950D02*
Y302950D01*
X883230Y298450D02*
X892230D01*
X887730Y293950D02*
Y302950D01*
X908630Y298450D02*
X917630D01*
X913130Y293950D02*
Y302950D01*
X934030Y298450D02*
X943030D01*
X938530Y293950D02*
Y302950D01*
X188270Y911860D02*
X195270D01*
X191770Y908360D02*
Y915360D01*
X213670Y911860D02*
X220670D01*
X217170Y908360D02*
Y915360D01*
X239070Y911860D02*
X246070D01*
X242570Y908360D02*
Y915360D01*
X259930Y308610D02*
X270930D01*
X265430Y303110D02*
Y314110D01*
X259930Y359410D02*
X270930D01*
X265430Y353910D02*
Y364910D01*
X574890Y308610D02*
X585890D01*
X580390Y303110D02*
Y314110D01*
X574890Y359410D02*
X585890D01*
X580390Y353910D02*
Y364910D01*
X409790Y481330D02*
X420790D01*
X415290Y475830D02*
Y486830D01*
X409790Y430530D02*
X420790D01*
X415290Y425030D02*
Y436030D01*
X409790Y250190D02*
X420790D01*
X415290Y244690D02*
Y255690D01*
X409790Y300990D02*
X420790D01*
X415290Y295490D02*
Y306490D01*
X1125474Y561340D02*
X1132586D01*
X1129030Y557784D02*
Y564896D01*
X1257554Y764540D02*
X1264666D01*
X1261110Y760984D02*
Y768096D01*
X1332484Y364490D02*
X1339596D01*
X1336040Y360934D02*
Y368046D01*
X1302004Y364490D02*
X1309116D01*
X1305560Y360934D02*
Y368046D01*
X1300734Y441960D02*
X1307846D01*
X1304290Y438404D02*
Y445516D01*
X1228344Y571500D02*
X1235456D01*
X1231900Y567944D02*
Y575056D01*
X1149604Y544830D02*
X1156716D01*
X1153160Y541274D02*
Y548386D01*
X1205484Y544830D02*
X1212596D01*
X1209040Y541274D02*
Y548386D01*
X491744Y645160D02*
X498856D01*
X495300Y641604D02*
Y648716D01*
X913384Y702310D02*
X920496D01*
X916940Y698754D02*
Y705866D01*
X618744Y614680D02*
X625856D01*
X622300Y611124D02*
Y618236D01*
X964184Y685800D02*
X971296D01*
X967740Y682244D02*
Y689356D01*
X938784Y684530D02*
X945896D01*
X942340Y680974D02*
Y688086D01*
X964184Y539750D02*
X971296D01*
X967740Y536194D02*
Y543306D01*
X988314Y492760D02*
X995426D01*
X991870Y489204D02*
Y496316D01*
X622554Y665480D02*
X629666D01*
X626110Y661924D02*
Y669036D01*
X651764Y690880D02*
X658876D01*
X655320Y687324D02*
Y694436D01*
X622554Y645160D02*
X629666D01*
X626110Y641604D02*
Y648716D01*
X264414Y784860D02*
X271526D01*
X267970Y781304D02*
Y788416D01*
X259334Y624840D02*
X266446D01*
X262890Y621284D02*
Y628396D01*
X178054Y596900D02*
X185166D01*
X181610Y593344D02*
Y600456D01*
X178054Y678180D02*
X185166D01*
X181610Y674624D02*
Y681736D01*
X467614Y665480D02*
X474726D01*
X471170Y661924D02*
Y669036D01*
X518414Y830580D02*
X525526D01*
X521970Y827024D02*
Y834136D01*
X518414Y618490D02*
X525526D01*
X521970Y614934D02*
Y622046D01*
M02*
