M48
;Layer_Color=9474304
;FILE_FORMAT=4:4
METRIC,LZ
;TYPE=PLATED
T1F00S00C0.7112
T2F00S00C0.9000
%
T01
X0094742Y0023622
X0103632Y0023241
X0106299Y0032893
X0108839Y0030861
X0111379Y0029083
X0126238Y0032131
X0129794Y0035179
X0124333Y0046609
X0121666Y0049276
X0119253Y005207
X0098552Y0034925
X0077978Y0035687
X007747Y0033401
X0077597Y0030988
Y0029083
X0075438Y0040386
X0075311Y0042672
X0075438Y0045593
Y004953
Y0051562
X00868045Y00147955
X0078359Y005588
Y0057912
Y0060198
X0078994Y006604
X0081915Y0067945
X0081788Y0070104
X0078486Y0074422
X0094361Y0072136
Y0062357
X0099822
T02
X0139065Y0025146
Y0027686
Y0030226
X0141605
Y0027686
Y0025146
X0138557Y0037846
Y0040386
Y0042926
Y0045466
Y0048006
Y0050546
Y0053086
X0131953Y0019558
X0129413
X0126873
X0124333
X0121793
X0119253
X0116713
X0114173
X0111633
X0111379Y001524
X0113919
X0116459
X0118999
X0108839
X0106299
X0103759
X0101219
X0098679
X0094615Y0019558
Y0026035
X0098679
X0101219
X0103759
X0106299
X0108839
X0111379
X0092075
X0089535
X0086995
X0084455
X0081915
Y0019558
X0084455
X0086995
X0089535
X0092075
X0073787Y002921
X0071247
X0068707
X0066167
X0063627
X0061087
X0056134
X0053594
X0051054
X0048514
X0045974
X0043434
X0040894
X0038354
X0039243Y0077343
X0036703
X0034163
X0031623
X0029083
X0041783
X0044323
X0046863
X0049403
X0051943
X0056007
X0058547
X0061087
X0063627
X0066167
X0068707
X0071247
X0073787
X0089408Y0088011
X0091948
X0094488
X0097028
X0099568
X0102108
X0104648
X0107188
X0111633
X0114173
X0116713
X0119253
X0121793
X0124333
X0126873
X0129413
X0138557Y0080264
Y0077724
Y0075184
Y0072644
Y0070104
Y0067564
Y0065024
Y0058166
Y0055626
M30
